G04*
G04 #@! TF.GenerationSoftware,Altium Limited,Altium Designer,23.10.1 (27)*
G04*
G04 Layer_Color=8421504*
%FSLAX25Y25*%
%MOIN*%
G70*
G04*
G04 #@! TF.SameCoordinates,1D9EF59F-A9A3-4DE6-AF9F-94A01C22AB5E*
G04*
G04*
G04 #@! TF.FilePolarity,Positive*
G04*
G01*
G75*
%ADD17C,0.01968*%
%ADD18R,0.03150X0.03740*%
%ADD19R,0.03347X0.00984*%
%ADD20R,0.00984X0.03347*%
%ADD21R,0.22047X0.22047*%
%ADD22R,0.03937X0.03937*%
%ADD23R,0.05906X0.07480*%
%ADD24R,0.01575X0.05315*%
%ADD25R,0.12205X0.12205*%
%ADD26R,0.09843X0.06693*%
%ADD27R,0.02200X0.03850*%
%ADD28R,0.03740X0.03150*%
%ADD29R,0.03543X0.02953*%
%ADD30R,0.06693X0.09843*%
%ADD31R,0.02717X0.05906*%
%ADD32R,0.03150X0.00787*%
%ADD33R,0.02953X0.03543*%
%ADD34R,0.03543X0.02362*%
%ADD35R,0.02953X0.02362*%
%ADD36R,0.02200X0.02900*%
%ADD37R,0.07087X0.03543*%
%ADD38R,0.04724X0.05512*%
%ADD39R,0.04134X0.05118*%
%ADD40R,0.03307X0.02520*%
%ADD41R,0.06299X0.08661*%
%ADD42R,0.06299X0.08583*%
%ADD43R,0.06299X0.05512*%
%ADD44R,0.05315X0.04331*%
%ADD45R,0.08465X0.12795*%
%ADD46R,0.08465X0.03937*%
G36*
X312693Y482016D02*
X310724D01*
X310724Y485559D01*
X312693D01*
Y482016D01*
D02*
G37*
G36*
X317811Y480047D02*
X312693D01*
Y487528D01*
X317811D01*
Y480047D01*
D02*
G37*
G36*
X341039D02*
X335921D01*
Y487528D01*
X341039D01*
Y480047D01*
D02*
G37*
G36*
X343008Y482016D02*
X341039D01*
Y485559D01*
X343008D01*
X343008Y482016D01*
D02*
G37*
D17*
X313677Y482016D02*
G03*
X313677Y482016I-984J0D01*
G01*
Y485559D02*
G03*
X313677Y485559I-984J0D01*
G01*
X342024Y482016D02*
G03*
X342024Y482016I-984J0D01*
G01*
Y485559D02*
G03*
X342024Y485559I-984J0D01*
G01*
D18*
X316059Y351000D02*
D03*
X310941D02*
D03*
X343369Y347337D02*
D03*
X348487D02*
D03*
X301059Y457000D02*
D03*
X295941D02*
D03*
X339059Y358500D02*
D03*
X333941D02*
D03*
X286720Y442075D02*
D03*
X291839D02*
D03*
X369059Y318500D02*
D03*
X363941D02*
D03*
X307500Y310000D02*
D03*
X302382D02*
D03*
D19*
X341000Y378594D02*
D03*
Y380563D02*
D03*
Y382531D02*
D03*
Y384500D02*
D03*
Y386469D02*
D03*
Y388437D02*
D03*
Y390406D02*
D03*
Y392374D02*
D03*
Y394342D02*
D03*
Y396311D02*
D03*
Y398280D02*
D03*
Y400248D02*
D03*
X314032D02*
D03*
Y398280D02*
D03*
Y396311D02*
D03*
Y394342D02*
D03*
Y392374D02*
D03*
Y390406D02*
D03*
Y388437D02*
D03*
Y386469D02*
D03*
Y384500D02*
D03*
Y382531D02*
D03*
Y380563D02*
D03*
Y378594D02*
D03*
X316453Y337890D02*
D03*
Y335921D02*
D03*
Y333953D02*
D03*
Y331984D02*
D03*
Y330016D02*
D03*
Y328047D02*
D03*
Y326079D02*
D03*
Y324110D02*
D03*
X335547D02*
D03*
Y326079D02*
D03*
Y328047D02*
D03*
Y330016D02*
D03*
Y331984D02*
D03*
Y333953D02*
D03*
Y335921D02*
D03*
Y337890D02*
D03*
D20*
X338342Y402906D02*
D03*
X336374D02*
D03*
X334405D02*
D03*
X332437D02*
D03*
X330469D02*
D03*
X328500D02*
D03*
X326532D02*
D03*
X324563D02*
D03*
X322594D02*
D03*
X320626D02*
D03*
X318657D02*
D03*
X316689D02*
D03*
Y375937D02*
D03*
X318657D02*
D03*
X320626D02*
D03*
X322594D02*
D03*
X324563D02*
D03*
X326532D02*
D03*
X328500D02*
D03*
X330469D02*
D03*
X332437D02*
D03*
X334405D02*
D03*
X336374D02*
D03*
X338342D02*
D03*
X319110Y321453D02*
D03*
X321079D02*
D03*
X323047D02*
D03*
X325016D02*
D03*
X326984D02*
D03*
X328953D02*
D03*
X330921D02*
D03*
X332890D02*
D03*
Y340547D02*
D03*
X330921D02*
D03*
X328953D02*
D03*
X326984D02*
D03*
X325016D02*
D03*
X323047D02*
D03*
X321079D02*
D03*
X319110D02*
D03*
D21*
X327516Y389421D02*
D03*
D22*
X377000Y273000D02*
D03*
X272500D02*
D03*
D23*
X322929Y483787D02*
D03*
X330803D02*
D03*
D24*
X321748Y473158D02*
D03*
X324307D02*
D03*
X326866D02*
D03*
X329425D02*
D03*
X331984D02*
D03*
D25*
X326000Y331000D02*
D03*
D26*
X328500Y449000D02*
D03*
X344248D02*
D03*
X328626Y434500D02*
D03*
X344374D02*
D03*
D27*
X261240Y401375D02*
D03*
X257500D02*
D03*
X253760D02*
D03*
Y390625D02*
D03*
X257500D02*
D03*
X261240D02*
D03*
D28*
X365500Y396941D02*
D03*
Y402059D02*
D03*
X283000Y417559D02*
D03*
Y412441D02*
D03*
X268000Y374000D02*
D03*
Y368882D02*
D03*
X260000Y368941D02*
D03*
Y374059D02*
D03*
X283000Y423000D02*
D03*
Y428118D02*
D03*
X319280Y434575D02*
D03*
Y429457D02*
D03*
X311280Y434634D02*
D03*
Y429516D02*
D03*
X365500Y417559D02*
D03*
Y412441D02*
D03*
X370500Y463441D02*
D03*
Y468559D02*
D03*
X378000Y463382D02*
D03*
Y468500D02*
D03*
X345500Y319059D02*
D03*
Y313941D02*
D03*
D29*
X357500Y397000D02*
D03*
Y401724D02*
D03*
X349000Y397138D02*
D03*
Y401862D02*
D03*
X304000Y347362D02*
D03*
Y342638D02*
D03*
X301500Y378638D02*
D03*
Y383362D02*
D03*
X394000Y451862D02*
D03*
Y447138D02*
D03*
X348000Y280138D02*
D03*
Y284862D02*
D03*
X329000D02*
D03*
Y280138D02*
D03*
X338500D02*
D03*
Y284862D02*
D03*
X304000Y331638D02*
D03*
Y336362D02*
D03*
X300500Y284862D02*
D03*
Y280138D02*
D03*
X310000Y284862D02*
D03*
Y280138D02*
D03*
X319500Y284724D02*
D03*
Y280000D02*
D03*
D30*
X282000Y344248D02*
D03*
Y328500D02*
D03*
D31*
X295000Y423500D02*
D03*
D32*
X291280Y426650D02*
D03*
Y425075D02*
D03*
Y423500D02*
D03*
Y421925D02*
D03*
Y420350D02*
D03*
X298721Y426650D02*
D03*
Y425075D02*
D03*
Y423500D02*
D03*
Y421925D02*
D03*
Y420350D02*
D03*
D33*
X286917Y434575D02*
D03*
X291642D02*
D03*
X367862Y364500D02*
D03*
X363138D02*
D03*
X363000Y390000D02*
D03*
X367724D02*
D03*
X304142Y434575D02*
D03*
X299417D02*
D03*
X314362Y410000D02*
D03*
X309638D02*
D03*
X334138Y366500D02*
D03*
X338862D02*
D03*
X369638Y326500D02*
D03*
X374362D02*
D03*
X328138Y301500D02*
D03*
X332862D02*
D03*
X353138Y318500D02*
D03*
X357862D02*
D03*
X358362Y310500D02*
D03*
X353638D02*
D03*
X369638Y347500D02*
D03*
X374362D02*
D03*
X317138Y301500D02*
D03*
X321862D02*
D03*
D34*
X311779Y424528D02*
D03*
Y418622D02*
D03*
X318280Y424480D02*
D03*
Y418575D02*
D03*
X378000Y474047D02*
D03*
Y479953D02*
D03*
X370500Y474094D02*
D03*
Y480000D02*
D03*
D35*
X310669Y452740D02*
D03*
Y445260D02*
D03*
X319331Y449000D02*
D03*
D36*
X267750Y361400D02*
D03*
X260250D02*
D03*
X264000Y353600D02*
D03*
D37*
Y343390D02*
D03*
Y329610D02*
D03*
D38*
X368693Y372839D02*
D03*
Y381500D02*
D03*
X362000D02*
D03*
Y372839D02*
D03*
D39*
X362390Y332500D02*
D03*
Y341555D02*
D03*
X355500D02*
D03*
Y332500D02*
D03*
D40*
X322500Y314098D02*
D03*
Y308902D02*
D03*
X328000Y314098D02*
D03*
Y308902D02*
D03*
D41*
X394500Y396590D02*
D03*
D42*
Y360409D02*
D03*
D43*
X402673Y420405D02*
D03*
X374327D02*
D03*
X402673Y408595D02*
D03*
X374327D02*
D03*
D44*
X393500Y435000D02*
D03*
Y440512D02*
D03*
D45*
X359984Y443000D02*
D03*
D46*
X383016Y452055D02*
D03*
Y443000D02*
D03*
Y433945D02*
D03*
M02*
