G04*
G04 #@! TF.GenerationSoftware,Altium Limited,Altium Designer,23.10.1 (27)*
G04*
G04 Layer_Color=32896*
%FSLAX25Y25*%
%MOIN*%
G70*
G04*
G04 #@! TF.SameCoordinates,1D9EF59F-A9A3-4DE6-AF9F-94A01C22AB5E*
G04*
G04*
G04 #@! TF.FilePolarity,Positive*
G04*
G01*
G75*
%ADD10C,0.00984*%
%ADD11C,0.02000*%
%ADD12C,0.00394*%
%ADD13C,0.00787*%
%ADD14C,0.00600*%
%ADD16C,0.00591*%
%ADD65C,0.00500*%
D10*
X299685Y344500D02*
G03*
X299685Y344500I-492J0D01*
G01*
D11*
X244937Y436500D02*
G03*
X244937Y436500I-1500J0D01*
G01*
X307690Y432000D02*
G03*
X307690Y432000I-1500J0D01*
G01*
D12*
X298795Y368390D02*
G03*
X298795Y368390I-197J0D01*
G01*
D13*
X264981Y349500D02*
X274981D01*
X264981Y309500D02*
Y349500D01*
Y309500D02*
X274981D01*
Y349500D01*
X273402Y400260D02*
Y403035D01*
Y369965D02*
Y372740D01*
X298598Y400260D02*
Y403035D01*
Y369965D02*
Y372740D01*
X273402Y403035D02*
X276039D01*
X295961D02*
X298598D01*
X273402Y369965D02*
X276039D01*
X295961D02*
X298598D01*
X313693Y400153D02*
X320583D01*
X313714Y406858D02*
X320604D01*
X312555Y307653D02*
X319445D01*
X312576Y314358D02*
X319466D01*
X294555Y419153D02*
X301445D01*
X294576Y425858D02*
X301466D01*
X324055Y314347D02*
X330945D01*
X324034Y307642D02*
X330924D01*
X294555Y410653D02*
X301445D01*
X294576Y417358D02*
X301466D01*
X337576Y412858D02*
X344466D01*
X337555Y406153D02*
X344445D01*
X349576Y421358D02*
X356466D01*
X349555Y414653D02*
X356445D01*
X337714Y421358D02*
X344604D01*
X337693Y414653D02*
X344583D01*
X326672Y414642D02*
X333562D01*
X326693Y421347D02*
X333583D01*
X326534Y406142D02*
X333424D01*
X326555Y412847D02*
X333445D01*
D14*
X313190Y443756D02*
Y446231D01*
Y431031D02*
X317616D01*
X313190D02*
Y439536D01*
X351164Y431031D02*
X355590D01*
Y443756D02*
Y446231D01*
X313190D02*
X355590D01*
Y431031D02*
Y439536D01*
D16*
X278894Y450681D02*
X279681D01*
X279287D01*
Y448713D01*
X279681Y448319D01*
X280074D01*
X280468Y448713D01*
X278106Y450287D02*
X277713Y450681D01*
X276926D01*
X276532Y450287D01*
Y449894D01*
X276926Y449500D01*
X277319D01*
X276926D01*
X276532Y449106D01*
Y448713D01*
X276926Y448319D01*
X277713D01*
X278106Y448713D01*
X309894Y447181D02*
X310681D01*
X310287D01*
Y445213D01*
X310681Y444819D01*
X311074D01*
X311468Y445213D01*
X307532Y444819D02*
X309106D01*
X307532Y446394D01*
Y446787D01*
X307926Y447181D01*
X308713D01*
X309106Y446787D01*
X292074Y360819D02*
Y363181D01*
X290894D01*
X290500Y362787D01*
Y362000D01*
X290894Y361606D01*
X292074D01*
X289713Y360819D02*
X288926D01*
X289319D01*
Y363181D01*
X289713Y362787D01*
X295319Y397968D02*
X297287D01*
X297681Y397574D01*
Y396787D01*
X297287Y396394D01*
X295319D01*
X297681Y394426D02*
X295319D01*
X296500Y395606D01*
Y394032D01*
X286468Y350319D02*
Y352681D01*
X285287D01*
X284894Y352287D01*
Y351500D01*
X285287Y351106D01*
X286468D01*
X285681D02*
X284894Y350319D01*
X282532Y352681D02*
X284106D01*
Y351500D01*
X283319Y351894D01*
X282926D01*
X282532Y351500D01*
Y350713D01*
X282926Y350319D01*
X283713D01*
X284106Y350713D01*
X296968Y350319D02*
Y352681D01*
X295787D01*
X295394Y352287D01*
Y351500D01*
X295787Y351106D01*
X296968D01*
X296181D02*
X295394Y350319D01*
X293032Y352681D02*
X293819Y352287D01*
X294606Y351500D01*
Y350713D01*
X294213Y350319D01*
X293426D01*
X293032Y350713D01*
Y351106D01*
X293426Y351500D01*
X294606D01*
X367000Y453800D02*
Y456161D01*
X365819D01*
X365426Y455768D01*
Y454981D01*
X365819Y454587D01*
X367000D01*
X366213D02*
X365426Y453800D01*
X364639Y455768D02*
X364245Y456161D01*
X363458D01*
X363064Y455768D01*
Y455374D01*
X363458Y454981D01*
X363064Y454587D01*
Y454194D01*
X363458Y453800D01*
X364245D01*
X364639Y454194D01*
Y454587D01*
X364245Y454981D01*
X364639Y455374D01*
Y455768D01*
X364245Y454981D02*
X363458D01*
X372181Y435952D02*
X369819D01*
Y434771D01*
X370213Y434377D01*
X371000D01*
X371394Y434771D01*
Y435952D01*
Y435165D02*
X372181Y434377D01*
Y433590D02*
Y432803D01*
Y433197D01*
X369819D01*
X370213Y433590D01*
Y431623D02*
X369819Y431229D01*
Y430442D01*
X370213Y430048D01*
X371787D01*
X372181Y430442D01*
Y431229D01*
X371787Y431623D01*
X370213D01*
X371681Y446468D02*
X369319D01*
Y445287D01*
X369713Y444894D01*
X370500D01*
X370894Y445287D01*
Y446468D01*
Y445681D02*
X371681Y444894D01*
X371287Y444106D02*
X371681Y443713D01*
Y442926D01*
X371287Y442532D01*
X369713D01*
X369319Y442926D01*
Y443713D01*
X369713Y444106D01*
X370106D01*
X370500Y443713D01*
Y442532D01*
X317574Y305287D02*
X317968Y305681D01*
X318755D01*
X319149Y305287D01*
Y303713D01*
X318755Y303319D01*
X317968D01*
X317574Y303713D01*
X316787Y305287D02*
X316394Y305681D01*
X315606D01*
X315213Y305287D01*
Y304894D01*
X315606Y304500D01*
X316000D01*
X315606D01*
X315213Y304106D01*
Y303713D01*
X315606Y303319D01*
X316394D01*
X316787Y303713D01*
X314426Y305287D02*
X314032Y305681D01*
X313245D01*
X312851Y305287D01*
Y304894D01*
X313245Y304500D01*
X313638D01*
X313245D01*
X312851Y304106D01*
Y303713D01*
X313245Y303319D01*
X314032D01*
X314426Y303713D01*
X292100Y419600D02*
Y421961D01*
X290919D01*
X290526Y421568D01*
Y420781D01*
X290919Y420387D01*
X292100D01*
X291313D02*
X290526Y419600D01*
X289739Y421961D02*
X288164D01*
Y421568D01*
X289739Y419994D01*
Y419600D01*
X299074Y429787D02*
X299468Y430181D01*
X300255D01*
X300649Y429787D01*
Y428213D01*
X300255Y427819D01*
X299468D01*
X299074Y428213D01*
X298287Y429787D02*
X297894Y430181D01*
X297106D01*
X296713Y429787D01*
Y429394D01*
X297106Y429000D01*
X297500D01*
X297106D01*
X296713Y428606D01*
Y428213D01*
X297106Y427819D01*
X297894D01*
X298287Y428213D01*
X295926Y430181D02*
X294351D01*
Y429787D01*
X295926Y428213D01*
Y427819D01*
X329574Y305287D02*
X329968Y305681D01*
X330755D01*
X331149Y305287D01*
Y303713D01*
X330755Y303319D01*
X329968D01*
X329574Y303713D01*
X328787Y305287D02*
X328394Y305681D01*
X327606D01*
X327213Y305287D01*
Y304894D01*
X327606Y304500D01*
X328000D01*
X327606D01*
X327213Y304106D01*
Y303713D01*
X327606Y303319D01*
X328394D01*
X328787Y303713D01*
X324851Y305681D02*
X326426D01*
Y304500D01*
X325639Y304894D01*
X325245D01*
X324851Y304500D01*
Y303713D01*
X325245Y303319D01*
X326032D01*
X326426Y303713D01*
X299574Y408287D02*
X299968Y408681D01*
X300755D01*
X301149Y408287D01*
Y406713D01*
X300755Y406319D01*
X299968D01*
X299574Y406713D01*
X298787Y408287D02*
X298394Y408681D01*
X297606D01*
X297213Y408287D01*
Y407894D01*
X297606Y407500D01*
X298000D01*
X297606D01*
X297213Y407106D01*
Y406713D01*
X297606Y406319D01*
X298394D01*
X298787Y406713D01*
X294851Y408681D02*
X295638Y408287D01*
X296426Y407500D01*
Y406713D01*
X296032Y406319D01*
X295245D01*
X294851Y406713D01*
Y407106D01*
X295245Y407500D01*
X296426D01*
X354877Y411787D02*
X355271Y412181D01*
X356058D01*
X356452Y411787D01*
Y410213D01*
X356058Y409819D01*
X355271D01*
X354877Y410213D01*
X354090Y409819D02*
X353303D01*
X353697D01*
Y412181D01*
X354090Y411787D01*
X350548Y409819D02*
X352122D01*
X350548Y411394D01*
Y411787D01*
X350942Y412181D01*
X351729D01*
X352122Y411787D01*
X308957Y418394D02*
X308563Y418787D01*
Y419574D01*
X308957Y419968D01*
X310531D01*
X310925Y419574D01*
Y418787D01*
X310531Y418394D01*
X308563Y417606D02*
Y416032D01*
X308957D01*
X310531Y417606D01*
X310925D01*
D65*
X243669Y483618D02*
X282646D01*
X243669Y452516D02*
Y483618D01*
Y452516D02*
X282646D01*
Y483618D01*
X283646Y478500D02*
X289646Y476000D01*
Y481000D01*
X283646Y478500D02*
X289646Y481000D01*
M02*
