G04*
G04 #@! TF.GenerationSoftware,Altium Limited,Altium Designer,23.10.1 (27)*
G04*
G04 Layer_Color=128*
%FSLAX25Y25*%
%MOIN*%
G70*
G04*
G04 #@! TF.SameCoordinates,1D9EF59F-A9A3-4DE6-AF9F-94A01C22AB5E*
G04*
G04*
G04 #@! TF.FilePolarity,Positive*
G04*
G01*
G75*
%ADD18R,0.03150X0.03740*%
%ADD28R,0.03740X0.03150*%
%ADD33R,0.02953X0.03543*%
%ADD59R,0.01400X0.03300*%
%ADD60R,0.12520X0.05000*%
%ADD62R,0.01772X0.03740*%
%ADD63R,0.04331X0.05315*%
%ADD64R,0.04842X0.03661*%
D18*
X278941Y357000D02*
D03*
X284059D02*
D03*
X289500D02*
D03*
X294618D02*
D03*
X290059Y414000D02*
D03*
X284941D02*
D03*
D28*
X365500Y443441D02*
D03*
Y448559D02*
D03*
Y426118D02*
D03*
Y421000D02*
D03*
Y432441D02*
D03*
Y437559D02*
D03*
D33*
X314776Y403500D02*
D03*
X319500D02*
D03*
X313638Y311000D02*
D03*
X318362D02*
D03*
X295638Y422500D02*
D03*
X300362D02*
D03*
X329862Y311000D02*
D03*
X325138D02*
D03*
X295638Y414000D02*
D03*
X300362D02*
D03*
X343362Y409500D02*
D03*
X338638D02*
D03*
X355362Y418000D02*
D03*
X350638D02*
D03*
X343500D02*
D03*
X338776D02*
D03*
X327776D02*
D03*
X332500D02*
D03*
X327638Y409500D02*
D03*
X332362D02*
D03*
D59*
X349153Y432000D02*
D03*
X347185D02*
D03*
X345216D02*
D03*
X343248D02*
D03*
X341280D02*
D03*
X339311D02*
D03*
X337343D02*
D03*
X335374D02*
D03*
X333405D02*
D03*
X331437D02*
D03*
X329468D02*
D03*
X327500D02*
D03*
X325532D02*
D03*
X323563D02*
D03*
X321595D02*
D03*
X319626D02*
D03*
D60*
X290769Y334500D02*
D03*
Y344500D02*
D03*
Y324500D02*
D03*
Y314500D02*
D03*
D62*
X278500Y401736D02*
D03*
X283500D02*
D03*
X288500D02*
D03*
X293500D02*
D03*
X278500Y371264D02*
D03*
X283500D02*
D03*
X288500D02*
D03*
X293500D02*
D03*
D63*
X320000Y418000D02*
D03*
X314488D02*
D03*
X320000Y410500D02*
D03*
X314488D02*
D03*
D64*
X280371Y390938D02*
D03*
X286001D02*
D03*
X291631D02*
D03*
X280371Y386489D02*
D03*
X286001D02*
D03*
X291631D02*
D03*
X280371Y382041D02*
D03*
X286001D02*
D03*
X291631D02*
D03*
M02*
