M48
;Layer_Color=9474304
;FILE_FORMAT=2:4
INCH,TZ
;TYPE=PLATED
T01F00S00C0.0079
T02F00S00C0.0118
T04F00S00C0.0268
T05F00S00C0.0310
T06F00S00C0.0315
T07F00S00C0.0335
%
T01
X32167Y32667
X32600
Y33100
Y33533
X32167
Y33100
X33033
Y33533
Y32667
X33185Y38076
X33618
Y38509
X33185
X32752
Y38076
X32318
X31885
Y38509
X32318
Y38942
X32752
X33185
X33618
Y39375
X33185
X32752
X32318
X31885
Y38942
Y39808
X32318
X32752
X33185
X33618
T02
X33500Y31100
X31150Y32800
X30400Y32850
X29600Y32950
X30400Y35150
X29950Y37400
X31150Y37800
X30650Y38350
X30900Y39050
Y39600
X30950Y40050
X30957Y40507
X30050Y40200
X30350Y42050
X30400Y44150
X29600Y44200
X29050Y45700
X27922Y42621
X27895Y42044
Y41247
X27850Y40850
X28350
X25900Y40950
X25585
X25750Y39650
X25450Y37400
Y36150
X27400Y35700
X31639Y36903
X32209Y36950
X32250Y36350
X32500Y34500
X31900Y34450
X31300Y33500
X31650Y31500
X31950Y31750
X32489
X32982Y31732
X33450Y31750
X34100Y34000
X33900Y35350
X36300Y35800
X36250Y34650
X37900Y34750
Y32650
X40200Y36050
X37400Y39000
X37450Y40200
X35750Y40650
X34350Y40576
X34700Y39400
Y37700
X33950Y42750
X33450Y42500
X32700
X32764Y42192
X32997Y42800
X32750Y44200
X32903Y46572
X32591Y46614
X32150Y46750
X36550Y41650
X39350Y43050
X39950Y44700
X38350Y48000
T04
X31700Y11600
X33150Y13150
T05
X25400Y41650
Y43650
T06
X25331Y47850
X26316
X27300
T07
X31702Y47316
X33671
M30
