G04*
G04 #@! TF.GenerationSoftware,Altium Limited,Altium Designer,23.10.1 (27)*
G04*
G04 Layer_Physical_Order=2*
G04 Layer_Color=16711680*
%FSLAX25Y25*%
%MOIN*%
G70*
G04*
G04 #@! TF.SameCoordinates,1D9EF59F-A9A3-4DE6-AF9F-94A01C22AB5E*
G04*
G04*
G04 #@! TF.FilePolarity,Positive*
G04*
G01*
G75*
%ADD16C,0.00591*%
%ADD17C,0.01968*%
%ADD18R,0.03150X0.03740*%
%ADD28R,0.03740X0.03150*%
%ADD33R,0.02953X0.03543*%
%ADD49C,0.05100*%
%ADD50C,0.05709*%
%ADD51C,0.02362*%
%ADD52C,0.01968*%
%ADD53C,0.04724*%
%ADD54C,0.01000*%
%ADD55C,0.03937*%
%ADD56C,0.04528*%
%ADD57R,0.04528X0.04528*%
%ADD58R,0.03300X0.01600*%
%ADD59R,0.01400X0.03300*%
%ADD60R,0.12520X0.05000*%
%ADD61R,0.16929X0.13386*%
%ADD62R,0.01772X0.03740*%
%ADD63R,0.04331X0.05315*%
G36*
X409500Y316000D02*
X336437D01*
X336216Y316500D01*
X336469Y317108D01*
Y317892D01*
X336169Y318615D01*
X335615Y319169D01*
X334892Y319468D01*
X334108D01*
X333385Y319169D01*
X332831Y318615D01*
X332531Y317892D01*
Y317388D01*
X331212Y316068D01*
X328598D01*
X328256Y316000D01*
X326825D01*
X326604Y316500D01*
X326856Y317108D01*
Y317892D01*
X326556Y318615D01*
X326003Y319169D01*
X325279Y319468D01*
X324794D01*
X314187Y330076D01*
Y333403D01*
X314669Y333885D01*
X314968Y334608D01*
Y335392D01*
X314669Y336115D01*
X314115Y336669D01*
X313392Y336968D01*
X312608D01*
X311885Y336669D01*
X311331Y336115D01*
X311150Y335677D01*
X310613Y335515D01*
X310344Y335721D01*
Y349488D01*
X322388Y361531D01*
X322892D01*
X323615Y361831D01*
X324169Y362385D01*
X324468Y363108D01*
Y363892D01*
X324169Y364615D01*
X323615Y365169D01*
X322892Y365469D01*
X322108D01*
X321385Y365169D01*
X320831Y364615D01*
X320532Y363892D01*
Y363388D01*
X308103Y350960D01*
X307819Y350534D01*
X307719Y350031D01*
Y334978D01*
X307819Y334475D01*
X308103Y334049D01*
X310187Y331965D01*
Y329471D01*
X309831Y329115D01*
X309531Y328392D01*
Y327608D01*
X309831Y326885D01*
X310385Y326331D01*
X311108Y326031D01*
X311892D01*
X312615Y326331D01*
X313169Y326885D01*
X313280Y327153D01*
X313870Y327271D01*
X323016Y318125D01*
X322919Y317892D01*
Y317108D01*
X323171Y316500D01*
X322950Y316000D01*
X317321D01*
X317002Y316213D01*
X316500Y316313D01*
X315998Y316213D01*
X315679Y316000D01*
X298538D01*
X298347Y316462D01*
X299928Y318043D01*
X300213Y318469D01*
X300313Y318971D01*
Y326571D01*
X300213Y327073D01*
X299928Y327499D01*
X297969Y329459D01*
Y329892D01*
X297669Y330615D01*
X297571Y330713D01*
X297778Y331213D01*
X297816D01*
Y336373D01*
X297841Y336500D01*
Y339414D01*
X302460Y344033D01*
X302744Y344458D01*
X302844Y344961D01*
Y355488D01*
X308445Y361088D01*
X309757D01*
X310260Y361189D01*
X310686Y361473D01*
X316276Y367063D01*
X316779D01*
X317503Y367363D01*
X318057Y367916D01*
X318356Y368640D01*
Y369423D01*
X318057Y370147D01*
X317503Y370700D01*
X317458Y370719D01*
X317558Y371219D01*
X320322D01*
X320530Y370719D01*
X320426Y370615D01*
X320126Y369892D01*
Y369108D01*
X320426Y368385D01*
X320979Y367831D01*
X321703Y367531D01*
X322207D01*
X325265Y364473D01*
X325691Y364189D01*
X326193Y364089D01*
X326555D01*
X330187Y360456D01*
Y349500D01*
X330287Y348998D01*
X330572Y348572D01*
X339032Y340112D01*
Y339608D01*
X339331Y338885D01*
X339885Y338331D01*
X340608Y338032D01*
X341392D01*
X342115Y338331D01*
X342669Y338885D01*
X342969Y339608D01*
Y340392D01*
X342669Y341115D01*
X342115Y341669D01*
X341392Y341968D01*
X340888D01*
X332813Y350044D01*
Y361000D01*
X332713Y361502D01*
X332428Y361928D01*
X328027Y366329D01*
X327601Y366614D01*
X327099Y366714D01*
X326737D01*
X324063Y369388D01*
Y369892D01*
X323763Y370615D01*
X323659Y370719D01*
X323867Y371219D01*
X331161D01*
X331664Y371319D01*
X332089Y371603D01*
X344428Y383942D01*
X344713Y384368D01*
X344813Y384870D01*
Y392830D01*
X345313Y392930D01*
X345331Y392885D01*
X345687Y392529D01*
Y378471D01*
X345331Y378115D01*
X345031Y377392D01*
Y376608D01*
X345331Y375885D01*
X345885Y375331D01*
X346608Y375031D01*
X347392D01*
X348115Y375331D01*
X348669Y375885D01*
X348969Y376608D01*
Y377392D01*
X348669Y378115D01*
X348313Y378471D01*
Y392529D01*
X348669Y392885D01*
X348969Y393608D01*
Y394392D01*
X348669Y395115D01*
X348115Y395669D01*
X347392Y395969D01*
X346608D01*
X345885Y395669D01*
X345331Y395115D01*
X345313Y395070D01*
X344813Y395170D01*
Y404289D01*
X345169Y404645D01*
X345468Y405368D01*
Y406151D01*
X345169Y406875D01*
X344615Y407429D01*
X343892Y407728D01*
X343108D01*
X342385Y407429D01*
X341831Y406875D01*
X341531Y406151D01*
Y405368D01*
X341831Y404645D01*
X342187Y404289D01*
Y385414D01*
X330618Y373844D01*
X301512D01*
X301468Y373888D01*
Y374392D01*
X301169Y375115D01*
X300615Y375669D01*
X299892Y375969D01*
X299784D01*
X299577Y376468D01*
X302241Y379133D01*
X302525Y379558D01*
X302625Y380061D01*
Y381989D01*
X309168Y388531D01*
X309392D01*
X309687Y388654D01*
X310187Y388320D01*
Y379471D01*
X309831Y379115D01*
X309531Y378392D01*
Y377608D01*
X309831Y376885D01*
X310385Y376331D01*
X311108Y376031D01*
X311892D01*
X312615Y376331D01*
X313169Y376885D01*
X313469Y377608D01*
Y378392D01*
X313169Y379115D01*
X312813Y379471D01*
Y398500D01*
X312804Y398542D01*
X313215Y399042D01*
X320712D01*
X320713Y399042D01*
X326854D01*
X327357Y399142D01*
X327783Y399426D01*
X333290Y404934D01*
X333575Y405360D01*
X333675Y405862D01*
Y406941D01*
X334626D01*
Y408187D01*
X336374D01*
Y406941D01*
X340902D01*
Y412059D01*
X336374D01*
Y410813D01*
X334626D01*
Y412059D01*
X333744D01*
Y415441D01*
X334764D01*
Y418703D01*
X336050Y419989D01*
X336512Y419798D01*
Y415441D01*
X341039D01*
Y415441D01*
X341236D01*
Y415441D01*
X345764D01*
Y420559D01*
X344813D01*
Y423696D01*
X346145Y425028D01*
X346275Y425223D01*
X346876Y425329D01*
X349325Y422880D01*
Y420559D01*
X348374D01*
Y415441D01*
X352902D01*
Y415441D01*
X353098D01*
Y415441D01*
X357626D01*
Y420559D01*
X356675D01*
Y421956D01*
X356575Y422459D01*
X356290Y422885D01*
X350466Y428709D01*
Y429563D01*
X350641D01*
Y433428D01*
X356039D01*
X362842Y426624D01*
Y423862D01*
X362842Y423756D01*
Y423362D01*
X362842Y423256D01*
Y418638D01*
X364187D01*
Y417971D01*
X363831Y417615D01*
X363531Y416892D01*
Y416108D01*
X363831Y415385D01*
X364385Y414831D01*
X365108Y414532D01*
X365892D01*
X366615Y414831D01*
X367169Y415385D01*
X367469Y416108D01*
Y416892D01*
X367169Y417615D01*
X366813Y417971D01*
Y418638D01*
X368158D01*
Y423256D01*
X368158Y423362D01*
Y423756D01*
X368158Y423862D01*
Y428480D01*
X364699D01*
X363562Y429617D01*
X363754Y430079D01*
X368158D01*
Y434803D01*
X364699D01*
X362046Y437456D01*
X361620Y437741D01*
X361118Y437841D01*
X344275D01*
X342872Y439244D01*
X342446Y439528D01*
X341944Y439628D01*
X336679D01*
X336176Y439528D01*
X335750Y439244D01*
X332585Y436078D01*
X332300Y435652D01*
X332201Y435150D01*
Y434437D01*
X328555D01*
X328363Y434899D01*
X335688Y442224D01*
X351539D01*
Y440058D01*
X356414D01*
Y442224D01*
X362842D01*
Y441079D01*
X368158D01*
Y445803D01*
X362842D01*
Y444849D01*
X335144D01*
X334642Y444749D01*
X334216Y444464D01*
X324781Y435030D01*
X324497Y434604D01*
X324464Y434437D01*
X320107D01*
Y429563D01*
X320282D01*
Y428685D01*
X320028Y428431D01*
X319744Y428006D01*
X319644Y427503D01*
Y426296D01*
X319072Y425724D01*
X318787Y425298D01*
X318687Y424795D01*
Y421445D01*
X317047D01*
Y414555D01*
X320572D01*
X320839Y414055D01*
X320765Y413945D01*
X317047D01*
Y407055D01*
X322953D01*
Y412089D01*
X324491Y413627D01*
X324776Y414053D01*
X324876Y414555D01*
Y421124D01*
X325338Y421315D01*
X325404Y421249D01*
X325830Y420964D01*
X325912Y420948D01*
X325973Y420801D01*
X326527Y420248D01*
X327250Y419948D01*
X328033D01*
X328757Y420248D01*
X329311Y420801D01*
X329610Y421525D01*
Y422308D01*
X329311Y423032D01*
X329155Y423187D01*
X329362Y423687D01*
X329991D01*
X330493Y423787D01*
X330919Y424072D01*
X331085Y424238D01*
X331493Y424319D01*
X331919Y424603D01*
X332070Y424754D01*
X332561Y424538D01*
X332831Y423885D01*
X333385Y423331D01*
X334108Y423032D01*
X334673D01*
X334880Y422532D01*
X332908Y420559D01*
X330236D01*
Y415441D01*
X331118D01*
Y412059D01*
X330098D01*
Y406941D01*
X331050D01*
Y406406D01*
X326311Y401667D01*
X320713D01*
X320713Y401667D01*
X317039D01*
Y406059D01*
X312512D01*
Y403092D01*
X311492Y402073D01*
X310711D01*
X310615Y402169D01*
X309892Y402468D01*
X309108D01*
X308385Y402169D01*
X307831Y401615D01*
X307531Y400892D01*
Y400108D01*
X307831Y399385D01*
X308385Y398831D01*
X309108Y398532D01*
X309333D01*
X309367Y398468D01*
X309067Y397969D01*
X308608D01*
X307885Y397669D01*
X307331Y397115D01*
X307031Y396392D01*
Y395888D01*
X305603Y394460D01*
X305319Y394034D01*
X305219Y393531D01*
Y390823D01*
X295714Y381318D01*
X295252Y381510D01*
Y393980D01*
X276748D01*
Y379020D01*
X292762D01*
X292953Y378558D01*
X288317Y373921D01*
X286827D01*
Y368606D01*
X290173D01*
Y372065D01*
X291365Y373257D01*
X291827Y373065D01*
Y368606D01*
X293305D01*
Y359658D01*
X292362D01*
X292256Y359658D01*
X291862D01*
X291756Y359658D01*
X287138D01*
Y356343D01*
X286921Y356175D01*
X286421Y356420D01*
Y359658D01*
X284813D01*
Y368606D01*
X285173D01*
Y373921D01*
X281827D01*
Y368606D01*
X282187D01*
Y359680D01*
X281697Y359658D01*
X281303D01*
Y359658D01*
X281197Y359658D01*
X276579D01*
Y358313D01*
X275471D01*
X275115Y358669D01*
X274392Y358968D01*
X273608D01*
X272885Y358669D01*
X272331Y358115D01*
X272031Y357392D01*
Y356608D01*
X272331Y355885D01*
X272885Y355331D01*
X273608Y355031D01*
X274392D01*
X275115Y355331D01*
X275471Y355687D01*
X276579D01*
Y354343D01*
X279447D01*
X280678Y353111D01*
X281104Y352827D01*
X281606Y352727D01*
X286835D01*
X287337Y352827D01*
X287763Y353111D01*
X288956Y354305D01*
X289456Y354251D01*
Y347787D01*
X283721D01*
Y341213D01*
X295258D01*
X295485Y340713D01*
X295316Y340460D01*
X295216Y339958D01*
Y337787D01*
X283721D01*
Y331213D01*
X294222D01*
X294429Y330713D01*
X294331Y330615D01*
X294032Y329892D01*
Y329108D01*
X294331Y328385D01*
X294885Y327831D01*
X295608Y327532D01*
X296183D01*
X297687Y326027D01*
Y319515D01*
X295960Y317787D01*
X283721D01*
Y316000D01*
X241500D01*
Y493500D01*
X409500D01*
Y316000D01*
D02*
G37*
G36*
X297532Y373716D02*
Y373608D01*
X297831Y372885D01*
X298385Y372331D01*
X299108Y372031D01*
X299612D01*
X300040Y371603D01*
X300466Y371319D01*
X300969Y371219D01*
X315218D01*
X315318Y370719D01*
X315273Y370700D01*
X314719Y370147D01*
X314419Y369423D01*
Y368919D01*
X309214Y363714D01*
X307901D01*
X307399Y363614D01*
X306973Y363329D01*
X300603Y356960D01*
X300319Y356534D01*
X300219Y356031D01*
Y345504D01*
X298278Y343563D01*
X297816Y343755D01*
Y347787D01*
X292081D01*
Y353915D01*
X292256Y354343D01*
X292581Y354343D01*
X296980D01*
Y359658D01*
X295931D01*
Y369161D01*
X295831Y369664D01*
X295546Y370090D01*
X295173Y370463D01*
Y372065D01*
X297031Y373923D01*
X297532Y373716D01*
D02*
G37*
%LPC*%
G36*
X340646Y487172D02*
X339878Y487020D01*
X339226Y486585D01*
X338791Y485933D01*
X338639Y485165D01*
Y482409D01*
X338791Y481641D01*
X339226Y480990D01*
X339878Y480555D01*
X340646Y480402D01*
X341414Y480555D01*
X342065Y480990D01*
X342500Y481641D01*
X342653Y482409D01*
Y485165D01*
X342500Y485933D01*
X342065Y486585D01*
X341414Y487020D01*
X340646Y487172D01*
D02*
G37*
G36*
X313087D02*
X312318Y487020D01*
X311667Y486585D01*
X311232Y485933D01*
X311080Y485165D01*
Y482409D01*
X311232Y481641D01*
X311667Y480990D01*
X312318Y480555D01*
X313087Y480402D01*
X313855Y480555D01*
X314506Y480990D01*
X314941Y481641D01*
X315094Y482409D01*
Y485165D01*
X314941Y485933D01*
X314506Y486585D01*
X313855Y487020D01*
X313087Y487172D01*
D02*
G37*
G36*
X276051Y481551D02*
X269949D01*
Y475449D01*
X276051D01*
Y481551D01*
D02*
G37*
G36*
X263559D02*
X262756D01*
X261980Y481343D01*
X261284Y480942D01*
X260716Y480373D01*
X260314Y479678D01*
X260106Y478902D01*
Y478098D01*
X260314Y477322D01*
X260716Y476626D01*
X261284Y476058D01*
X261980Y475657D01*
X262756Y475449D01*
X263559D01*
X264335Y475657D01*
X265031Y476058D01*
X265599Y476626D01*
X266001Y477322D01*
X266209Y478098D01*
Y478902D01*
X266001Y479678D01*
X265599Y480373D01*
X265031Y480942D01*
X264335Y481343D01*
X263559Y481551D01*
D02*
G37*
G36*
X337188Y476799D02*
X336229D01*
X335303Y476551D01*
X334473Y476072D01*
X333794Y475393D01*
X333315Y474563D01*
X333067Y473637D01*
Y472678D01*
X333315Y471752D01*
X333794Y470921D01*
X334473Y470243D01*
X335303Y469764D01*
X336229Y469516D01*
X337188D01*
X338114Y469764D01*
X338945Y470243D01*
X339623Y470921D01*
X340102Y471752D01*
X340350Y472678D01*
Y473637D01*
X340102Y474563D01*
X339623Y475393D01*
X338945Y476072D01*
X338114Y476551D01*
X337188Y476799D01*
D02*
G37*
G36*
X317503D02*
X316544D01*
X315618Y476551D01*
X314788Y476072D01*
X314109Y475393D01*
X313630Y474563D01*
X313382Y473637D01*
Y472678D01*
X313630Y471752D01*
X314109Y470921D01*
X314788Y470243D01*
X315618Y469764D01*
X316544Y469516D01*
X317503D01*
X318429Y469764D01*
X319260Y470243D01*
X319938Y470921D01*
X320417Y471752D01*
X320665Y472678D01*
Y473637D01*
X320417Y474563D01*
X319938Y475393D01*
X319260Y476072D01*
X318429Y476551D01*
X317503Y476799D01*
D02*
G37*
G36*
X326301Y468105D02*
X325517D01*
X324794Y467805D01*
X324240Y467252D01*
X323940Y466528D01*
Y466118D01*
X323423Y465600D01*
X321383D01*
X321374Y465606D01*
X320871Y465706D01*
X309520D01*
X309510Y465713D01*
X309008Y465813D01*
X307351D01*
X306849Y465713D01*
X306423Y465428D01*
X304870Y463876D01*
X304612Y463490D01*
X301822Y460700D01*
X301538Y460274D01*
X301438Y459771D01*
Y457981D01*
X282482Y439025D01*
X266957D01*
X266455Y438926D01*
X266029Y438641D01*
X247234Y419846D01*
X246950Y419420D01*
X246850Y418918D01*
Y414082D01*
X246950Y413580D01*
X247234Y413154D01*
X250654Y409734D01*
X251080Y409450D01*
X251582Y409350D01*
X253882D01*
Y409108D01*
X254182Y408385D01*
X254735Y407831D01*
X255459Y407531D01*
X256242D01*
X256965Y407831D01*
X257425Y408291D01*
X257885Y407831D01*
X258608Y407531D01*
X259392D01*
X260115Y407831D01*
X260669Y408385D01*
X260968Y409108D01*
Y409892D01*
X260669Y410615D01*
X260115Y411169D01*
X259392Y411469D01*
X259229D01*
X257107Y413591D01*
X256754Y413827D01*
X256585Y414365D01*
X256671Y414451D01*
X257110Y415212D01*
X257337Y416061D01*
Y416939D01*
X257265Y417210D01*
X269201Y429146D01*
X293453D01*
X294144Y429284D01*
X294730Y429675D01*
X304724Y439669D01*
X305115Y439831D01*
X305669Y440385D01*
X305968Y441108D01*
Y441892D01*
X305669Y442615D01*
X305115Y443169D01*
X304392Y443469D01*
X303608D01*
X302885Y443169D01*
X302331Y442615D01*
X302169Y442224D01*
X292705Y432759D01*
X268453D01*
X267761Y432622D01*
X267176Y432230D01*
X254913Y419968D01*
X254645Y420009D01*
X254470Y420541D01*
X268330Y434400D01*
X283854D01*
X284356Y434500D01*
X284782Y434785D01*
X305679Y455681D01*
X305963Y456107D01*
X306063Y456609D01*
Y458399D01*
X307235Y459572D01*
X307697Y459380D01*
Y455500D01*
X307758Y455193D01*
X307932Y454932D01*
X308193Y454758D01*
X308500Y454697D01*
X353500D01*
X353807Y454758D01*
X354068Y454932D01*
X354242Y455193D01*
X354303Y455500D01*
Y461000D01*
X354242Y461307D01*
X354068Y461568D01*
X353807Y461742D01*
X353500Y461803D01*
X327620D01*
X327428Y462265D01*
X328919Y463756D01*
X329423D01*
X330147Y464056D01*
X330700Y464609D01*
X331000Y465333D01*
Y466116D01*
X330700Y466840D01*
X330147Y467393D01*
X329423Y467693D01*
X328640D01*
X327916Y467393D01*
X327422Y467408D01*
X327024Y467805D01*
X326301Y468105D01*
D02*
G37*
G36*
X397571Y478879D02*
X396276D01*
X396198Y478864D01*
X396119D01*
X394849Y478611D01*
X394776Y478581D01*
X394698Y478565D01*
X393501Y478070D01*
X393435Y478026D01*
X393362Y477995D01*
X392285Y477276D01*
X392229Y477220D01*
X392164Y477176D01*
X391248Y476260D01*
X391204Y476194D01*
X391148Y476138D01*
X390428Y475061D01*
X390398Y474988D01*
X390354Y474922D01*
X389858Y473726D01*
X389843Y473648D01*
X389812Y473575D01*
X389560Y472304D01*
Y472225D01*
X389544Y472148D01*
Y470852D01*
X389560Y470775D01*
Y470696D01*
X389812Y469425D01*
X389843Y469352D01*
X389858Y469275D01*
X390354Y468078D01*
X390398Y468012D01*
X390428Y467939D01*
X391148Y466862D01*
X391204Y466806D01*
X391248Y466740D01*
X392164Y465824D01*
X392229Y465780D01*
X392285Y465724D01*
X393362Y465004D01*
X393435Y464974D01*
X393501Y464930D01*
X394698Y464434D01*
X394776Y464419D01*
X394849Y464389D01*
X396119Y464136D01*
X396198D01*
X396276Y464121D01*
X397571D01*
X397649Y464136D01*
X397728D01*
X398998Y464389D01*
X399072Y464419D01*
X399149Y464434D01*
X400346Y464930D01*
X400412Y464974D01*
X400485Y465004D01*
X401562Y465724D01*
X401618Y465780D01*
X401684Y465824D01*
X402599Y466740D01*
X402643Y466806D01*
X402699Y466862D01*
X403419Y467939D01*
X403449Y468012D01*
X403493Y468078D01*
X403989Y469275D01*
X404004Y469352D01*
X404035Y469425D01*
X404287Y470696D01*
Y470775D01*
X404303Y470852D01*
Y472148D01*
X404287Y472225D01*
Y472304D01*
X404035Y473575D01*
X404004Y473648D01*
X403989Y473726D01*
X403493Y474922D01*
X403449Y474988D01*
X403419Y475061D01*
X402699Y476138D01*
X402643Y476194D01*
X402599Y476260D01*
X401684Y477176D01*
X401618Y477220D01*
X401562Y477276D01*
X400485Y477995D01*
X400412Y478026D01*
X400346Y478070D01*
X399149Y478565D01*
X399072Y478581D01*
X398998Y478611D01*
X397728Y478864D01*
X397649D01*
X397571Y478879D01*
D02*
G37*
G36*
X297820Y478764D02*
X296524D01*
X296447Y478749D01*
X296368D01*
X295097Y478496D01*
X295024Y478466D01*
X294947Y478450D01*
X293750Y477955D01*
X293684Y477911D01*
X293611Y477880D01*
X292534Y477161D01*
X292478Y477105D01*
X292412Y477061D01*
X291496Y476145D01*
X291452Y476079D01*
X291396Y476023D01*
X290676Y474946D01*
X290646Y474873D01*
X290602Y474807D01*
X290107Y473610D01*
X290091Y473533D01*
X290061Y473460D01*
X289808Y472189D01*
Y472110D01*
X289793Y472033D01*
Y470737D01*
X289808Y470660D01*
Y470580D01*
X290061Y469310D01*
X290091Y469237D01*
X290107Y469159D01*
X290602Y467963D01*
X290646Y467897D01*
X290676Y467824D01*
X291396Y466747D01*
X291452Y466691D01*
X291496Y466625D01*
X292412Y465709D01*
X292478Y465665D01*
X292534Y465609D01*
X293611Y464889D01*
X293684Y464859D01*
X293750Y464815D01*
X294947Y464319D01*
X295024Y464304D01*
X295097Y464274D01*
X296368Y464021D01*
X296447D01*
X296524Y464006D01*
X297820D01*
X297897Y464021D01*
X297976D01*
X299247Y464274D01*
X299320Y464304D01*
X299397Y464319D01*
X300594Y464815D01*
X300660Y464859D01*
X300733Y464889D01*
X301810Y465609D01*
X301866Y465665D01*
X301932Y465709D01*
X302848Y466625D01*
X302892Y466691D01*
X302948Y466747D01*
X303667Y467824D01*
X303698Y467897D01*
X303742Y467963D01*
X304238Y469159D01*
X304253Y469237D01*
X304283Y469310D01*
X304536Y470580D01*
Y470660D01*
X304551Y470737D01*
Y472033D01*
X304536Y472110D01*
Y472189D01*
X304283Y473460D01*
X304253Y473533D01*
X304238Y473610D01*
X303742Y474807D01*
X303698Y474873D01*
X303667Y474946D01*
X302948Y476023D01*
X302892Y476079D01*
X302848Y476145D01*
X301932Y477061D01*
X301866Y477105D01*
X301810Y477161D01*
X300733Y477880D01*
X300660Y477911D01*
X300594Y477955D01*
X299397Y478450D01*
X299320Y478466D01*
X299247Y478496D01*
X297976Y478749D01*
X297897D01*
X297820Y478764D01*
D02*
G37*
G36*
X317241Y443233D02*
X312366D01*
Y440058D01*
X317241D01*
Y443233D01*
D02*
G37*
G36*
X254439Y439837D02*
X253561D01*
X252712Y439610D01*
X251951Y439171D01*
X251329Y438549D01*
X250890Y437788D01*
X250663Y436939D01*
Y436061D01*
X250890Y435212D01*
X251329Y434451D01*
X251951Y433829D01*
X252712Y433390D01*
X253561Y433163D01*
X254439D01*
X255288Y433390D01*
X256049Y433829D01*
X256671Y434451D01*
X257110Y435212D01*
X257337Y436061D01*
Y436939D01*
X257110Y437788D01*
X256671Y438549D01*
X256049Y439171D01*
X255288Y439610D01*
X254439Y439837D01*
D02*
G37*
G36*
X297902Y425059D02*
X293374D01*
Y419941D01*
X294325D01*
Y416559D01*
X293374D01*
Y415313D01*
X292421D01*
Y416657D01*
X287697D01*
X287697Y416657D01*
X287303D01*
Y416657D01*
X287197Y416657D01*
X282579D01*
Y411342D01*
X285447D01*
X287187Y409602D01*
Y404394D01*
X286827D01*
Y399079D01*
X290173D01*
Y404394D01*
X289813D01*
Y410146D01*
X289713Y410648D01*
X289583Y410843D01*
X289850Y411342D01*
X292187D01*
Y404394D01*
X291827D01*
Y399079D01*
X295173D01*
Y400687D01*
X299029D01*
X299385Y400331D01*
X300108Y400032D01*
X300892D01*
X301615Y400331D01*
X302169Y400885D01*
X302468Y401608D01*
Y402392D01*
X302169Y403115D01*
X301615Y403669D01*
X300892Y403968D01*
X300108D01*
X299385Y403669D01*
X299029Y403313D01*
X295173D01*
Y404394D01*
X294813D01*
Y411023D01*
X295230Y411441D01*
X297902D01*
Y416559D01*
X296950D01*
Y419941D01*
X297902D01*
Y425059D01*
D02*
G37*
G36*
X320476Y406084D02*
X319974Y405984D01*
X319548Y405700D01*
X318572Y404723D01*
X318287Y404298D01*
X318187Y403795D01*
Y403500D01*
X318287Y402998D01*
X318572Y402572D01*
X318998Y402287D01*
X319500Y402187D01*
X320002Y402287D01*
X320428Y402572D01*
X320713Y402998D01*
X320751Y403190D01*
X321405Y403843D01*
X321689Y404269D01*
X321789Y404772D01*
X321689Y405274D01*
X321405Y405700D01*
X320979Y405984D01*
X320476Y406084D01*
D02*
G37*
G36*
X283892Y410468D02*
X283108D01*
X282385Y410169D01*
X281831Y409615D01*
X281532Y408892D01*
Y408108D01*
X281831Y407385D01*
X282187Y407029D01*
Y404394D01*
X281827D01*
Y399079D01*
X285173D01*
Y404394D01*
X284813D01*
Y407029D01*
X285169Y407385D01*
X285469Y408108D01*
Y408892D01*
X285169Y409615D01*
X284615Y410169D01*
X283892Y410468D01*
D02*
G37*
G36*
X278892D02*
X278108D01*
X277385Y410169D01*
X276831Y409615D01*
X276532Y408892D01*
Y408108D01*
X276831Y407385D01*
X277187Y407029D01*
Y404394D01*
X276827D01*
Y399079D01*
X280173D01*
Y404394D01*
X279813D01*
Y407029D01*
X280169Y407385D01*
X280469Y408108D01*
Y408892D01*
X280169Y409615D01*
X279615Y410169D01*
X278892Y410468D01*
D02*
G37*
G36*
X330683Y337102D02*
X329978D01*
X329327Y336833D01*
X328829Y336334D01*
X328559Y335683D01*
Y334978D01*
X328829Y334327D01*
X329327Y333829D01*
X329978Y333559D01*
X330683D01*
X331334Y333829D01*
X331833Y334327D01*
X332102Y334978D01*
Y335683D01*
X331833Y336334D01*
X331334Y336833D01*
X330683Y337102D01*
D02*
G37*
G36*
X326352D02*
X325648D01*
X324996Y336833D01*
X324498Y336334D01*
X324228Y335683D01*
Y334978D01*
X324498Y334327D01*
X324996Y333829D01*
X325648Y333559D01*
X326352D01*
X327004Y333829D01*
X327502Y334327D01*
X327772Y334978D01*
Y335683D01*
X327502Y336334D01*
X327004Y336833D01*
X326352Y337102D01*
D02*
G37*
G36*
X322022D02*
X321317D01*
X320666Y336833D01*
X320167Y336334D01*
X319898Y335683D01*
Y334978D01*
X320167Y334327D01*
X320666Y333829D01*
X321317Y333559D01*
X322022D01*
X322673Y333829D01*
X323171Y334327D01*
X323441Y334978D01*
Y335683D01*
X323171Y336334D01*
X322673Y336833D01*
X322022Y337102D01*
D02*
G37*
G36*
X330683Y332772D02*
X329978D01*
X329327Y332502D01*
X328829Y332004D01*
X328559Y331352D01*
Y330648D01*
X328829Y329996D01*
X329327Y329498D01*
X329978Y329228D01*
X330683D01*
X331334Y329498D01*
X331833Y329996D01*
X332102Y330648D01*
Y331352D01*
X331833Y332004D01*
X331334Y332502D01*
X330683Y332772D01*
D02*
G37*
G36*
X326352D02*
X325648D01*
X324996Y332502D01*
X324498Y332004D01*
X324228Y331352D01*
Y330648D01*
X324498Y329996D01*
X324996Y329498D01*
X325648Y329228D01*
X326352D01*
X327004Y329498D01*
X327502Y329996D01*
X327772Y330648D01*
Y331352D01*
X327502Y332004D01*
X327004Y332502D01*
X326352Y332772D01*
D02*
G37*
G36*
X322022D02*
X321317D01*
X320666Y332502D01*
X320167Y332004D01*
X319898Y331352D01*
Y330648D01*
X320167Y329996D01*
X320666Y329498D01*
X321317Y329228D01*
X322022D01*
X322673Y329498D01*
X323171Y329996D01*
X323441Y330648D01*
Y331352D01*
X323171Y332004D01*
X322673Y332502D01*
X322022Y332772D01*
D02*
G37*
G36*
X330683Y328441D02*
X329978D01*
X329327Y328171D01*
X328829Y327673D01*
X328559Y327022D01*
Y326317D01*
X328829Y325666D01*
X329327Y325167D01*
X329978Y324898D01*
X330683D01*
X331334Y325167D01*
X331833Y325666D01*
X332102Y326317D01*
Y327022D01*
X331833Y327673D01*
X331334Y328171D01*
X330683Y328441D01*
D02*
G37*
G36*
X326352D02*
X325648D01*
X324996Y328171D01*
X324498Y327673D01*
X324228Y327022D01*
Y326317D01*
X324498Y325666D01*
X324996Y325167D01*
X325648Y324898D01*
X326352D01*
X327004Y325167D01*
X327502Y325666D01*
X327772Y326317D01*
Y327022D01*
X327502Y327673D01*
X327004Y328171D01*
X326352Y328441D01*
D02*
G37*
G36*
X322022D02*
X321317D01*
X320666Y328171D01*
X320167Y327673D01*
X319898Y327022D01*
Y326317D01*
X320167Y325666D01*
X320666Y325167D01*
X321317Y324898D01*
X322022D01*
X322673Y325167D01*
X323171Y325666D01*
X323441Y326317D01*
Y327022D01*
X323171Y327673D01*
X322673Y328171D01*
X322022Y328441D01*
D02*
G37*
%LPD*%
D16*
X313000Y335000D02*
X313083Y334917D01*
Y329619D02*
Y334917D01*
Y329619D02*
X324888Y317814D01*
Y317500D02*
Y317814D01*
X318362Y311000D02*
X325138D01*
X324888Y311250D02*
Y317500D01*
D17*
X293453Y430953D02*
X304000Y441500D01*
X268453Y430953D02*
X293453D01*
X254000Y416500D02*
X268453Y430953D01*
D18*
X278941Y357000D02*
D03*
X284059D02*
D03*
X289500D02*
D03*
X294618D02*
D03*
X290059Y414000D02*
D03*
X284941D02*
D03*
D28*
X365500Y443441D02*
D03*
Y448559D02*
D03*
Y426118D02*
D03*
Y421000D02*
D03*
Y432441D02*
D03*
Y437559D02*
D03*
D33*
X314776Y403500D02*
D03*
X319500D02*
D03*
X313638Y311000D02*
D03*
X318362D02*
D03*
X295638Y422500D02*
D03*
X300362D02*
D03*
X329862Y311000D02*
D03*
X325138D02*
D03*
X295638Y414000D02*
D03*
X300362D02*
D03*
X343362Y409500D02*
D03*
X338638D02*
D03*
X355362Y418000D02*
D03*
X350638D02*
D03*
X343500D02*
D03*
X338776D02*
D03*
X327776D02*
D03*
X332500D02*
D03*
X327638Y409500D02*
D03*
X332362D02*
D03*
D49*
X254000Y416500D02*
D03*
Y436500D02*
D03*
D50*
X336709Y473158D02*
D03*
X317024D02*
D03*
D51*
X255850Y409500D02*
D03*
X257500Y396500D02*
D03*
X254500Y361500D02*
D03*
Y374000D02*
D03*
X306500Y383500D02*
D03*
X316388Y369032D02*
D03*
X322500Y363500D02*
D03*
X322094Y369500D02*
D03*
X311500Y378000D02*
D03*
X402000Y360500D02*
D03*
X362500Y346500D02*
D03*
X363000Y358000D02*
D03*
X379000Y347500D02*
D03*
X309000Y390500D02*
D03*
Y396000D02*
D03*
X278953Y420441D02*
D03*
X283500Y408500D02*
D03*
X259000Y409500D02*
D03*
X296000Y442000D02*
D03*
X290500Y457000D02*
D03*
X278953Y412470D02*
D03*
X278500Y408500D02*
D03*
X279223Y426213D02*
D03*
X299500Y374000D02*
D03*
X343500Y405760D02*
D03*
X339500Y427500D02*
D03*
X383500Y480000D02*
D03*
X399500Y447000D02*
D03*
X393500Y430500D02*
D03*
X357500Y406500D02*
D03*
X365500Y416500D02*
D03*
X374500Y402000D02*
D03*
X374000Y390000D02*
D03*
X347000Y394000D02*
D03*
Y377000D02*
D03*
X379000Y326500D02*
D03*
X335000Y311000D02*
D03*
X334500Y317500D02*
D03*
X319500D02*
D03*
X316500Y315000D02*
D03*
X304000Y328500D02*
D03*
X274000Y357000D02*
D03*
X304000Y351500D02*
D03*
X313000Y335000D02*
D03*
X296000Y329500D02*
D03*
X325000Y345000D02*
D03*
X319000Y344500D02*
D03*
X339000Y353500D02*
D03*
X341000Y340000D02*
D03*
X311500Y328000D02*
D03*
X327642Y421916D02*
D03*
X309500Y400500D02*
D03*
X303500Y420500D02*
D03*
X304000Y441500D02*
D03*
X300500Y402000D02*
D03*
X327000Y425000D02*
D03*
X329969Y428000D02*
D03*
X309569Y405069D02*
D03*
X329031Y465724D02*
D03*
X324888Y317500D02*
D03*
X325909Y466137D02*
D03*
X321500Y467500D02*
D03*
X329825Y317319D02*
D03*
X334500Y425000D02*
D03*
X327500Y442000D02*
D03*
D52*
X336177Y380760D02*
D03*
X331846D02*
D03*
X327516D02*
D03*
X323185D02*
D03*
X318854D02*
D03*
X336177Y385090D02*
D03*
X331846D02*
D03*
X327516D02*
D03*
X323185D02*
D03*
X318854D02*
D03*
X336177Y389421D02*
D03*
X331846D02*
D03*
X327516D02*
D03*
X323185D02*
D03*
X318854D02*
D03*
X336177Y393752D02*
D03*
X331846D02*
D03*
X327516D02*
D03*
X323185D02*
D03*
X318854D02*
D03*
X336177Y398083D02*
D03*
X331846D02*
D03*
X327516D02*
D03*
X323185D02*
D03*
X318854D02*
D03*
X321669Y335331D02*
D03*
X326000D02*
D03*
X330331D02*
D03*
X321669Y331000D02*
D03*
X326000D02*
D03*
X330331D02*
D03*
X321669Y326669D02*
D03*
X326000D02*
D03*
X330331D02*
D03*
D53*
X317000Y116000D02*
D03*
X331500Y131500D02*
D03*
D54*
X365205Y426118D02*
X365500D01*
X356582Y434740D02*
X365205Y426118D01*
Y432441D02*
X365500D01*
X361118Y436528D02*
X365205Y432441D01*
X365405Y443536D02*
X365500Y443441D01*
Y416500D02*
Y421000D01*
X283026Y437713D02*
X302750Y457438D01*
X283854Y435713D02*
X304750Y456609D01*
X295638Y414000D02*
Y422500D01*
X267786Y435713D02*
X283854D01*
X266957Y437713D02*
X283026D01*
X335374Y432000D02*
X335552Y432178D01*
X337343Y432000D02*
X337521Y432178D01*
X341102D02*
X341280Y432000D01*
X323385Y431822D02*
X323563Y432000D01*
X323385Y431822D02*
X323563Y431644D01*
X355362Y418000D02*
Y421956D01*
X350638Y418000D02*
Y423423D01*
X349153Y428165D02*
X355362Y421956D01*
X349153Y428165D02*
Y432000D01*
X347185Y426876D02*
X350638Y423423D01*
X347185Y426876D02*
Y432000D01*
X343500Y418000D02*
Y424240D01*
X345216Y425956D01*
Y432000D01*
X327000Y425000D02*
X329991D01*
X330522Y425531D01*
X323563Y414555D02*
Y422418D01*
X327381Y422177D02*
X327642Y421916D01*
X324532Y423978D02*
X326332Y422177D01*
X327381D01*
X335144Y443536D02*
X365405D01*
X336679Y438315D02*
X341944D01*
X338159Y434740D02*
X340463D01*
X341102Y434102D01*
X335552Y434661D02*
X337419Y436528D01*
X343731D02*
X361118D01*
X337419D02*
X341203D01*
X337521Y434102D02*
X338159Y434740D01*
X335196Y430850D02*
X335374Y431028D01*
X329468Y432000D02*
X329487Y431981D01*
X331437Y432000D02*
X331615Y431822D01*
X335374Y431028D02*
Y432000D01*
X325710Y432178D02*
Y434102D01*
X325532Y432000D02*
X325710Y432178D01*
X333405Y432000D02*
X333513Y432108D01*
X332362Y409500D02*
X338638D01*
X332431Y409569D02*
Y417931D01*
X332500Y418000D02*
Y418295D01*
X332431Y417931D02*
X332500Y418000D01*
X332362Y409500D02*
X332431Y409569D01*
X338776Y418000D02*
Y422043D01*
X332362Y405862D02*
Y409500D01*
X332500Y418295D02*
X337343Y423138D01*
X322744Y423237D02*
X323563Y422418D01*
X320000Y424795D02*
X320957Y425752D01*
X322744Y426763D02*
X323563Y427582D01*
Y431644D01*
X320957Y427503D02*
X321595Y428141D01*
X320957Y425752D02*
Y427503D01*
X322744Y423237D02*
Y426763D01*
X331615Y429845D02*
Y431822D01*
X329487Y428850D02*
X329969Y428369D01*
X330991Y425531D02*
X332437Y426977D01*
X329969Y428000D02*
Y428369D01*
X332437Y426977D02*
Y429023D01*
X330522Y425531D02*
X330991D01*
X326118Y427468D02*
X327500Y428850D01*
X331615Y429845D02*
X332437Y429023D01*
X325977Y427468D02*
X326118D01*
X324532Y426022D02*
X325977Y427468D01*
X324532Y423978D02*
Y426022D01*
X337343Y423138D02*
Y426166D01*
X335196Y429898D02*
Y430850D01*
X337032Y428522D02*
X337343Y428833D01*
X337032Y426477D02*
Y428522D01*
Y426477D02*
X337343Y426166D01*
X343248Y426515D02*
Y432000D01*
X337343Y428833D02*
Y432000D01*
X338776Y422043D02*
X343248Y426515D01*
X339311Y427689D02*
Y432000D01*
Y427689D02*
X339500Y427500D01*
X342990Y434740D02*
X356582D01*
X334500Y429202D02*
X335196Y429898D01*
X334500Y425000D02*
Y429202D01*
X327500Y428850D02*
Y432000D01*
X329487Y428850D02*
Y431981D01*
X321595Y428141D02*
Y432000D01*
X325710Y434102D02*
X335144Y443536D01*
X341944Y438315D02*
X343731Y436528D01*
X341203D02*
X342990Y434740D01*
X341102Y432178D02*
Y434102D01*
X333513Y435150D02*
X336679Y438315D01*
X337521Y432178D02*
Y434102D01*
X335552Y432178D02*
Y434661D01*
X333513Y432108D02*
Y435150D01*
X311500Y328000D02*
Y332509D01*
X309032Y334978D02*
X311500Y332509D01*
X290769Y334500D02*
X294529D01*
X296000Y329500D02*
X296071D01*
X274000Y357000D02*
X278941D01*
Y356705D02*
Y357000D01*
Y356705D02*
X281606Y354039D01*
X289500Y356705D02*
X290769Y355436D01*
X283500Y357559D02*
Y371264D01*
Y357559D02*
X284059Y357000D01*
X301532Y356031D02*
X307901Y362401D01*
X309032Y334978D02*
Y350031D01*
X290769Y344500D02*
Y355436D01*
X301532Y344961D02*
Y356031D01*
X296529Y339958D02*
X301532Y344961D01*
X296529Y336500D02*
Y339958D01*
X294529Y334500D02*
X296529Y336500D01*
X296071Y329500D02*
X299000Y326571D01*
X301313Y380061D02*
Y382533D01*
X294618Y357000D02*
Y369161D01*
X293500Y370280D02*
X294618Y369161D01*
X293500Y370280D02*
Y371264D01*
X288500Y372248D02*
X306532Y390280D01*
X288500Y371264D02*
Y372248D01*
X293500Y371264D02*
Y372248D01*
X301313Y380061D01*
X306532Y390280D02*
Y393531D01*
X309000Y396000D01*
X283500Y401736D02*
Y408500D01*
X288500Y401736D02*
Y410146D01*
X293500Y401736D02*
Y411567D01*
Y401736D02*
X293764Y402000D01*
X300500D01*
X278500Y401736D02*
Y408500D01*
X284941Y413705D02*
X288500Y410146D01*
X293500Y411567D02*
X295638Y413705D01*
Y414000D01*
X284941Y413705D02*
Y414000D01*
X290059D02*
X295638D01*
X308286Y462394D02*
X320043D01*
X302750Y457438D02*
Y459771D01*
X305798Y462819D01*
Y462948D01*
X307351Y464500D01*
X309114Y464394D02*
X320871D01*
X307351Y464500D02*
X309008D01*
X309114Y464394D01*
X304750Y456609D02*
Y458943D01*
X307213Y461405D01*
Y461533D02*
X308179Y462500D01*
X307213Y461405D02*
Y461533D01*
X308179Y462500D02*
X308286Y462394D01*
X248163Y414082D02*
Y418918D01*
X251582Y410663D02*
X254584D01*
X248163Y414082D02*
X251582Y410663D01*
X248163Y418918D02*
X266957Y437713D01*
X250163Y414911D02*
Y418089D01*
Y414911D02*
X252411Y412663D01*
X250163Y418089D02*
X267786Y435713D01*
X320043Y462394D02*
X320149Y462287D01*
X325594D02*
X329031Y465724D01*
X325816Y466137D02*
X325909D01*
X320149Y462287D02*
X325594D01*
X323967Y464287D02*
X325816Y466137D01*
X320977Y464287D02*
X323967D01*
X320871Y464394D02*
X320977Y464287D01*
X309032Y350031D02*
X322500Y363500D01*
X313638Y311295D02*
X316239Y313897D01*
Y314739D01*
X316500Y315000D01*
X313638Y311000D02*
Y311295D01*
X328598Y314756D02*
X331755D01*
X334500Y317500D01*
X331500Y349500D02*
X341000Y340000D01*
X331500Y349500D02*
Y361000D01*
X281606Y354039D02*
X286835D01*
X290769Y314500D02*
X294529D01*
X286835Y354039D02*
X289500Y356705D01*
X299000Y318971D02*
Y326571D01*
X294529Y314500D02*
X299000Y318971D01*
X329862Y311000D02*
X335000D01*
X329862D02*
X329900Y311037D01*
X325138Y311000D02*
Y311295D01*
X328598Y314756D01*
X259000Y409500D02*
Y409841D01*
X254584Y410663D02*
X255746Y409500D01*
X255850D01*
X252411Y412663D02*
X256179D01*
X259000Y409841D01*
X301313Y382533D02*
X309000Y390220D01*
X299500Y374000D02*
X300969Y372532D01*
X309000Y390220D02*
Y390500D01*
X309646Y400354D02*
X311500Y398500D01*
X309500Y400500D02*
X309646Y400354D01*
X311500Y378000D02*
Y398500D01*
X309500Y400500D02*
X309761Y400761D01*
X347000Y377000D02*
Y394000D01*
X331161Y372532D02*
X343500Y384870D01*
Y405760D01*
X307901Y362401D02*
X309757D01*
X316388Y369032D01*
X327099Y365401D02*
X331500Y361000D01*
X326193Y365401D02*
X327099D01*
X322094Y369500D02*
X326193Y365401D01*
X300969Y372532D02*
X331161D01*
X320000Y418000D02*
Y424795D01*
Y410992D02*
X323563Y414555D01*
X320000Y410500D02*
Y410992D01*
X326854Y400354D02*
X332362Y405862D01*
X314776Y403205D02*
Y403500D01*
X313799Y402228D02*
X314776Y403205D01*
X319500Y403500D02*
Y403795D01*
X313504Y402228D02*
X313799D01*
X319500Y403795D02*
X320476Y404772D01*
X312036Y400761D02*
X313504Y402228D01*
X309761Y400761D02*
X312036D01*
X320713Y400354D02*
X326854D01*
X309646Y400354D02*
X320713D01*
X320713Y400354D01*
D55*
X331500Y130500D02*
Y131500D01*
X317000Y116000D02*
X331500Y130500D01*
D56*
X253315Y478500D02*
D03*
X263158D02*
D03*
D57*
X273000D02*
D03*
D58*
X353976Y441646D02*
D03*
X314803D02*
D03*
D59*
X349153Y432000D02*
D03*
X347185D02*
D03*
X345216D02*
D03*
X343248D02*
D03*
X341280D02*
D03*
X339311D02*
D03*
X337343D02*
D03*
X335374D02*
D03*
X333405D02*
D03*
X331437D02*
D03*
X329468D02*
D03*
X327500D02*
D03*
X325532D02*
D03*
X323563D02*
D03*
X321595D02*
D03*
X319626D02*
D03*
D60*
X290769Y334500D02*
D03*
Y344500D02*
D03*
Y324500D02*
D03*
Y314500D02*
D03*
D61*
X286000Y386500D02*
D03*
D62*
X278500Y401736D02*
D03*
X283500D02*
D03*
X288500D02*
D03*
X293500D02*
D03*
X278500Y371264D02*
D03*
X283500D02*
D03*
X288500D02*
D03*
X293500D02*
D03*
D63*
X320000Y418000D02*
D03*
X314488D02*
D03*
X320000Y410500D02*
D03*
X314488D02*
D03*
M02*
