G04*
G04 #@! TF.GenerationSoftware,Altium Limited,Altium Designer,23.10.1 (27)*
G04*
G04 Layer_Physical_Order=1*
G04 Layer_Color=255*
%FSLAX25Y25*%
%MOIN*%
G70*
G04*
G04 #@! TF.SameCoordinates,1D9EF59F-A9A3-4DE6-AF9F-94A01C22AB5E*
G04*
G04*
G04 #@! TF.FilePolarity,Positive*
G04*
G01*
G75*
%ADD13C,0.00787*%
%ADD16C,0.00591*%
%ADD17C,0.01968*%
%ADD18R,0.03150X0.03740*%
%ADD19R,0.03347X0.00984*%
%ADD20R,0.00984X0.03347*%
%ADD21R,0.22047X0.22047*%
%ADD22R,0.03937X0.03937*%
%ADD23R,0.05906X0.07480*%
%ADD24R,0.01575X0.05315*%
%ADD25R,0.12205X0.12205*%
%ADD26R,0.09843X0.06693*%
%ADD27R,0.02200X0.03850*%
%ADD28R,0.03740X0.03150*%
%ADD29R,0.03543X0.02953*%
%ADD30R,0.06693X0.09843*%
%ADD31R,0.02717X0.05906*%
%ADD32R,0.03150X0.00787*%
%ADD33R,0.02953X0.03543*%
%ADD34R,0.03543X0.02362*%
%ADD35R,0.02953X0.02362*%
%ADD36R,0.02200X0.02900*%
%ADD37R,0.07087X0.03543*%
%ADD38R,0.04724X0.05512*%
%ADD39R,0.04134X0.05118*%
%ADD40R,0.03307X0.02520*%
%ADD41R,0.06299X0.08661*%
%ADD42R,0.06299X0.08583*%
%ADD43R,0.06299X0.05512*%
%ADD44R,0.05315X0.04331*%
%ADD45R,0.08465X0.12795*%
%ADD46R,0.08465X0.03937*%
%ADD49C,0.05100*%
%ADD50C,0.05709*%
%ADD51C,0.02362*%
%ADD52C,0.01968*%
%ADD53C,0.04724*%
%ADD54C,0.01000*%
%ADD55C,0.03937*%
%ADD56C,0.04528*%
%ADD57R,0.04528X0.04528*%
G36*
X409500Y316000D02*
X371839D01*
Y318500D01*
X371744Y319219D01*
X371466Y319890D01*
X371421Y319949D01*
Y321158D01*
X369845D01*
X369778Y321185D01*
X369059Y321280D01*
X368340Y321185D01*
X368273Y321158D01*
X366803D01*
X366697Y321158D01*
Y321158D01*
X366303D01*
Y321158D01*
X361579D01*
Y319813D01*
X360126D01*
Y321059D01*
X355598D01*
Y321059D01*
X355402D01*
Y321059D01*
X350874D01*
Y319813D01*
X348158D01*
Y321421D01*
X344699D01*
X341082Y325038D01*
X340656Y325323D01*
X340154Y325423D01*
X338008D01*
Y330672D01*
X345862D01*
X348611Y327922D01*
X349037Y327638D01*
X349539Y327538D01*
X359232D01*
X359735Y327638D01*
X360160Y327922D01*
X361392Y329153D01*
X363830D01*
X363892Y329141D01*
X366190Y326844D01*
X366616Y326559D01*
X367118Y326459D01*
X367374D01*
Y323941D01*
X371598D01*
X371902Y323941D01*
X372402Y323941D01*
X376626D01*
Y324694D01*
X378217D01*
X378608Y324532D01*
X379392D01*
X380115Y324831D01*
X380669Y325385D01*
X380968Y326108D01*
Y326892D01*
X380669Y327615D01*
X380115Y328169D01*
X379392Y328468D01*
X378608D01*
X378217Y328306D01*
X376626D01*
Y329059D01*
X372402D01*
X372098Y329059D01*
X371598Y329059D01*
X368788D01*
X368661Y329084D01*
X367662D01*
X365377Y331369D01*
X365244Y331458D01*
Y335846D01*
X361562D01*
X361371Y336308D01*
X362584Y337522D01*
X362976Y338108D01*
X362996Y338209D01*
X365244D01*
Y344902D01*
X364251D01*
Y345584D01*
X364469Y346108D01*
Y346272D01*
X364655Y346409D01*
X364968Y346510D01*
X365301Y346287D01*
X365804Y346187D01*
X367374D01*
Y344941D01*
X371598D01*
X371902Y344941D01*
X372402Y344941D01*
X376626D01*
Y345694D01*
X378217D01*
X378608Y345532D01*
X379392D01*
X380115Y345831D01*
X380669Y346385D01*
X380968Y347108D01*
Y347892D01*
X380669Y348615D01*
X380115Y349169D01*
X379392Y349468D01*
X378608D01*
X378217Y349306D01*
X376626D01*
Y350059D01*
X372402D01*
X372098Y350059D01*
X371598Y350059D01*
X367374D01*
Y348813D01*
X366347D01*
X365263Y349897D01*
X364838Y350181D01*
X364335Y350281D01*
X361477D01*
X360975Y350181D01*
X360549Y349897D01*
X359103Y348451D01*
X358819Y348025D01*
X358719Y347522D01*
Y347122D01*
X356498Y344902D01*
X352646D01*
Y342868D01*
X349124D01*
X348622Y342768D01*
X348196Y342483D01*
X340978Y335265D01*
X339140D01*
X338949Y335727D01*
X341253Y338032D01*
X341392D01*
X342115Y338331D01*
X342669Y338885D01*
X342969Y339608D01*
Y340392D01*
X342669Y341115D01*
X342115Y341669D01*
X341392Y341968D01*
X340859D01*
X340652Y342469D01*
X342863Y344680D01*
X345731D01*
Y349995D01*
X341007D01*
Y346536D01*
X338463Y343992D01*
X338271Y343954D01*
X337845Y343670D01*
X337322Y343147D01*
X336860Y343338D01*
Y351906D01*
X336760Y352409D01*
X336475Y352835D01*
X333929Y355381D01*
X334121Y355842D01*
X336197D01*
X336303Y355842D01*
X336723D01*
X337223Y355649D01*
Y354354D01*
X337032Y353892D01*
Y353108D01*
X337331Y352385D01*
X337885Y351831D01*
X338608Y351532D01*
X339392D01*
X340115Y351831D01*
X340669Y352385D01*
X340968Y353108D01*
Y353892D01*
X340836Y354212D01*
Y355842D01*
X341421D01*
Y361157D01*
X340767D01*
Y363941D01*
X341126D01*
Y369059D01*
X336598D01*
Y363941D01*
X337154D01*
Y361512D01*
X336697Y361157D01*
X336303D01*
X336197Y361157D01*
X333435D01*
X331781Y362811D01*
Y373476D01*
X337653D01*
Y375771D01*
X337687Y375937D01*
Y377610D01*
X339327D01*
Y379283D01*
X343461D01*
Y381252D01*
Y385156D01*
X346580D01*
X355011Y376725D01*
X355436Y376441D01*
X355939Y376341D01*
X358850D01*
Y369295D01*
X360839D01*
Y364992D01*
X360874Y364818D01*
Y361941D01*
X361331D01*
Y359115D01*
X361331Y359115D01*
X361032Y358392D01*
Y357608D01*
X361331Y356885D01*
X361885Y356331D01*
X362608Y356031D01*
X363392D01*
X364115Y356331D01*
X364669Y356885D01*
X364968Y357608D01*
Y358392D01*
X364944Y358450D01*
Y361838D01*
X365402Y361941D01*
X365598D01*
Y361941D01*
X370126D01*
Y367059D01*
X369175D01*
Y369295D01*
X371843D01*
Y376382D01*
X367400D01*
X366287Y377495D01*
X366478Y377957D01*
X371843D01*
Y385043D01*
X370499D01*
Y388194D01*
X373217D01*
X373608Y388032D01*
X374392D01*
X375115Y388331D01*
X375669Y388885D01*
X375969Y389608D01*
Y390392D01*
X375669Y391115D01*
X375115Y391669D01*
X374392Y391968D01*
X373608D01*
X373217Y391806D01*
X369988D01*
Y392559D01*
X365461D01*
Y392559D01*
X365264D01*
Y392559D01*
X360736D01*
Y387441D01*
X360736Y387441D01*
X360927Y386941D01*
X360787Y386733D01*
X360687Y386230D01*
Y385043D01*
X358850D01*
Y382813D01*
X355164D01*
X349345Y388631D01*
X349537Y389093D01*
X350610D01*
X351113Y389193D01*
X351538Y389477D01*
X356797Y394736D01*
X360059D01*
Y395687D01*
X362842D01*
Y394579D01*
X368158D01*
Y395278D01*
X390563D01*
Y391472D01*
X398437D01*
Y401709D01*
X390563D01*
Y397903D01*
X368158D01*
Y399303D01*
X362842D01*
Y398313D01*
X360059D01*
Y399264D01*
X360059D01*
Y399461D01*
X360059D01*
Y403988D01*
X359306D01*
Y405717D01*
X359469Y406108D01*
Y406892D01*
X359169Y407615D01*
X358615Y408169D01*
X357892Y408468D01*
X357108D01*
X356385Y408169D01*
X355831Y407615D01*
X355532Y406892D01*
Y406108D01*
X355694Y405717D01*
Y403988D01*
X354941D01*
Y403600D01*
X351559D01*
Y404126D01*
X348983D01*
X348792Y404588D01*
X355332Y411128D01*
X362842D01*
Y410079D01*
X368158D01*
Y412947D01*
X372048Y416837D01*
X372071D01*
X372198Y416862D01*
X378264D01*
Y419093D01*
X398736D01*
Y416862D01*
X406610D01*
Y423949D01*
X398736D01*
Y421718D01*
X378264D01*
Y423949D01*
X370390D01*
Y418892D01*
X366301Y414803D01*
X362842D01*
Y413754D01*
X354788D01*
X354286Y413654D01*
X353860Y413369D01*
X345969Y405477D01*
X345468Y405684D01*
Y406151D01*
X345169Y406875D01*
X344615Y407429D01*
X343892Y407728D01*
X343108D01*
X342385Y407429D01*
X341831Y406875D01*
X341531Y406151D01*
Y406016D01*
X341492Y405977D01*
X341205Y405920D01*
X340779Y405635D01*
X340122Y404978D01*
X339914Y405008D01*
X339622Y405155D01*
Y405366D01*
X337687D01*
Y423082D01*
X337587Y423585D01*
X337302Y424011D01*
X336469Y424844D01*
Y425392D01*
X336169Y426115D01*
X335615Y426669D01*
X334892Y426968D01*
X334108D01*
X333385Y426669D01*
X332831Y426115D01*
X332531Y425392D01*
Y424608D01*
X332831Y423885D01*
X333385Y423331D01*
X334108Y423032D01*
X334569D01*
X335061Y422539D01*
Y415823D01*
X334561Y415555D01*
X334529Y415577D01*
Y417292D01*
X334429Y417795D01*
X334145Y418220D01*
X331423Y420942D01*
Y426671D01*
X331637Y426885D01*
X331937Y427608D01*
Y428392D01*
X331637Y429115D01*
X331084Y429669D01*
X330607Y429866D01*
X330707Y430366D01*
X334335D01*
Y436092D01*
X334797Y436283D01*
X335307Y435773D01*
Y430381D01*
X335406Y429879D01*
X335691Y429453D01*
X337531Y427612D01*
Y427108D01*
X337831Y426385D01*
X338385Y425831D01*
X339108Y425531D01*
X339892D01*
X340615Y425831D01*
X341169Y426385D01*
X341469Y427108D01*
Y427892D01*
X341169Y428615D01*
X340615Y429169D01*
X339892Y429468D01*
X339388D01*
X338990Y429866D01*
X339197Y430366D01*
X350083D01*
Y438634D01*
X346180D01*
Y444866D01*
X349957D01*
Y447194D01*
X353127D01*
X353818Y447331D01*
X354404Y447723D01*
X356834Y450152D01*
X377996D01*
Y449299D01*
X388035D01*
Y450152D01*
X391087D01*
X391441Y449799D01*
Y449598D01*
X391441Y449098D01*
Y444874D01*
X396559D01*
Y445331D01*
X398385D01*
X398385Y445331D01*
X399108Y445031D01*
X399892D01*
X400615Y445331D01*
X401169Y445885D01*
X401469Y446608D01*
Y447392D01*
X401169Y448115D01*
X400615Y448669D01*
X399892Y448969D01*
X399108D01*
X399050Y448944D01*
X396913D01*
X396559Y449298D01*
X396559Y449902D01*
Y454126D01*
X391441D01*
Y453765D01*
X388035D01*
Y454811D01*
X379852D01*
X373183Y461481D01*
Y462366D01*
X373158Y462493D01*
Y465697D01*
X373158Y465803D01*
Y466197D01*
X373158Y466303D01*
Y470921D01*
X371813D01*
Y472126D01*
X373059D01*
Y476063D01*
X367941D01*
Y472126D01*
X369187D01*
Y470921D01*
X367843D01*
Y466303D01*
X367843Y466197D01*
Y465803D01*
X367843Y465697D01*
Y461079D01*
X370557D01*
Y460937D01*
X370657Y460435D01*
X370942Y460009D01*
X376724Y454227D01*
X376533Y453765D01*
X356086D01*
X355395Y453627D01*
X354809Y453236D01*
X352379Y450806D01*
X349957D01*
Y453134D01*
X338539D01*
Y444866D01*
X342568D01*
Y438634D01*
X338665D01*
Y431180D01*
X338165Y430932D01*
X337932Y431111D01*
Y436317D01*
X337832Y436819D01*
X337547Y437245D01*
X331864Y442928D01*
X331438Y443213D01*
X330936Y443313D01*
X328971D01*
X328615Y443669D01*
X327892Y443968D01*
X327108D01*
X326385Y443669D01*
X325831Y443115D01*
X325532Y442392D01*
Y441608D01*
X325831Y440885D01*
X326385Y440331D01*
X327108Y440031D01*
X327892D01*
X328615Y440331D01*
X328971Y440687D01*
X330392D01*
X331984Y439096D01*
X331792Y438634D01*
X326972D01*
X319036Y446570D01*
X319228Y447031D01*
X321595D01*
Y447194D01*
X322791D01*
Y444866D01*
X334209D01*
Y453134D01*
X322791D01*
Y450806D01*
X321595D01*
Y450969D01*
X317067D01*
Y449192D01*
X316605Y449001D01*
X312933Y452673D01*
Y454697D01*
X353500D01*
X353807Y454758D01*
X354068Y454932D01*
X354242Y455193D01*
X354303Y455500D01*
Y461000D01*
X354242Y461307D01*
X354068Y461568D01*
X353807Y461742D01*
X353500Y461803D01*
X332689D01*
X332498Y462265D01*
X333261Y463028D01*
X333653Y463615D01*
X333791Y464306D01*
Y470218D01*
X334291Y470425D01*
X334473Y470243D01*
X335303Y469764D01*
X336229Y469516D01*
X337188D01*
X338114Y469764D01*
X338945Y470243D01*
X339623Y470921D01*
X340102Y471752D01*
X340350Y472678D01*
Y473637D01*
X340102Y474563D01*
X339623Y475393D01*
X338945Y476072D01*
X338114Y476551D01*
X337188Y476799D01*
X336229D01*
X335303Y476551D01*
X334473Y476072D01*
X334059Y475658D01*
X333559Y475865D01*
Y476602D01*
X320173D01*
Y475865D01*
X319673Y475658D01*
X319260Y476072D01*
X318429Y476551D01*
X317503Y476799D01*
X316544D01*
X315618Y476551D01*
X314788Y476072D01*
X314109Y475393D01*
X313630Y474563D01*
X313382Y473637D01*
Y472678D01*
X313630Y471752D01*
X314109Y470921D01*
X314788Y470243D01*
X315618Y469764D01*
X316544Y469516D01*
X317503D01*
X318429Y469764D01*
X319260Y470243D01*
X319442Y470425D01*
X319942Y470218D01*
Y468725D01*
X319831Y468615D01*
X319531Y467892D01*
Y467108D01*
X319831Y466385D01*
X320385Y465831D01*
X321108Y465531D01*
X321892D01*
X322615Y465831D01*
X323169Y466385D01*
X323468Y467108D01*
Y467423D01*
X323554Y467855D01*
Y469713D01*
X325251D01*
X325398Y469503D01*
X325486Y469213D01*
X325257Y468870D01*
X325158Y468368D01*
Y467956D01*
X324794Y467805D01*
X324240Y467252D01*
X323940Y466528D01*
Y465745D01*
X324217Y465078D01*
X324030Y464578D01*
X306535D01*
X305844Y464440D01*
X305258Y464049D01*
X300867Y459657D01*
X298803D01*
X298697Y459657D01*
X298303D01*
X298197Y459657D01*
X295525D01*
X295350Y459692D01*
X295176Y459657D01*
X293579D01*
Y458806D01*
X291283D01*
X290892Y458968D01*
X290108D01*
X289385Y458669D01*
X288831Y458115D01*
X288531Y457392D01*
Y456608D01*
X288831Y455885D01*
X289385Y455331D01*
X290108Y455031D01*
X290892D01*
X291283Y455194D01*
X293579D01*
Y454343D01*
X298197D01*
X298303Y454343D01*
X298697D01*
X298803Y454343D01*
X303421D01*
Y454812D01*
X303921Y455019D01*
X307010Y451930D01*
X305173Y450094D01*
X292379D01*
X291688Y449956D01*
X291102Y449565D01*
X287412Y445875D01*
X287020Y445289D01*
X287004Y445208D01*
X286528Y444732D01*
X284358D01*
Y441972D01*
X274723Y432336D01*
X274331Y431750D01*
X274194Y431059D01*
Y411385D01*
X263590Y400781D01*
X263128Y400972D01*
Y404087D01*
X261209D01*
X260691Y404605D01*
X260687Y404612D01*
X259980Y405319D01*
X259762Y405464D01*
X259706Y405520D01*
Y406957D01*
X259631Y407333D01*
Y407631D01*
X260115Y407831D01*
X260669Y408385D01*
X260968Y409108D01*
Y409892D01*
X260669Y410615D01*
X260115Y411169D01*
X259392Y411469D01*
X258608D01*
X257885Y411169D01*
X257425Y410709D01*
X256965Y411169D01*
X256242Y411469D01*
X255459D01*
X254735Y411169D01*
X254182Y410615D01*
X253882Y409892D01*
Y409108D01*
X254182Y408385D01*
X254735Y407831D01*
X255219Y407631D01*
Y406291D01*
X255294Y405915D01*
Y405520D01*
X255238Y405464D01*
X255020Y405319D01*
X254313Y404612D01*
X254309Y404605D01*
X253791Y404087D01*
X251872D01*
Y398663D01*
X255694D01*
Y397283D01*
X255532Y396892D01*
Y396108D01*
X255831Y395385D01*
X256385Y394831D01*
X256805Y394657D01*
X257014Y394070D01*
X256896Y393894D01*
X256786Y393337D01*
X251872D01*
Y387913D01*
X254086D01*
X254965Y387034D01*
X255323Y386794D01*
X255601Y386739D01*
Y386320D01*
X255685Y385898D01*
X255924Y385540D01*
X257202Y384262D01*
X257560Y384023D01*
X257982Y383939D01*
X282872D01*
X283294Y384023D01*
X283652Y384262D01*
X284050Y384660D01*
X298941D01*
Y381098D01*
X304059D01*
Y381556D01*
X306050D01*
X306108Y381532D01*
X306892D01*
X307615Y381831D01*
X308169Y382385D01*
X308469Y383108D01*
Y383549D01*
X308512Y383585D01*
X310783D01*
X310990Y383085D01*
X301969Y374064D01*
X301468Y374271D01*
Y374392D01*
X301169Y375115D01*
X300615Y375669D01*
X299892Y375969D01*
X299108D01*
X298385Y375669D01*
X298029Y375313D01*
X270657D01*
Y376362D01*
X265342D01*
Y371744D01*
X265342Y371638D01*
Y371244D01*
X265342Y371138D01*
Y370254D01*
X262657D01*
Y371197D01*
X262657Y371303D01*
Y371697D01*
X262657Y371803D01*
Y376421D01*
X257343D01*
Y375313D01*
X255971D01*
X255615Y375669D01*
X254892Y375969D01*
X254108D01*
X253385Y375669D01*
X252831Y375115D01*
X252532Y374392D01*
Y373608D01*
X252831Y372885D01*
X253385Y372331D01*
X254108Y372031D01*
X254892D01*
X255615Y372331D01*
X255971Y372687D01*
X257343D01*
Y371803D01*
X257343Y371697D01*
Y371303D01*
X257343Y371197D01*
Y366579D01*
X262657D01*
Y367628D01*
X265342D01*
Y366520D01*
X266437D01*
Y363637D01*
X265863D01*
Y359163D01*
X269637D01*
Y363637D01*
X269063D01*
Y366520D01*
X270657D01*
Y371138D01*
X270657Y371244D01*
Y371638D01*
X270657Y371744D01*
Y372687D01*
X298029D01*
X298385Y372331D01*
X299108Y372031D01*
X299229D01*
X299436Y371532D01*
X295072Y367167D01*
X294787Y366741D01*
X294687Y366239D01*
Y330971D01*
X294331Y330615D01*
X294032Y329892D01*
Y329108D01*
X294331Y328385D01*
X294885Y327831D01*
X295608Y327532D01*
X296392D01*
X297115Y327831D01*
X297669Y328385D01*
X297969Y329108D01*
Y329892D01*
X297669Y330615D01*
X297313Y330971D01*
Y365695D01*
X311109Y379492D01*
X311571Y379300D01*
Y379283D01*
X313865D01*
X314032Y379250D01*
X315705D01*
Y378398D01*
X315409D01*
Y376103D01*
X315376Y375937D01*
Y370743D01*
X315273Y370700D01*
X314719Y370147D01*
X314419Y369423D01*
Y368640D01*
X314719Y367916D01*
X315273Y367363D01*
X315996Y367063D01*
X316779D01*
X317503Y367363D01*
X318057Y367916D01*
X318356Y368640D01*
Y369423D01*
X318057Y370147D01*
X318002Y370202D01*
Y373476D01*
X321282D01*
Y371294D01*
X320979Y371169D01*
X320426Y370615D01*
X320126Y369892D01*
Y369108D01*
X320426Y368385D01*
X320979Y367831D01*
X321703Y367531D01*
X322486D01*
X322750Y367641D01*
X323250Y367307D01*
Y366107D01*
X322612Y365469D01*
X322108D01*
X321385Y365169D01*
X320831Y364615D01*
X320532Y363892D01*
Y363108D01*
X320831Y362385D01*
X321385Y361831D01*
X322108Y361531D01*
X322892D01*
X323615Y361831D01*
X324169Y362385D01*
X324468Y363108D01*
Y363536D01*
X324735Y363749D01*
X325219Y363534D01*
Y353029D01*
X322397Y350207D01*
X320675Y351928D01*
X320249Y352213D01*
X319747Y352313D01*
X318421D01*
Y353658D01*
X313697D01*
Y348342D01*
X318421D01*
Y349687D01*
X319203D01*
X321084Y347807D01*
Y345853D01*
X320984Y345796D01*
X320584Y345700D01*
X320115Y346169D01*
X319392Y346468D01*
X318608D01*
X317885Y346169D01*
X317331Y345615D01*
X317032Y344892D01*
Y344108D01*
X317331Y343385D01*
X317790Y342926D01*
Y340555D01*
X317831Y340349D01*
Y338087D01*
X318692D01*
X319110Y337890D01*
X319110Y337587D01*
Y333682D01*
X318913Y333264D01*
X318610Y333264D01*
X316619D01*
X316453Y333297D01*
X316413Y333289D01*
X306559D01*
Y333902D01*
X301441D01*
Y329374D01*
X301690D01*
X302031Y328892D01*
Y328108D01*
X302331Y327385D01*
X302885Y326831D01*
X303608Y326532D01*
X304392D01*
X305115Y326831D01*
X305669Y327385D01*
X305968Y328108D01*
Y328892D01*
X306310Y329374D01*
X306559D01*
Y330664D01*
X313992D01*
Y329352D01*
X312932D01*
X312615Y329669D01*
X311892Y329969D01*
X311108D01*
X310385Y329669D01*
X309831Y329115D01*
X309531Y328392D01*
Y327608D01*
X309831Y326885D01*
X310385Y326331D01*
X311108Y326031D01*
X311892D01*
X312615Y326331D01*
X313011Y326727D01*
X313992D01*
Y322831D01*
X317831D01*
Y321619D01*
X317825Y321592D01*
X317484D01*
X316982Y321492D01*
X316556Y321208D01*
X311348Y316000D01*
X241500D01*
Y493500D01*
X409500D01*
Y316000D01*
D02*
G37*
G36*
X312768Y447728D02*
X312561Y447228D01*
X308405D01*
Y445846D01*
X305941Y443382D01*
X304601D01*
X304392Y443469D01*
X303608D01*
X302885Y443169D01*
X302331Y442615D01*
X302031Y441892D01*
Y441108D01*
X302331Y440385D01*
X302335Y440381D01*
Y437237D01*
X301878Y437134D01*
X301681D01*
Y437134D01*
X297153D01*
Y436381D01*
X293905D01*
Y437134D01*
X293547D01*
Y439417D01*
X294201D01*
Y440231D01*
X295127D01*
X295608Y440031D01*
X296392D01*
X297115Y440331D01*
X297669Y440885D01*
X297969Y441608D01*
Y442392D01*
X297669Y443115D01*
X297115Y443669D01*
X296392Y443968D01*
X295608D01*
X295307Y443844D01*
X294201D01*
Y444732D01*
X292032D01*
X291841Y445194D01*
X293127Y446481D01*
X305921D01*
X306612Y446619D01*
X307199Y447010D01*
X310343Y450154D01*
X312768Y447728D01*
D02*
G37*
G36*
X297153Y432016D02*
X301681D01*
Y432016D01*
X301878D01*
Y432016D01*
X302938D01*
Y431389D01*
X299403Y427854D01*
X298721D01*
X298604Y427831D01*
X296358D01*
Y427240D01*
X293642D01*
Y427831D01*
X292484D01*
Y429917D01*
X292392Y430378D01*
X292131Y430769D01*
X292131Y430769D01*
X291346Y431554D01*
X291537Y432016D01*
X293905D01*
Y432768D01*
X297153D01*
Y432016D01*
D02*
G37*
G36*
X284653Y436451D02*
Y432016D01*
X287478D01*
X290075Y429419D01*
Y427831D01*
X288917D01*
Y426279D01*
X285658D01*
Y430480D01*
X280343D01*
Y428310D01*
X280126Y428094D01*
X279824D01*
X279614Y428181D01*
X278831D01*
X278306Y427964D01*
X277806Y428234D01*
Y430311D01*
X284154Y436658D01*
X284653Y436451D01*
D02*
G37*
G36*
X308530Y432537D02*
X308622Y432298D01*
Y431878D01*
X308622Y431772D01*
Y427153D01*
X310575D01*
Y426496D01*
X309221D01*
Y423001D01*
X308720Y422794D01*
X307163Y424352D01*
X306772Y424613D01*
X306311Y424704D01*
X306311Y424704D01*
X301083D01*
Y426128D01*
X304993Y430038D01*
X304993Y430038D01*
X305254Y430429D01*
X305346Y430890D01*
X305346Y430890D01*
Y432016D01*
X306405D01*
Y432798D01*
X308268D01*
X308530Y432537D01*
D02*
G37*
G36*
X322917Y437579D02*
Y430366D01*
X329230D01*
X329330Y429866D01*
X328853Y429669D01*
X328300Y429115D01*
X328000Y428392D01*
Y427608D01*
X328175Y427185D01*
X327793Y426802D01*
X327392Y426968D01*
X326608D01*
X325885Y426669D01*
X325331Y426115D01*
X325031Y425392D01*
Y424888D01*
X320687Y420543D01*
X315721D01*
Y418309D01*
X315072Y417661D01*
X314339D01*
Y420590D01*
X310924D01*
X309455Y422059D01*
X309662Y422559D01*
X314339D01*
Y426496D01*
X312984D01*
Y427153D01*
X313937D01*
Y431772D01*
X313937Y431878D01*
Y432298D01*
X314130Y432798D01*
X316268D01*
X316606Y432461D01*
X316622Y432298D01*
X316622Y432213D01*
Y431819D01*
X316622Y431713D01*
Y427095D01*
X317075D01*
Y426449D01*
X315721D01*
Y422512D01*
X320839D01*
Y426449D01*
X319484D01*
Y427095D01*
X321937D01*
Y431713D01*
X321937Y431819D01*
Y432213D01*
X321937Y432319D01*
Y436937D01*
X316622D01*
Y436411D01*
X313937D01*
Y436996D01*
X308622D01*
Y436411D01*
X306405D01*
Y437134D01*
X305948D01*
Y439769D01*
X306690D01*
X307381Y439907D01*
X307967Y440298D01*
X310960Y443291D01*
X312933D01*
Y446856D01*
X313433Y447063D01*
X322917Y437579D01*
D02*
G37*
G36*
X309221Y418888D02*
Y417661D01*
X296839D01*
X295202Y419298D01*
X295393Y419760D01*
X296358D01*
Y419169D01*
X301083D01*
Y419885D01*
X301583Y419985D01*
X301831Y419385D01*
X302385Y418831D01*
X303108Y418532D01*
X303892D01*
X304615Y418831D01*
X305169Y419385D01*
X305469Y420108D01*
Y420892D01*
X305169Y421615D01*
X304988Y421796D01*
X305195Y422296D01*
X305812D01*
X309221Y418888D01*
D02*
G37*
G36*
X291280Y419146D02*
X291948D01*
X295489Y415605D01*
X295489Y415605D01*
X295880Y415344D01*
X296340Y415252D01*
X315571D01*
X315571Y415252D01*
X316032Y415344D01*
X316422Y415605D01*
X317424Y416606D01*
X320061D01*
Y411474D01*
X320161Y410971D01*
X320446Y410545D01*
X321540Y409451D01*
X321267Y409017D01*
X320895Y409091D01*
X319775D01*
X318844Y410021D01*
Y411621D01*
X318744Y412123D01*
X318460Y412549D01*
X317218Y413790D01*
X316793Y414075D01*
X316290Y414175D01*
X302261D01*
X301758Y414075D01*
X301332Y413790D01*
X297355Y409813D01*
X286047D01*
X285658Y410079D01*
Y414803D01*
X285658D01*
Y415197D01*
X285658D01*
Y416062D01*
X286051Y416355D01*
X286512Y416446D01*
X286903Y416708D01*
X288526Y418330D01*
X288526Y418330D01*
X288787Y418721D01*
X288787Y418723D01*
X288917Y419169D01*
X291163D01*
X291280Y419146D01*
D02*
G37*
G36*
X307374Y407441D02*
X308256D01*
Y406540D01*
X307900Y406184D01*
X307600Y405461D01*
Y404677D01*
X307900Y403954D01*
X308454Y403400D01*
X309177Y403100D01*
X309961D01*
X310684Y403400D01*
X311238Y403954D01*
X311537Y404677D01*
Y405461D01*
X311238Y406184D01*
X310881Y406540D01*
Y407441D01*
X311902D01*
Y407441D01*
X312098D01*
Y407441D01*
X314770D01*
X317373Y404838D01*
X317378Y404834D01*
Y403072D01*
X317345Y402906D01*
Y401232D01*
X316492D01*
Y401528D01*
X311571D01*
Y397624D01*
X310160D01*
X310115Y397669D01*
X309392Y397969D01*
X308608D01*
X307885Y397669D01*
X307331Y397115D01*
X307031Y396392D01*
Y395655D01*
X293201D01*
X282695Y406162D01*
X282978Y406586D01*
X283108Y406531D01*
X283892D01*
X284615Y406831D01*
X284971Y407187D01*
X297898D01*
X298401Y407287D01*
X298827Y407572D01*
X302804Y411550D01*
X307374D01*
Y407441D01*
D02*
G37*
G36*
X325795Y421231D02*
X325973Y420801D01*
X326527Y420248D01*
X326590Y420222D01*
Y419589D01*
X326690Y419086D01*
X326974Y418660D01*
X327707Y417928D01*
X327756Y417682D01*
X328040Y417256D01*
X330117Y415180D01*
Y410921D01*
X329540Y410345D01*
X329256Y409919D01*
X329156Y409417D01*
Y405366D01*
X327844D01*
Y406316D01*
X327744Y406818D01*
X327460Y407244D01*
X322687Y412017D01*
Y418830D01*
X325211Y421355D01*
X325795Y421231D01*
D02*
G37*
G36*
X354941Y399461D02*
X354941D01*
Y399264D01*
X354941D01*
Y396592D01*
X350066Y391718D01*
X343461D01*
Y393653D01*
X341166D01*
X341000Y393687D01*
X339327D01*
Y395031D01*
X343461D01*
Y397216D01*
X343675Y397359D01*
X345690Y399374D01*
X345941Y399750D01*
X345976Y399752D01*
X346441Y399598D01*
Y399598D01*
X351559D01*
Y399987D01*
X354941D01*
Y399461D01*
D02*
G37*
G36*
X276591Y407966D02*
X276831Y407385D01*
X277385Y406831D01*
X278108Y406531D01*
X278612D01*
X291729Y393414D01*
X292155Y393130D01*
X292657Y393030D01*
X306623D01*
X307049Y392603D01*
X307387Y392378D01*
X307501Y391994D01*
X307517Y391801D01*
X307331Y391615D01*
X307031Y390892D01*
Y390108D01*
X307331Y389385D01*
X307758Y388958D01*
X307578Y388458D01*
X282934D01*
X282512Y388374D01*
X282154Y388135D01*
X281756Y387737D01*
X263555D01*
X263128Y387913D01*
Y393337D01*
X261908D01*
X261717Y393799D01*
X276070Y408152D01*
X276591Y407966D01*
D02*
G37*
G36*
X334235Y351363D02*
Y343481D01*
X334169Y343008D01*
X326321D01*
Y343537D01*
X326669Y343885D01*
X326969Y344608D01*
Y345392D01*
X326669Y346115D01*
X326115Y346669D01*
X325392Y346969D01*
X324608D01*
X324209Y346803D01*
X323709Y347137D01*
Y347807D01*
X327460Y351557D01*
X327744Y351983D01*
X327844Y352485D01*
Y357100D01*
X328306Y357291D01*
X334235Y351363D01*
D02*
G37*
G36*
X352646Y338209D02*
X357509D01*
X357700Y337747D01*
X355800Y335846D01*
X352646D01*
Y330163D01*
X350083D01*
X347334Y332912D01*
X346908Y333197D01*
X346406Y333297D01*
X343375D01*
X343184Y333759D01*
X349668Y340243D01*
X352646D01*
Y338209D01*
D02*
G37*
%LPC*%
G36*
X383892Y481968D02*
X383108D01*
X382660Y481783D01*
X380559D01*
Y481921D01*
X375441D01*
Y481783D01*
X373059D01*
Y481968D01*
X367941D01*
Y478031D01*
X373059D01*
Y478170D01*
X375441D01*
Y477984D01*
X380559D01*
Y478170D01*
X382774D01*
X383108Y478031D01*
X383892D01*
X384615Y478331D01*
X385169Y478885D01*
X385469Y479608D01*
Y480392D01*
X385169Y481115D01*
X384615Y481669D01*
X383892Y481968D01*
D02*
G37*
G36*
X327063Y488315D02*
X326669D01*
X326563Y488315D01*
X319189D01*
Y479260D01*
X326563D01*
X326669Y479260D01*
X327063D01*
X327169Y479260D01*
X334543D01*
Y488315D01*
X327169D01*
X327063Y488315D01*
D02*
G37*
G36*
X341039Y488339D02*
X340976Y488330D01*
X335921D01*
X335614Y488269D01*
X335353Y488095D01*
X335179Y487835D01*
X335118Y487528D01*
Y480047D01*
X335179Y479740D01*
X335353Y479480D01*
X335614Y479306D01*
X335921Y479244D01*
X340976D01*
X341039Y479236D01*
X341759Y479331D01*
X342429Y479608D01*
X343005Y480050D01*
X343447Y480626D01*
X343724Y481296D01*
X343819Y482016D01*
X343811Y482079D01*
X343811Y485495D01*
X343819Y485559D01*
X343724Y486278D01*
X343447Y486949D01*
X343005Y487525D01*
X342429Y487966D01*
X341759Y488244D01*
X341039Y488339D01*
D02*
G37*
G36*
X312693Y488339D02*
X311974Y488244D01*
X311303Y487966D01*
X310727Y487525D01*
X310286Y486949D01*
X310008Y486278D01*
X309913Y485559D01*
X309922Y485496D01*
X309922Y482080D01*
X309913Y482016D01*
X310008Y481296D01*
X310286Y480626D01*
X310727Y480050D01*
X311303Y479608D01*
X311974Y479331D01*
X312693Y479236D01*
X312756Y479244D01*
X317811D01*
X318118Y479306D01*
X318379Y479480D01*
X318553Y479740D01*
X318614Y480047D01*
Y487528D01*
X318553Y487835D01*
X318379Y488095D01*
X318118Y488269D01*
X317811Y488330D01*
X312756D01*
X312693Y488339D01*
D02*
G37*
G36*
X263559Y481551D02*
X262756D01*
X261980Y481343D01*
X261284Y480942D01*
X260716Y480373D01*
X260314Y479678D01*
X260106Y478902D01*
Y478098D01*
X260314Y477322D01*
X260716Y476626D01*
X261284Y476058D01*
X261980Y475657D01*
X262756Y475449D01*
X263559D01*
X264335Y475657D01*
X265031Y476058D01*
X265599Y476626D01*
X266001Y477322D01*
X266209Y478098D01*
Y478902D01*
X266001Y479678D01*
X265599Y480373D01*
X265031Y480942D01*
X264335Y481343D01*
X263559Y481551D01*
D02*
G37*
G36*
X253717D02*
X252913D01*
X252137Y481343D01*
X251442Y480942D01*
X250873Y480373D01*
X250472Y479678D01*
X250264Y478902D01*
Y478098D01*
X250472Y477322D01*
X250873Y476626D01*
X251442Y476058D01*
X252137Y475657D01*
X252913Y475449D01*
X253717D01*
X254493Y475657D01*
X255188Y476058D01*
X255756Y476626D01*
X256158Y477322D01*
X256366Y478098D01*
Y478902D01*
X256158Y479678D01*
X255756Y480373D01*
X255188Y480942D01*
X254493Y481343D01*
X253717Y481551D01*
D02*
G37*
G36*
X380559Y476016D02*
X375441D01*
Y472079D01*
X376687D01*
Y470862D01*
X375342D01*
Y466138D01*
X380658D01*
Y470862D01*
X379313D01*
Y472079D01*
X380559D01*
Y476016D01*
D02*
G37*
G36*
X397571Y478879D02*
X396276D01*
X396198Y478864D01*
X396119D01*
X394849Y478611D01*
X394776Y478581D01*
X394698Y478565D01*
X393501Y478070D01*
X393435Y478026D01*
X393362Y477995D01*
X392285Y477276D01*
X392229Y477220D01*
X392164Y477176D01*
X391248Y476260D01*
X391204Y476194D01*
X391148Y476138D01*
X390428Y475061D01*
X390398Y474988D01*
X390354Y474922D01*
X389858Y473726D01*
X389843Y473648D01*
X389812Y473575D01*
X389560Y472304D01*
Y472225D01*
X389544Y472148D01*
Y470852D01*
X389560Y470775D01*
Y470696D01*
X389812Y469425D01*
X389843Y469352D01*
X389858Y469275D01*
X390354Y468078D01*
X390398Y468012D01*
X390428Y467939D01*
X391148Y466862D01*
X391204Y466806D01*
X391248Y466740D01*
X392164Y465824D01*
X392229Y465780D01*
X392285Y465724D01*
X393362Y465004D01*
X393435Y464974D01*
X393501Y464930D01*
X394698Y464434D01*
X394776Y464419D01*
X394849Y464389D01*
X396119Y464136D01*
X396198D01*
X396276Y464121D01*
X397571D01*
X397649Y464136D01*
X397728D01*
X398998Y464389D01*
X399072Y464419D01*
X399149Y464434D01*
X400346Y464930D01*
X400412Y464974D01*
X400485Y465004D01*
X401562Y465724D01*
X401618Y465780D01*
X401684Y465824D01*
X402599Y466740D01*
X402643Y466806D01*
X402699Y466862D01*
X403419Y467939D01*
X403449Y468012D01*
X403493Y468078D01*
X403989Y469275D01*
X404004Y469352D01*
X404035Y469425D01*
X404287Y470696D01*
Y470775D01*
X404303Y470852D01*
Y472148D01*
X404287Y472225D01*
Y472304D01*
X404035Y473575D01*
X404004Y473648D01*
X403989Y473726D01*
X403493Y474922D01*
X403449Y474988D01*
X403419Y475061D01*
X402699Y476138D01*
X402643Y476194D01*
X402599Y476260D01*
X401684Y477176D01*
X401618Y477220D01*
X401562Y477276D01*
X400485Y477995D01*
X400412Y478026D01*
X400346Y478070D01*
X399149Y478565D01*
X399072Y478581D01*
X398998Y478611D01*
X397728Y478864D01*
X397649D01*
X397571Y478879D01*
D02*
G37*
G36*
X297820Y478764D02*
X296524D01*
X296447Y478749D01*
X296368D01*
X295097Y478496D01*
X295024Y478466D01*
X294947Y478450D01*
X293750Y477955D01*
X293684Y477911D01*
X293611Y477880D01*
X292534Y477161D01*
X292478Y477105D01*
X292412Y477061D01*
X291496Y476145D01*
X291452Y476079D01*
X291396Y476023D01*
X290676Y474946D01*
X290646Y474873D01*
X290602Y474807D01*
X290107Y473610D01*
X290091Y473533D01*
X290061Y473460D01*
X289808Y472189D01*
Y472110D01*
X289793Y472033D01*
Y470737D01*
X289808Y470660D01*
Y470580D01*
X290061Y469310D01*
X290091Y469237D01*
X290107Y469159D01*
X290602Y467963D01*
X290646Y467897D01*
X290676Y467824D01*
X291396Y466747D01*
X291452Y466691D01*
X291496Y466625D01*
X292412Y465709D01*
X292478Y465665D01*
X292534Y465609D01*
X293611Y464889D01*
X293684Y464859D01*
X293750Y464815D01*
X294947Y464319D01*
X295024Y464304D01*
X295097Y464274D01*
X296368Y464021D01*
X296447D01*
X296524Y464006D01*
X297820D01*
X297897Y464021D01*
X297976D01*
X299247Y464274D01*
X299320Y464304D01*
X299397Y464319D01*
X300594Y464815D01*
X300660Y464859D01*
X300733Y464889D01*
X301810Y465609D01*
X301866Y465665D01*
X301932Y465709D01*
X302848Y466625D01*
X302892Y466691D01*
X302948Y466747D01*
X303667Y467824D01*
X303698Y467897D01*
X303742Y467963D01*
X304238Y469159D01*
X304253Y469237D01*
X304283Y469310D01*
X304536Y470580D01*
Y470660D01*
X304551Y470737D01*
Y472033D01*
X304536Y472110D01*
Y472189D01*
X304283Y473460D01*
X304253Y473533D01*
X304238Y473610D01*
X303742Y474807D01*
X303698Y474873D01*
X303667Y474946D01*
X302948Y476023D01*
X302892Y476079D01*
X302848Y476145D01*
X301932Y477061D01*
X301866Y477105D01*
X301810Y477161D01*
X300733Y477880D01*
X300660Y477911D01*
X300594Y477955D01*
X299397Y478450D01*
X299320Y478466D01*
X299247Y478496D01*
X297976Y478749D01*
X297897D01*
X297820Y478764D01*
D02*
G37*
G36*
X396945Y437953D02*
X390055D01*
Y436279D01*
X388035D01*
Y436701D01*
X377996D01*
Y431189D01*
X388035D01*
Y432666D01*
X390055D01*
Y432047D01*
X391694D01*
Y431283D01*
X391531Y430892D01*
Y430108D01*
X391831Y429385D01*
X392385Y428831D01*
X393108Y428532D01*
X393892D01*
X394615Y428831D01*
X395169Y429385D01*
X395468Y430108D01*
Y430892D01*
X395306Y431283D01*
Y432047D01*
X396945D01*
Y437953D01*
D02*
G37*
G36*
X276051Y481551D02*
X269949D01*
Y478003D01*
X252723Y460777D01*
X252331Y460191D01*
X252194Y459500D01*
Y439311D01*
X251951Y439171D01*
X251329Y438549D01*
X250890Y437788D01*
X250663Y436939D01*
Y436061D01*
X250890Y435212D01*
X251329Y434451D01*
X251951Y433829D01*
X252712Y433390D01*
X253561Y433163D01*
X254439D01*
X255288Y433390D01*
X256049Y433829D01*
X256671Y434451D01*
X257110Y435212D01*
X257337Y436061D01*
Y436939D01*
X257110Y437788D01*
X256671Y438549D01*
X256049Y439171D01*
X255806Y439311D01*
Y458752D01*
X272503Y475449D01*
X276051D01*
Y481551D01*
D02*
G37*
G36*
X254439Y419837D02*
X253561D01*
X252712Y419610D01*
X251951Y419171D01*
X251329Y418549D01*
X250890Y417788D01*
X250663Y416939D01*
Y416061D01*
X250890Y415212D01*
X251329Y414451D01*
X251951Y413829D01*
X252712Y413390D01*
X253561Y413163D01*
X254439D01*
X255288Y413390D01*
X256049Y413829D01*
X256671Y414451D01*
X257110Y415212D01*
X257337Y416061D01*
Y416939D01*
X257110Y417788D01*
X256671Y418549D01*
X256049Y419171D01*
X255288Y419610D01*
X254439Y419837D01*
D02*
G37*
G36*
X406610Y412138D02*
X398736D01*
Y410401D01*
X378264D01*
Y412138D01*
X370390D01*
Y405051D01*
X372520D01*
Y402280D01*
X372532Y402224D01*
Y401608D01*
X372831Y400885D01*
X373385Y400331D01*
X374108Y400032D01*
X374892D01*
X375615Y400331D01*
X376169Y400885D01*
X376468Y401608D01*
Y402392D01*
X376169Y403115D01*
X376133Y403151D01*
Y405051D01*
X378264D01*
Y406788D01*
X398736D01*
Y405051D01*
X406610D01*
Y412138D01*
D02*
G37*
G36*
X262137Y363637D02*
X258363D01*
Y362763D01*
X256021D01*
X255615Y363169D01*
X254892Y363469D01*
X254108D01*
X253385Y363169D01*
X252831Y362615D01*
X252532Y361892D01*
Y361108D01*
X252831Y360385D01*
X253385Y359831D01*
X254108Y359531D01*
X254892D01*
X255615Y359831D01*
X255921Y360137D01*
X258363D01*
Y359163D01*
X262137D01*
Y363637D01*
D02*
G37*
G36*
X398437Y365488D02*
X390563D01*
Y355331D01*
X398437D01*
Y358694D01*
X401217D01*
X401608Y358531D01*
X402392D01*
X403115Y358831D01*
X403669Y359385D01*
X403968Y360108D01*
Y360892D01*
X403669Y361615D01*
X403115Y362169D01*
X402392Y362469D01*
X401608D01*
X401217Y362306D01*
X398437D01*
Y365488D01*
D02*
G37*
G36*
X304392Y353468D02*
X303608D01*
X302885Y353169D01*
X302331Y352615D01*
X302031Y351892D01*
Y351108D01*
X302194Y350717D01*
Y349626D01*
X301441D01*
Y345098D01*
X306559D01*
Y349626D01*
X305806D01*
Y350717D01*
X305968Y351108D01*
Y351892D01*
X305669Y352615D01*
X305115Y353169D01*
X304392Y353468D01*
D02*
G37*
G36*
X265887Y355837D02*
X262113D01*
Y351362D01*
X262687D01*
Y345949D01*
X259669D01*
Y340831D01*
X268331D01*
Y342077D01*
X277866D01*
Y338539D01*
X286134D01*
Y349957D01*
X277866D01*
Y344702D01*
X268331D01*
Y345949D01*
X265313D01*
Y351362D01*
X265887D01*
Y355837D01*
D02*
G37*
%LPD*%
G36*
X343008Y482016D02*
X341039D01*
Y485559D01*
X343008D01*
X343008Y482016D01*
D02*
G37*
G36*
X341039Y480047D02*
X335921D01*
Y487528D01*
X341039D01*
Y480047D01*
D02*
G37*
G36*
X312693Y482016D02*
X310724D01*
X310724Y485559D01*
X312693D01*
Y482016D01*
D02*
G37*
G36*
X317811Y480047D02*
X312693D01*
Y487528D01*
X317811D01*
Y480047D01*
D02*
G37*
D13*
X289494Y421925D02*
X291280D01*
Y420350D02*
X292461D01*
Y420336D02*
Y420350D01*
Y420336D02*
X296340Y416457D01*
X298721Y421925D02*
X301649D01*
X298721Y423500D02*
X306311D01*
X303074Y420500D02*
X303500D01*
X296340Y416457D02*
X315571D01*
X306311Y423500D02*
X311189Y418622D01*
X311779D01*
X315571Y416457D02*
X317689Y418575D01*
X318280D01*
X298721Y426650D02*
X299902D01*
X304142Y430890D01*
Y434575D01*
X318280Y424480D02*
Y428457D01*
X311779Y424528D02*
Y429016D01*
X311280Y429516D02*
X311779Y429016D01*
X301649Y421925D02*
X303074Y420500D01*
X318280Y428457D02*
X319280Y429457D01*
X283295Y423000D02*
X285370Y425075D01*
X278953Y420441D02*
X285278D01*
X288337Y423500D02*
X291280D01*
X283000Y423000D02*
X283295D01*
X285278Y420441D02*
X288337Y423500D01*
X287674Y420105D02*
X289494Y421925D01*
X287674Y419182D02*
Y420105D01*
X286051Y417559D02*
X287674Y419182D01*
X283000Y417559D02*
X286051D01*
X285370Y425075D02*
X291280D01*
X286917Y434279D02*
X291280Y429917D01*
Y426650D02*
Y429917D01*
D16*
X307438Y385764D02*
X308512Y384689D01*
X313843D01*
X309171Y386280D02*
X313843D01*
X314032Y386469D01*
X313843Y384689D02*
X314032Y384500D01*
X256705Y386320D02*
X257982Y385043D01*
X258641Y386633D02*
X282213D01*
X257982Y385043D02*
X282872D01*
X283593Y385764D01*
X307438D01*
X324888Y317500D02*
X324952Y317564D01*
Y321389D01*
X325016Y321453D01*
X282934Y387354D02*
X308097D01*
X309171Y386280D01*
X256705Y386320D02*
Y387468D01*
X253760Y389800D02*
Y390625D01*
Y389800D02*
X255746Y387814D01*
X256359D01*
X256705Y387468D01*
X258295Y386979D02*
X258641Y386633D01*
X258295Y386979D02*
Y387468D01*
X258641Y387814D01*
X259254D01*
X261240Y389800D01*
Y390625D01*
X282213Y386633D02*
X282934Y387354D01*
D17*
X313677Y482016D02*
G03*
X313677Y482016I-984J0D01*
G01*
Y485559D02*
G03*
X313677Y485559I-984J0D01*
G01*
X342024Y482016D02*
G03*
X342024Y482016I-984J0D01*
G01*
Y485559D02*
G03*
X342024Y485559I-984J0D01*
G01*
X301500Y383362D02*
X306256D01*
X306394Y383500D01*
X306500D01*
X302382Y310000D02*
X302972Y309409D01*
Y308856D02*
Y309409D01*
X300500Y284862D02*
X310000D01*
X302972Y308856D02*
X310328Y301500D01*
X310000Y284862D02*
Y294067D01*
X317138Y301205D01*
X310328Y301500D02*
X317138D01*
X316500Y314894D02*
X317138Y314256D01*
Y301205D02*
Y301500D01*
Y314256D01*
X304000Y328500D02*
Y331638D01*
Y347362D02*
Y351500D01*
X316500Y314894D02*
Y315000D01*
X305921Y448287D02*
X310374Y452740D01*
X310669D01*
X310374Y445260D02*
X310669D01*
X308558Y452937D02*
X310472D01*
X304495Y457000D02*
X308558Y452937D01*
X301059Y457000D02*
Y457295D01*
X295350Y457886D02*
X295941Y457295D01*
X301059D02*
X306535Y462772D01*
X295941Y457000D02*
Y457295D01*
X290500Y457000D02*
X295941D01*
X301059D02*
X304495D01*
X286720Y441780D02*
Y442075D01*
X288689Y444339D02*
Y444597D01*
X286720Y442370D02*
X288689Y444339D01*
X286720Y442075D02*
Y442370D01*
Y442075D02*
X286819Y441976D01*
X291876Y442037D02*
X295963D01*
X288689Y444597D02*
X292379Y448287D01*
X291740Y441976D02*
X291839Y442075D01*
X291876Y442037D01*
X306690Y441575D02*
X310374Y445260D01*
X292379Y448287D02*
X305921D01*
X321748Y467855D02*
Y473158D01*
X383476Y479976D02*
X383500Y480000D01*
X370500D02*
X370524Y479976D01*
X377976D01*
X378000Y479953D01*
X378024Y479976D02*
X383476D01*
X378000Y479953D02*
X378024Y479976D01*
X383016Y433945D02*
X383543Y434472D01*
X392972D01*
X254000Y436500D02*
Y459500D01*
X273000Y478500D01*
X330450Y462772D02*
X331984Y464306D01*
Y473158D01*
X306535Y462772D02*
X330450D01*
X321500Y467500D02*
Y467606D01*
X321748Y467855D01*
X310661Y452390D02*
X326551Y436500D01*
X295963Y442037D02*
X296000Y442000D01*
X291642Y434575D02*
X299417D01*
X304171Y434604D02*
X311250D01*
X304142Y434575D02*
X304171Y434604D01*
X304142Y434575D02*
Y441252D01*
X304000Y441394D02*
Y441500D01*
Y441394D02*
X304142Y441252D01*
X304075Y441575D02*
X306690D01*
X304000Y441500D02*
X304075Y441575D01*
X311309Y434604D02*
X319250D01*
X311250D02*
X311280Y434634D01*
X311309Y434604D01*
X278953Y412470D02*
X282970D01*
X344374Y434500D02*
Y448874D01*
X344248Y449000D02*
X344374Y448874D01*
X344248Y449000D02*
X353127D01*
X319331D02*
X328500D01*
X326551Y436500D02*
X328126D01*
X319250Y434604D02*
X319280Y434575D01*
X374327Y408595D02*
X402673D01*
X353127Y449000D02*
X356086Y451959D01*
X393903D01*
X392972Y434472D02*
X393500Y435000D01*
Y430500D02*
Y435000D01*
X393903Y451959D02*
X394000Y451862D01*
Y447138D02*
X399256D01*
X399394Y447000D01*
X399500D01*
X367724Y389705D02*
X368693Y388736D01*
X367724Y389705D02*
Y390000D01*
X374000D01*
X349069Y401793D02*
X357431D01*
X357500Y401724D01*
Y406500D01*
X374327Y402280D02*
Y408595D01*
Y402280D02*
X374500Y402107D01*
Y402000D02*
Y402107D01*
X368693Y381500D02*
Y388736D01*
X394500Y360409D02*
X394590Y360500D01*
X402000D01*
X349000Y401862D02*
X349069Y401793D01*
X257500Y396500D02*
Y401375D01*
X279223Y426213D02*
X279298Y426288D01*
X280874D01*
X282114Y427528D01*
X282409D01*
X283000Y428118D01*
X276000Y410637D02*
Y431059D01*
X286819Y434673D02*
Y441976D01*
Y434673D02*
X286917Y434575D01*
X282970Y412470D02*
X283000Y412441D01*
X291642Y434575D02*
X291740Y434673D01*
Y441976D01*
X276000Y431059D02*
X286720Y441780D01*
X258565Y392515D02*
Y393202D01*
X257500Y391450D02*
X258565Y392515D01*
Y393202D02*
X276000Y410637D01*
X257500Y390625D02*
Y391450D01*
X332862Y301500D02*
Y308756D01*
Y301205D02*
Y301500D01*
Y308756D02*
X335000Y310894D01*
Y311000D01*
X332862Y301205D02*
X338500Y295567D01*
Y284862D02*
Y295567D01*
Y284862D02*
X348000D01*
X374362Y326500D02*
X379000D01*
X339000Y353500D02*
X339030Y353530D01*
Y358471D01*
X339059Y358500D01*
X361307Y340472D02*
X362390Y341555D01*
X355500Y332500D02*
Y332992D01*
X361307Y338799D01*
Y340472D01*
X362390Y341555D02*
X362445Y341610D01*
Y346445D01*
X362500Y346500D01*
X374362Y347500D02*
X379000D01*
X363000Y358000D02*
Y358106D01*
X362000Y372839D02*
X362646Y372193D01*
Y364992D02*
Y372193D01*
Y364992D02*
X363138Y364500D01*
X338961Y358598D02*
X339059Y358500D01*
X338862Y366500D02*
X338961Y366402D01*
Y358598D02*
Y366402D01*
X363000Y358106D02*
X363138Y358244D01*
Y364500D01*
D18*
X316059Y351000D02*
D03*
X310941D02*
D03*
X343369Y347337D02*
D03*
X348487D02*
D03*
X301059Y457000D02*
D03*
X295941D02*
D03*
X339059Y358500D02*
D03*
X333941D02*
D03*
X286720Y442075D02*
D03*
X291839D02*
D03*
X369059Y318500D02*
D03*
X363941D02*
D03*
X307500Y310000D02*
D03*
X302382D02*
D03*
D19*
X341000Y378594D02*
D03*
Y380563D02*
D03*
Y382531D02*
D03*
Y384500D02*
D03*
Y386469D02*
D03*
Y388437D02*
D03*
Y390406D02*
D03*
Y392374D02*
D03*
Y394342D02*
D03*
Y396311D02*
D03*
Y398280D02*
D03*
Y400248D02*
D03*
X314032D02*
D03*
Y398280D02*
D03*
Y396311D02*
D03*
Y394342D02*
D03*
Y392374D02*
D03*
Y390406D02*
D03*
Y388437D02*
D03*
Y386469D02*
D03*
Y384500D02*
D03*
Y382531D02*
D03*
Y380563D02*
D03*
Y378594D02*
D03*
X316453Y337890D02*
D03*
Y335921D02*
D03*
Y333953D02*
D03*
Y331984D02*
D03*
Y330016D02*
D03*
Y328047D02*
D03*
Y326079D02*
D03*
Y324110D02*
D03*
X335547D02*
D03*
Y326079D02*
D03*
Y328047D02*
D03*
Y330016D02*
D03*
Y331984D02*
D03*
Y333953D02*
D03*
Y335921D02*
D03*
Y337890D02*
D03*
D20*
X338342Y402906D02*
D03*
X336374D02*
D03*
X334405D02*
D03*
X332437D02*
D03*
X330469D02*
D03*
X328500D02*
D03*
X326532D02*
D03*
X324563D02*
D03*
X322594D02*
D03*
X320626D02*
D03*
X318657D02*
D03*
X316689D02*
D03*
Y375937D02*
D03*
X318657D02*
D03*
X320626D02*
D03*
X322594D02*
D03*
X324563D02*
D03*
X326532D02*
D03*
X328500D02*
D03*
X330469D02*
D03*
X332437D02*
D03*
X334405D02*
D03*
X336374D02*
D03*
X338342D02*
D03*
X319110Y321453D02*
D03*
X321079D02*
D03*
X323047D02*
D03*
X325016D02*
D03*
X326984D02*
D03*
X328953D02*
D03*
X330921D02*
D03*
X332890D02*
D03*
Y340547D02*
D03*
X330921D02*
D03*
X328953D02*
D03*
X326984D02*
D03*
X325016D02*
D03*
X323047D02*
D03*
X321079D02*
D03*
X319110D02*
D03*
D21*
X327516Y389421D02*
D03*
D22*
X377000Y273000D02*
D03*
X272500D02*
D03*
D23*
X322929Y483787D02*
D03*
X330803D02*
D03*
D24*
X321748Y473158D02*
D03*
X324307D02*
D03*
X326866D02*
D03*
X329425D02*
D03*
X331984D02*
D03*
D25*
X326000Y331000D02*
D03*
D26*
X328500Y449000D02*
D03*
X344248D02*
D03*
X328626Y434500D02*
D03*
X344374D02*
D03*
D27*
X261240Y401375D02*
D03*
X257500D02*
D03*
X253760D02*
D03*
Y390625D02*
D03*
X257500D02*
D03*
X261240D02*
D03*
D28*
X365500Y396941D02*
D03*
Y402059D02*
D03*
X283000Y417559D02*
D03*
Y412441D02*
D03*
X268000Y374000D02*
D03*
Y368882D02*
D03*
X260000Y368941D02*
D03*
Y374059D02*
D03*
X283000Y423000D02*
D03*
Y428118D02*
D03*
X319280Y434575D02*
D03*
Y429457D02*
D03*
X311280Y434634D02*
D03*
Y429516D02*
D03*
X365500Y417559D02*
D03*
Y412441D02*
D03*
X370500Y463441D02*
D03*
Y468559D02*
D03*
X378000Y463382D02*
D03*
Y468500D02*
D03*
X345500Y319059D02*
D03*
Y313941D02*
D03*
D29*
X357500Y397000D02*
D03*
Y401724D02*
D03*
X349000Y397138D02*
D03*
Y401862D02*
D03*
X304000Y347362D02*
D03*
Y342638D02*
D03*
X301500Y378638D02*
D03*
Y383362D02*
D03*
X394000Y451862D02*
D03*
Y447138D02*
D03*
X348000Y280138D02*
D03*
Y284862D02*
D03*
X329000D02*
D03*
Y280138D02*
D03*
X338500D02*
D03*
Y284862D02*
D03*
X304000Y331638D02*
D03*
Y336362D02*
D03*
X300500Y284862D02*
D03*
Y280138D02*
D03*
X310000Y284862D02*
D03*
Y280138D02*
D03*
X319500Y284724D02*
D03*
Y280000D02*
D03*
D30*
X282000Y344248D02*
D03*
Y328500D02*
D03*
D31*
X295000Y423500D02*
D03*
D32*
X291280Y426650D02*
D03*
Y425075D02*
D03*
Y423500D02*
D03*
Y421925D02*
D03*
Y420350D02*
D03*
X298721Y426650D02*
D03*
Y425075D02*
D03*
Y423500D02*
D03*
Y421925D02*
D03*
Y420350D02*
D03*
D33*
X286917Y434575D02*
D03*
X291642D02*
D03*
X367862Y364500D02*
D03*
X363138D02*
D03*
X363000Y390000D02*
D03*
X367724D02*
D03*
X304142Y434575D02*
D03*
X299417D02*
D03*
X314362Y410000D02*
D03*
X309638D02*
D03*
X334138Y366500D02*
D03*
X338862D02*
D03*
X369638Y326500D02*
D03*
X374362D02*
D03*
X328138Y301500D02*
D03*
X332862D02*
D03*
X353138Y318500D02*
D03*
X357862D02*
D03*
X358362Y310500D02*
D03*
X353638D02*
D03*
X369638Y347500D02*
D03*
X374362D02*
D03*
X317138Y301500D02*
D03*
X321862D02*
D03*
D34*
X311779Y424528D02*
D03*
Y418622D02*
D03*
X318280Y424480D02*
D03*
Y418575D02*
D03*
X378000Y474047D02*
D03*
Y479953D02*
D03*
X370500Y474094D02*
D03*
Y480000D02*
D03*
D35*
X310669Y452740D02*
D03*
Y445260D02*
D03*
X319331Y449000D02*
D03*
D36*
X267750Y361400D02*
D03*
X260250D02*
D03*
X264000Y353600D02*
D03*
D37*
Y343390D02*
D03*
Y329610D02*
D03*
D38*
X368693Y372839D02*
D03*
Y381500D02*
D03*
X362000D02*
D03*
Y372839D02*
D03*
D39*
X362390Y332500D02*
D03*
Y341555D02*
D03*
X355500D02*
D03*
Y332500D02*
D03*
D40*
X322500Y314098D02*
D03*
Y308902D02*
D03*
X328000Y314098D02*
D03*
Y308902D02*
D03*
D41*
X394500Y396590D02*
D03*
D42*
Y360409D02*
D03*
D43*
X402673Y420405D02*
D03*
X374327D02*
D03*
X402673Y408595D02*
D03*
X374327D02*
D03*
D44*
X393500Y435000D02*
D03*
Y440512D02*
D03*
D45*
X359984Y443000D02*
D03*
D46*
X383016Y452055D02*
D03*
Y443000D02*
D03*
Y433945D02*
D03*
D49*
X254000Y416500D02*
D03*
Y436500D02*
D03*
D50*
X336709Y473158D02*
D03*
X317024D02*
D03*
D51*
X255850Y409500D02*
D03*
X257500Y396500D02*
D03*
X254500Y361500D02*
D03*
Y374000D02*
D03*
X306500Y383500D02*
D03*
X316388Y369032D02*
D03*
X322500Y363500D02*
D03*
X322094Y369500D02*
D03*
X311500Y378000D02*
D03*
X402000Y360500D02*
D03*
X362500Y346500D02*
D03*
X363000Y358000D02*
D03*
X379000Y347500D02*
D03*
X309000Y390500D02*
D03*
Y396000D02*
D03*
X278953Y420441D02*
D03*
X283500Y408500D02*
D03*
X259000Y409500D02*
D03*
X296000Y442000D02*
D03*
X290500Y457000D02*
D03*
X278953Y412470D02*
D03*
X278500Y408500D02*
D03*
X279223Y426213D02*
D03*
X299500Y374000D02*
D03*
X343500Y405760D02*
D03*
X339500Y427500D02*
D03*
X383500Y480000D02*
D03*
X399500Y447000D02*
D03*
X393500Y430500D02*
D03*
X357500Y406500D02*
D03*
X365500Y416500D02*
D03*
X374500Y402000D02*
D03*
X374000Y390000D02*
D03*
X347000Y394000D02*
D03*
Y377000D02*
D03*
X379000Y326500D02*
D03*
X335000Y311000D02*
D03*
X334500Y317500D02*
D03*
X319500D02*
D03*
X316500Y315000D02*
D03*
X304000Y328500D02*
D03*
X274000Y357000D02*
D03*
X304000Y351500D02*
D03*
X313000Y335000D02*
D03*
X296000Y329500D02*
D03*
X325000Y345000D02*
D03*
X319000Y344500D02*
D03*
X339000Y353500D02*
D03*
X341000Y340000D02*
D03*
X311500Y328000D02*
D03*
X327642Y421916D02*
D03*
X309500Y400500D02*
D03*
X303500Y420500D02*
D03*
X304000Y441500D02*
D03*
X300500Y402000D02*
D03*
X327000Y425000D02*
D03*
X329969Y428000D02*
D03*
X309569Y405069D02*
D03*
X329031Y465724D02*
D03*
X324888Y317500D02*
D03*
X325909Y466137D02*
D03*
X321500Y467500D02*
D03*
X329825Y317319D02*
D03*
X334500Y425000D02*
D03*
X327500Y442000D02*
D03*
D52*
X336177Y380760D02*
D03*
X331846D02*
D03*
X327516D02*
D03*
X323185D02*
D03*
X318854D02*
D03*
X336177Y385090D02*
D03*
X331846D02*
D03*
X327516D02*
D03*
X323185D02*
D03*
X318854D02*
D03*
X336177Y389421D02*
D03*
X331846D02*
D03*
X327516D02*
D03*
X323185D02*
D03*
X318854D02*
D03*
X336177Y393752D02*
D03*
X331846D02*
D03*
X327516D02*
D03*
X323185D02*
D03*
X318854D02*
D03*
X336177Y398083D02*
D03*
X331846D02*
D03*
X327516D02*
D03*
X323185D02*
D03*
X318854D02*
D03*
X321669Y335331D02*
D03*
X326000D02*
D03*
X330331D02*
D03*
X321669Y331000D02*
D03*
X326000D02*
D03*
X330331D02*
D03*
X321669Y326669D02*
D03*
X326000D02*
D03*
X330331D02*
D03*
D53*
X317000Y116000D02*
D03*
X331500Y131500D02*
D03*
D54*
X335547Y339516D02*
Y351906D01*
X338773Y342741D02*
X339068D01*
X343369Y347042D02*
Y347337D01*
X339068Y342741D02*
X343369Y347042D01*
X335547Y339516D02*
X338773Y342741D01*
X335547Y337890D02*
Y339516D01*
X319747Y351000D02*
X322397Y348350D01*
X316059Y351000D02*
X319747D01*
X314032Y380563D02*
X318657D01*
X307500Y310000D02*
Y310295D01*
X304000Y331638D02*
X304339Y331976D01*
X316445D01*
X311500Y328000D02*
X311539Y328039D01*
X307500Y310295D02*
X317484Y320280D01*
X311539Y328039D02*
X316445D01*
Y328055D02*
X316453Y328047D01*
X316445Y331976D02*
X316453Y331984D01*
X316445Y328039D02*
X316453Y328047D01*
X316500Y315000D02*
X316750D01*
X319250Y317500D01*
X317484Y320280D02*
X319102D01*
X319110Y320287D01*
Y321453D01*
X319250Y317500D02*
X319500D01*
Y317869D01*
X320713Y319081D01*
Y319348D01*
X321071Y319706D01*
Y321445D01*
X321079Y321453D01*
X322419Y316477D02*
Y318523D01*
Y316477D02*
X322500Y316397D01*
Y314098D02*
Y316397D01*
X322419Y318523D02*
X323039Y319143D01*
Y321445D01*
X323047Y321453D01*
X316453Y330016D02*
Y331984D01*
X318657Y380563D02*
X318854Y380760D01*
X324563Y365563D02*
Y375937D01*
X322500Y363500D02*
X324563Y365563D01*
X337693Y321453D02*
X345205Y313941D01*
X340154Y324110D02*
X345205Y319059D01*
Y313941D02*
X345500D01*
X345205Y319059D02*
X345500D01*
X346059Y318500D01*
X345500Y313941D02*
X350492D01*
X346059Y318500D02*
X353138D01*
X350492Y313941D02*
X353638Y310795D01*
X327356Y314742D02*
Y318523D01*
Y314742D02*
X328000Y314098D01*
X326866Y473158D02*
X327153Y472870D01*
X326470Y468368D02*
X327252Y469150D01*
Y470414D01*
X327153Y470513D02*
X327252Y470414D01*
X325909Y466137D02*
Y466505D01*
X326470Y467066D01*
Y468368D01*
X327153Y470513D02*
Y472870D01*
X320618Y402913D02*
X320626Y402906D01*
X296000Y366239D02*
X312284Y382524D01*
X268000Y374000D02*
X299500D01*
X344762Y402414D02*
X354788Y412441D01*
X378000Y468500D02*
Y474047D01*
X370248Y463189D02*
X370500Y463441D01*
Y468559D02*
Y474094D01*
Y463441D02*
X370795D01*
X371870Y462366D01*
Y460937D02*
Y462366D01*
X330500Y317500D02*
X330761Y317239D01*
X336374Y402906D02*
Y423082D01*
X334405Y402906D02*
Y413402D01*
X296000Y329500D02*
Y366239D01*
X267441Y368941D02*
X267750Y368632D01*
X268000Y374000D02*
X268000Y374000D01*
X264000Y343390D02*
Y353600D01*
X281142Y343390D02*
X282000Y344248D01*
X264000Y343390D02*
X281142D01*
X254550Y361450D02*
X260200D01*
X267750Y361400D02*
Y368632D01*
X254500Y374000D02*
X259941D01*
X260000Y368941D02*
X267441D01*
X260200Y361450D02*
X260250Y361400D01*
X254500Y361500D02*
X254550Y361450D01*
X329138Y472870D02*
X329425Y473158D01*
X328470Y466654D02*
X329031Y466093D01*
X329039Y468409D02*
Y470414D01*
X328470Y466654D02*
Y467840D01*
X329039Y468409D01*
Y470414D02*
X329138Y470513D01*
X329031Y465724D02*
Y466093D01*
X329138Y470513D02*
Y472870D01*
X311418Y391500D02*
X312284Y392366D01*
X309680Y396311D02*
X314032D01*
X310834Y394342D02*
X314032D01*
X312284Y392366D02*
X314024D01*
X314032Y392374D01*
X318657Y398280D02*
X318854Y398083D01*
X302261Y412862D02*
X316290D01*
X292657Y394342D02*
X307167D01*
X310369Y391500D02*
X311418D01*
X307167Y394342D02*
X307978Y393531D01*
X310022D01*
X309000Y390500D02*
X309369D01*
X309000Y396000D02*
X309369D01*
X309680Y396311D01*
X309369Y390500D02*
X310369Y391500D01*
X310022Y393531D02*
X310834Y394342D01*
X318301Y405766D02*
X319505D01*
X314362Y409705D02*
X318301Y405766D01*
X316290Y412862D02*
X317531Y411621D01*
X314362Y409705D02*
Y410000D01*
X309569Y409931D02*
X309638Y410000D01*
X309569Y405069D02*
Y409931D01*
X317531Y409478D02*
Y411621D01*
Y409478D02*
X319231Y407778D01*
X283500Y408500D02*
X297898D01*
X302261Y412862D01*
X327500Y442000D02*
X330936D01*
X336619Y436317D01*
Y430381D02*
Y436317D01*
Y430381D02*
X339500Y427500D01*
X329969Y428000D02*
X330110Y427858D01*
X374327Y420405D02*
X402673D01*
X380752Y452055D02*
X383016D01*
X371870Y460937D02*
X380752Y452055D01*
X365500Y412441D02*
X365795D01*
X371504Y418150D01*
X372071D01*
X374327Y420405D01*
X354788Y412441D02*
X365500D01*
X319231Y407778D02*
X320895D01*
X322594Y406079D01*
X321374Y411474D02*
X326532Y406316D01*
X321374Y411474D02*
Y419374D01*
X334500Y424956D02*
Y425000D01*
Y424956D02*
X336374Y423082D01*
X321374Y419374D02*
X327000Y425000D01*
X330110Y420894D02*
Y427858D01*
X329862Y420646D02*
X330110Y420894D01*
X327642Y421916D02*
X327902Y421656D01*
Y419589D02*
Y421656D01*
X331429Y410378D02*
Y415723D01*
X327902Y419589D02*
X328969Y418523D01*
Y418184D02*
X331429Y415723D01*
X328969Y418184D02*
Y418523D01*
X329862Y420646D02*
X333217Y417292D01*
Y414591D02*
X334405Y413402D01*
X330469Y409417D02*
X331429Y410378D01*
X333217Y414591D02*
Y417292D01*
X343131Y405760D02*
X343500D01*
X320618Y402913D02*
Y404653D01*
X318657Y398280D02*
Y402906D01*
X319505Y405766D02*
X320618Y404653D01*
X322594Y402906D02*
Y406079D01*
X326532Y402906D02*
Y406316D01*
Y402906D02*
X326539Y402913D01*
X330469Y402906D02*
Y409417D01*
X312284Y382524D02*
X314024D01*
X362498Y386728D02*
Y389498D01*
X363000Y390000D01*
X357205Y397000D02*
X357500D01*
X350610Y390406D02*
X357205Y397000D01*
X357500D02*
X365441D01*
X365500Y396941D01*
X365850Y396590D01*
X394500D01*
X364272Y377654D02*
X368693Y373232D01*
X367862Y364500D02*
Y372008D01*
X368693Y372839D01*
Y373232D01*
X336177Y393752D02*
X337555Y392374D01*
X341000Y398280D02*
X341008Y398287D01*
X341000Y400248D02*
Y404000D01*
Y388437D02*
X347683D01*
X337555Y392374D02*
X341000D01*
X316689Y369701D02*
Y375937D01*
X314024Y382524D02*
X314032Y382531D01*
X316388Y369400D02*
X316689Y369701D01*
X316388Y369032D02*
Y369400D01*
X322094Y369869D02*
X322594Y370369D01*
X322094Y369500D02*
Y369869D01*
X322594Y370369D02*
Y375937D01*
X342747Y398287D02*
X344762Y400302D01*
X341000Y390406D02*
X350610D01*
X341008Y398287D02*
X342747D01*
X342079Y404707D02*
X343131Y405760D01*
X344762Y400302D02*
Y402414D01*
X341707Y404707D02*
X342079D01*
X341000Y404000D02*
X341707Y404707D01*
X256606Y404976D02*
Y406216D01*
X253760Y401375D02*
Y402200D01*
X255241Y403681D01*
Y403683D01*
X255948Y404390D01*
X256020D01*
X256606Y404976D01*
X256532Y406291D02*
X256606Y406216D01*
X256532Y406291D02*
Y408450D01*
X259759Y403681D02*
Y403683D01*
Y403681D02*
X261240Y402200D01*
Y401375D02*
Y402200D01*
X286917Y434279D02*
Y434575D01*
X278500Y408500D02*
X292657Y394342D01*
X258394Y404976D02*
Y406957D01*
Y404976D02*
X258980Y404390D01*
X258319Y407031D02*
Y408450D01*
Y407031D02*
X258394Y406957D01*
X258980Y404390D02*
X259052D01*
X259759Y403683D01*
X330761Y315239D02*
Y317239D01*
Y315239D02*
X335000Y311000D01*
X338362Y307638D01*
X330921Y320287D02*
Y321453D01*
Y320287D02*
X331307Y319901D01*
Y319328D02*
Y319901D01*
Y319328D02*
X331946Y318689D01*
X332942D01*
X334131Y317500D01*
X334500D01*
X332890Y321453D02*
X337693D01*
X336720Y324110D02*
X340154D01*
X338362Y307638D02*
X355795D01*
X349539Y328850D02*
X359232D01*
X353638Y310500D02*
Y310795D01*
X358362Y310205D02*
Y310500D01*
X355795Y307638D02*
X358362Y310205D01*
X357862Y318500D02*
X363941D01*
X364449Y330441D02*
X367118Y327772D01*
X368661D01*
X369638Y326795D01*
Y326500D02*
Y326795D01*
X328500Y358954D02*
X335547Y351906D01*
Y335921D02*
X335555Y335929D01*
X337294D01*
X335547Y333953D02*
X341522D01*
X337294Y335929D02*
X341000Y339635D01*
X335547Y331984D02*
X346406D01*
X341000Y339635D02*
Y340000D01*
X326532Y352485D02*
Y375937D01*
X328500Y358954D02*
Y375937D01*
X330469Y362268D02*
Y375937D01*
Y362268D02*
X333941Y358795D01*
Y358500D02*
Y358795D01*
X341522Y333953D02*
X349124Y341555D01*
X346406Y331984D02*
X349539Y328850D01*
X349124Y341555D02*
X355500D01*
Y342047D01*
X360032Y346579D01*
Y347522D01*
X361477Y348969D01*
X359232Y328850D02*
X362390Y332008D01*
Y332500D01*
X361477Y348969D02*
X364335D01*
X362390Y332008D02*
X363957Y330441D01*
X364449D01*
X364335Y348969D02*
X365804Y347500D01*
X369638D01*
X329825Y317319D02*
X330005Y317500D01*
X326984Y321453D02*
X326992Y321445D01*
Y318886D02*
Y321445D01*
Y318886D02*
X327356Y318523D01*
X328953Y321453D02*
X328961Y321445D01*
Y319446D02*
Y321445D01*
Y319446D02*
X329520Y318887D01*
Y318480D02*
Y318887D01*
Y318480D02*
X330500Y317500D01*
X325016Y340547D02*
X326984D01*
X323047D02*
X325016D01*
X325008Y340555D02*
Y344992D01*
Y340555D02*
X325016Y340547D01*
X319000Y344500D02*
X319102Y344398D01*
X321087Y340555D02*
Y343096D01*
X321079Y340547D02*
X321087Y340555D01*
X322397Y344406D02*
Y348350D01*
X325000Y345000D02*
X325008Y344992D01*
X322397Y348350D02*
X326532Y352485D01*
X321087Y343096D02*
X322397Y344406D01*
X362000Y386230D02*
X362498Y386728D01*
X347683Y388437D02*
X354620Y381500D01*
X347124Y386469D02*
X355939Y377654D01*
X354620Y381500D02*
X362000D01*
X355939Y377654D02*
X364272D01*
X362000Y381500D02*
Y386230D01*
X336177Y380760D02*
X336374Y380563D01*
Y375937D02*
Y380563D01*
X341000Y386469D02*
X347124D01*
X330005Y317500D02*
X330500D01*
X319102Y340555D02*
Y344398D01*
Y340555D02*
X319110Y340547D01*
D55*
X377000Y273000D02*
X394000D01*
X403500Y263500D01*
X393500Y130500D02*
Y258000D01*
X389000Y262500D02*
X393500Y258000D01*
X262500Y262500D02*
X389000D01*
X256500Y256500D02*
X262500Y262500D01*
X256500Y130500D02*
Y256500D01*
X327000Y121000D02*
X392000D01*
X398500Y127500D01*
Y260500D01*
X391000Y268000D02*
X398500Y260500D01*
X259000Y268000D02*
X391000D01*
X251500Y260500D02*
X259000Y268000D01*
X251500Y128000D02*
Y260500D01*
X324500Y116000D02*
X325000D01*
X246500Y194500D02*
Y263500D01*
Y125500D02*
Y194500D01*
X403500D02*
Y263500D01*
Y125500D02*
Y194500D01*
X394000Y116000D02*
X403500Y125500D01*
X325000Y116000D02*
X394000D01*
X246500Y125500D02*
X256000Y116000D01*
X317000D01*
X246500Y263500D02*
X256000Y273000D01*
X272500D01*
X251500Y128000D02*
X258000Y121500D01*
X319000D01*
X324500Y116000D01*
X256500Y130500D02*
X260500Y126500D01*
X321500D01*
X327000Y121000D01*
X261500Y134000D02*
X264000Y131500D01*
X261500Y134000D02*
Y254000D01*
X331500Y131500D02*
X386000D01*
X261500Y254000D02*
X265000Y257500D01*
X385000D01*
X388500Y254000D01*
Y134000D02*
Y254000D01*
X386000Y131500D02*
X388500Y134000D01*
X264000Y131500D02*
X323500D01*
X328500Y126500D01*
X330500D01*
X389500D01*
X393500Y130500D01*
X300638Y280000D02*
X319500D01*
X293362Y273000D02*
X300500Y280138D01*
X272500Y273000D02*
X293362D01*
X300500Y280138D02*
X300638Y280000D01*
X319500Y284724D02*
X322500Y287724D01*
Y308902D01*
X328138Y285724D02*
Y301500D01*
Y285724D02*
X329000Y284862D01*
X328000Y301638D02*
Y308902D01*
Y301638D02*
X328138Y301500D01*
X369059Y286921D02*
Y318500D01*
X338500Y280138D02*
X348000D01*
X355138Y273000D01*
X369059Y286921D01*
X355138Y273000D02*
X377000D01*
X329000Y280138D02*
X338500D01*
D56*
X253315Y478500D02*
D03*
X263158D02*
D03*
D57*
X273000D02*
D03*
M02*
