G04*
G04 #@! TF.GenerationSoftware,Altium Limited,Altium Designer,23.10.1 (27)*
G04*
G04 Layer_Color=16711935*
%FSLAX25Y25*%
%MOIN*%
G70*
G04*
G04 #@! TF.SameCoordinates,1D9EF59F-A9A3-4DE6-AF9F-94A01C22AB5E*
G04*
G04*
G04 #@! TF.FilePolarity,Negative*
G04*
G01*
G75*
%ADD18R,0.03150X0.03740*%
%ADD28R,0.03740X0.03150*%
%ADD33R,0.02953X0.03543*%
%ADD47C,0.05128*%
%ADD48R,0.05128X0.05128*%
%ADD49C,0.05100*%
%ADD50C,0.05709*%
%ADD51C,0.02362*%
%ADD52C,0.01968*%
%ADD53C,0.04724*%
%ADD58R,0.03300X0.01600*%
%ADD59R,0.01400X0.03300*%
%ADD60R,0.12520X0.05000*%
%ADD61R,0.16929X0.13386*%
%ADD62R,0.01772X0.03740*%
%ADD63R,0.04331X0.05315*%
D18*
X278941Y357000D02*
D03*
X284059D02*
D03*
X289500D02*
D03*
X294618D02*
D03*
X290059Y414000D02*
D03*
X284941D02*
D03*
D28*
X365500Y443441D02*
D03*
Y448559D02*
D03*
Y426118D02*
D03*
Y421000D02*
D03*
Y432441D02*
D03*
Y437559D02*
D03*
D33*
X314776Y403500D02*
D03*
X319500D02*
D03*
X313638Y311000D02*
D03*
X318362D02*
D03*
X295638Y422500D02*
D03*
X300362D02*
D03*
X329862Y311000D02*
D03*
X325138D02*
D03*
X295638Y414000D02*
D03*
X300362D02*
D03*
X343362Y409500D02*
D03*
X338638D02*
D03*
X355362Y418000D02*
D03*
X350638D02*
D03*
X343500D02*
D03*
X338776D02*
D03*
X327776D02*
D03*
X332500D02*
D03*
X327638Y409500D02*
D03*
X332362D02*
D03*
D47*
X253315Y478500D02*
D03*
X263158D02*
D03*
D48*
X273000D02*
D03*
D49*
X254000Y416500D02*
D03*
Y436500D02*
D03*
D50*
X336709Y473158D02*
D03*
X317024D02*
D03*
D51*
X255850Y409500D02*
D03*
X257500Y396500D02*
D03*
X254500Y361500D02*
D03*
Y374000D02*
D03*
X306500Y383500D02*
D03*
X316388Y369032D02*
D03*
X322500Y363500D02*
D03*
X322094Y369500D02*
D03*
X311500Y378000D02*
D03*
X402000Y360500D02*
D03*
X362500Y346500D02*
D03*
X363000Y358000D02*
D03*
X379000Y347500D02*
D03*
X309000Y390500D02*
D03*
Y396000D02*
D03*
X278953Y420441D02*
D03*
X283500Y408500D02*
D03*
X259000Y409500D02*
D03*
X296000Y442000D02*
D03*
X290500Y457000D02*
D03*
X278953Y412470D02*
D03*
X278500Y408500D02*
D03*
X279223Y426213D02*
D03*
X299500Y374000D02*
D03*
X343500Y405760D02*
D03*
X339500Y427500D02*
D03*
X383500Y480000D02*
D03*
X399500Y447000D02*
D03*
X393500Y430500D02*
D03*
X357500Y406500D02*
D03*
X365500Y416500D02*
D03*
X374500Y402000D02*
D03*
X374000Y390000D02*
D03*
X347000Y394000D02*
D03*
Y377000D02*
D03*
X379000Y326500D02*
D03*
X335000Y311000D02*
D03*
X334500Y317500D02*
D03*
X319500D02*
D03*
X316500Y315000D02*
D03*
X304000Y328500D02*
D03*
X274000Y357000D02*
D03*
X304000Y351500D02*
D03*
X313000Y335000D02*
D03*
X296000Y329500D02*
D03*
X325000Y345000D02*
D03*
X319000Y344500D02*
D03*
X339000Y353500D02*
D03*
X341000Y340000D02*
D03*
X311500Y328000D02*
D03*
X327642Y421916D02*
D03*
X309500Y400500D02*
D03*
X303500Y420500D02*
D03*
X304000Y441500D02*
D03*
X300500Y402000D02*
D03*
X327000Y425000D02*
D03*
X329969Y428000D02*
D03*
X309569Y405069D02*
D03*
X329031Y465724D02*
D03*
X324888Y317500D02*
D03*
X325909Y466137D02*
D03*
X321500Y467500D02*
D03*
X329825Y317319D02*
D03*
X334500Y425000D02*
D03*
X327500Y442000D02*
D03*
D52*
X336177Y380760D02*
D03*
X331846D02*
D03*
X327516D02*
D03*
X323185D02*
D03*
X318854D02*
D03*
X336177Y385090D02*
D03*
X331846D02*
D03*
X327516D02*
D03*
X323185D02*
D03*
X318854D02*
D03*
X336177Y389421D02*
D03*
X331846D02*
D03*
X327516D02*
D03*
X323185D02*
D03*
X318854D02*
D03*
X336177Y393752D02*
D03*
X331846D02*
D03*
X327516D02*
D03*
X323185D02*
D03*
X318854D02*
D03*
X336177Y398083D02*
D03*
X331846D02*
D03*
X327516D02*
D03*
X323185D02*
D03*
X318854D02*
D03*
X321669Y335331D02*
D03*
X326000D02*
D03*
X330331D02*
D03*
X321669Y331000D02*
D03*
X326000D02*
D03*
X330331D02*
D03*
X321669Y326669D02*
D03*
X326000D02*
D03*
X330331D02*
D03*
D53*
X317000Y116000D02*
D03*
X331500Y131500D02*
D03*
D58*
X353976Y441646D02*
D03*
X314803D02*
D03*
D59*
X349153Y432000D02*
D03*
X347185D02*
D03*
X345216D02*
D03*
X343248D02*
D03*
X341280D02*
D03*
X339311D02*
D03*
X337343D02*
D03*
X335374D02*
D03*
X333405D02*
D03*
X331437D02*
D03*
X329468D02*
D03*
X327500D02*
D03*
X325532D02*
D03*
X323563D02*
D03*
X321595D02*
D03*
X319626D02*
D03*
D60*
X290769Y334500D02*
D03*
Y344500D02*
D03*
Y324500D02*
D03*
Y314500D02*
D03*
D61*
X286000Y386500D02*
D03*
D62*
X278500Y401736D02*
D03*
X283500D02*
D03*
X288500D02*
D03*
X293500D02*
D03*
X278500Y371264D02*
D03*
X283500D02*
D03*
X288500D02*
D03*
X293500D02*
D03*
D63*
X320000Y418000D02*
D03*
X314488D02*
D03*
X320000Y410500D02*
D03*
X314488D02*
D03*
M02*
