G04*
G04 #@! TF.GenerationSoftware,Altium Limited,Altium Designer,23.10.1 (27)*
G04*
G04 Layer_Color=65535*
%FSLAX25Y25*%
%MOIN*%
G70*
G04*
G04 #@! TF.SameCoordinates,1D9EF59F-A9A3-4DE6-AF9F-94A01C22AB5E*
G04*
G04*
G04 #@! TF.FilePolarity,Positive*
G04*
G01*
G75*
%ADD10C,0.00984*%
%ADD11C,0.02000*%
%ADD12C,0.00394*%
%ADD13C,0.00787*%
%ADD14C,0.00600*%
%ADD15C,0.01575*%
%ADD16C,0.00591*%
G36*
X370476Y240766D02*
X353776D01*
Y244344D01*
X370476D01*
Y240766D01*
D02*
G37*
G36*
X368686Y231522D02*
X353776D01*
Y235100D01*
X368686D01*
Y231522D01*
D02*
G37*
G36*
X348707Y243748D02*
X348409D01*
Y243152D01*
X348111D01*
Y242257D01*
X347812D01*
Y241661D01*
X347514D01*
Y240766D01*
X347216D01*
Y240170D01*
X346918D01*
Y239573D01*
X346620D01*
Y238679D01*
X346321D01*
Y238082D01*
X346023D01*
Y237188D01*
X345725D01*
Y236591D01*
X345427D01*
Y235697D01*
X345128D01*
Y235100D01*
X344830D01*
Y234206D01*
X344532D01*
Y233609D01*
X344234D01*
Y232715D01*
X343936D01*
Y232118D01*
X343637D01*
Y231224D01*
X343339D01*
Y230627D01*
X343041D01*
Y230031D01*
X342743D01*
Y229136D01*
X342445D01*
Y228540D01*
X342146D01*
Y227645D01*
X341848D01*
Y227347D01*
X341550D01*
Y228242D01*
X341252D01*
Y228838D01*
X340954D01*
Y229733D01*
X340655D01*
Y230329D01*
X340357D01*
Y231224D01*
X340059D01*
Y232118D01*
X339761D01*
Y232715D01*
X340059D01*
Y233609D01*
X340357D01*
Y234206D01*
X340655D01*
Y234802D01*
X340954D01*
Y235697D01*
X341252D01*
Y236293D01*
X341550D01*
Y237188D01*
X341848D01*
Y237784D01*
X342146D01*
Y238679D01*
X342445D01*
Y239275D01*
X342743D01*
Y239872D01*
X343041D01*
Y240766D01*
X343339D01*
Y241363D01*
X343637D01*
Y242257D01*
X343936D01*
Y242853D01*
X344234D01*
Y243748D01*
X344532D01*
Y244344D01*
X348707D01*
Y243748D01*
D02*
G37*
G36*
X370476Y221979D02*
X353776D01*
Y225558D01*
X370476D01*
Y221979D01*
D02*
G37*
G36*
X331710Y243450D02*
X332008D01*
Y242853D01*
X332306D01*
Y241959D01*
X332604D01*
Y241064D01*
X332902D01*
Y240468D01*
X333201D01*
Y239573D01*
X333499D01*
Y238679D01*
X333797D01*
Y238082D01*
X334095D01*
Y237188D01*
X334393D01*
Y236591D01*
X334692D01*
Y235697D01*
X334990D01*
Y234802D01*
X335288D01*
Y234206D01*
X335586D01*
Y233311D01*
X335884D01*
Y232416D01*
X336182D01*
Y231522D01*
X336481D01*
Y231224D01*
Y230627D01*
X336779D01*
Y230031D01*
X337077D01*
Y229136D01*
X337375D01*
Y228242D01*
X337673D01*
Y227347D01*
X337972D01*
Y226452D01*
X338270D01*
Y225856D01*
X338568D01*
Y224961D01*
X338866D01*
Y224067D01*
X339164D01*
Y223172D01*
X339463D01*
Y222278D01*
X339761D01*
Y221979D01*
X335288D01*
Y222874D01*
X334990D01*
Y223769D01*
X334692D01*
Y224365D01*
X334393D01*
Y225260D01*
X334095D01*
Y226154D01*
X333797D01*
Y227049D01*
X333499D01*
Y227645D01*
X333201D01*
Y228540D01*
X332902D01*
Y229434D01*
X332604D01*
Y230031D01*
X332306D01*
Y230925D01*
X332008D01*
Y231820D01*
X331710D01*
Y232715D01*
X331411D01*
Y233311D01*
X331113D01*
Y234206D01*
X330815D01*
Y235100D01*
X330517D01*
Y235995D01*
X330219D01*
Y236890D01*
X329920D01*
Y237486D01*
X329622D01*
Y238381D01*
X329324D01*
Y239275D01*
X329026D01*
Y240170D01*
X328728D01*
Y240766D01*
X328429D01*
Y241661D01*
X328131D01*
Y242555D01*
X327833D01*
Y243450D01*
X327535D01*
Y244046D01*
X327237D01*
Y244344D01*
X331710D01*
Y243450D01*
D02*
G37*
G36*
X323360Y242555D02*
Y242257D01*
Y221979D01*
X319483D01*
Y231522D01*
X312625D01*
Y235100D01*
X319483D01*
Y244344D01*
X323360D01*
Y242555D01*
D02*
G37*
G36*
X308748Y221979D02*
X304872D01*
Y237188D01*
Y237486D01*
Y244344D01*
X308748D01*
Y221979D01*
D02*
G37*
G36*
X378229Y218699D02*
X378825D01*
Y218401D01*
X379123D01*
Y217805D01*
X378229D01*
Y218103D01*
X377632D01*
Y218401D01*
X377334D01*
Y218103D01*
X376738D01*
Y217805D01*
X376440D01*
Y217208D01*
X376141D01*
Y216910D01*
X376440D01*
Y216015D01*
X376738D01*
Y215717D01*
X378229D01*
Y216015D01*
X378527D01*
Y216612D01*
X377632D01*
Y217208D01*
X379422D01*
Y214823D01*
X378825D01*
Y215419D01*
X378527D01*
Y215121D01*
X377931D01*
Y214823D01*
X376738D01*
Y215121D01*
X376141D01*
Y215419D01*
X375843D01*
Y216015D01*
X375545D01*
Y217805D01*
X375843D01*
Y218401D01*
X376141D01*
Y218699D01*
X376738D01*
Y218997D01*
X378229D01*
Y218699D01*
D02*
G37*
G36*
X350794D02*
X351093D01*
Y218401D01*
X351391D01*
Y217805D01*
X350794D01*
Y218103D01*
X350198D01*
Y218401D01*
X349602D01*
Y218103D01*
X349005D01*
Y217805D01*
X348707D01*
Y216314D01*
X349005D01*
Y215717D01*
X350794D01*
Y216612D01*
X349900D01*
Y217208D01*
X351689D01*
Y214823D01*
X351093D01*
Y215121D01*
X350496D01*
Y214823D01*
X349303D01*
Y215121D01*
X348707D01*
Y215419D01*
X348409D01*
Y215717D01*
X348111D01*
Y216314D01*
X347812D01*
Y217506D01*
X348111D01*
Y218103D01*
X348409D01*
Y218401D01*
X348707D01*
Y218699D01*
X349005D01*
Y218997D01*
X350794D01*
Y218699D01*
D02*
G37*
G36*
X333499D02*
X334095D01*
Y218401D01*
X334393D01*
Y217805D01*
X333797D01*
Y218103D01*
X333201D01*
Y218401D01*
X332604D01*
Y218103D01*
X332008D01*
Y217805D01*
X331710D01*
Y216314D01*
X332008D01*
Y215717D01*
X333797D01*
Y216612D01*
X332902D01*
Y217208D01*
X334692D01*
Y214823D01*
X334095D01*
Y215419D01*
X333797D01*
Y215121D01*
X333499D01*
Y214823D01*
X332306D01*
Y215121D01*
X331710D01*
Y215419D01*
X331411D01*
Y215717D01*
X331113D01*
Y216015D01*
X330815D01*
Y217805D01*
X331113D01*
Y218401D01*
X331411D01*
Y218699D01*
X332008D01*
Y218997D01*
X333499D01*
Y218699D01*
D02*
G37*
G36*
X304872D02*
X305170D01*
Y218401D01*
X305468D01*
Y217805D01*
X304872D01*
Y218103D01*
X304275D01*
Y218401D01*
X303679D01*
Y218103D01*
X303082D01*
Y217805D01*
X302784D01*
Y216314D01*
X303082D01*
Y215717D01*
X304872D01*
Y216612D01*
X303977D01*
Y217208D01*
X305766D01*
Y216612D01*
Y216314D01*
Y214823D01*
X305170D01*
Y215121D01*
X304573D01*
Y214823D01*
X303380D01*
Y215121D01*
X302784D01*
Y215419D01*
X302486D01*
Y215717D01*
X302188D01*
Y216314D01*
X301889D01*
Y217506D01*
X302188D01*
Y218103D01*
X302486D01*
Y218401D01*
X302784D01*
Y218699D01*
X303082D01*
Y218997D01*
X304872D01*
Y218699D01*
D02*
G37*
G36*
X309941Y214823D02*
X309345D01*
Y216612D01*
X307555D01*
Y214823D01*
X306661D01*
Y218997D01*
X307555D01*
Y217208D01*
X309345D01*
Y218997D01*
X309941D01*
Y214823D01*
D02*
G37*
G36*
X299206D02*
X298609D01*
Y216612D01*
X296820D01*
Y214823D01*
X295925D01*
Y218997D01*
X296820D01*
Y217506D01*
Y217208D01*
X298311D01*
Y217506D01*
X298609D01*
Y218997D01*
X299206D01*
Y214823D01*
D02*
G37*
G36*
X374650D02*
X373756D01*
Y215121D01*
X373458D01*
Y215717D01*
X373159D01*
Y216015D01*
X372861D01*
Y216612D01*
X372563D01*
Y217208D01*
X372265D01*
Y217506D01*
X371967D01*
Y214823D01*
X371072D01*
Y218997D01*
X371967D01*
Y218699D01*
X372265D01*
Y218401D01*
X372563D01*
Y217805D01*
X372861D01*
Y217506D01*
X373159D01*
Y216910D01*
X373458D01*
Y216314D01*
X373756D01*
Y218997D01*
X374650D01*
Y214823D01*
D02*
G37*
G36*
X357951D02*
X357057D01*
Y215419D01*
X356758D01*
Y215717D01*
X356460D01*
Y216314D01*
X356162D01*
Y216910D01*
X355864D01*
Y217208D01*
X355566D01*
Y217506D01*
X355267D01*
Y214823D01*
X354671D01*
Y217208D01*
Y217506D01*
Y218997D01*
X355566D01*
Y218699D01*
X355864D01*
Y218103D01*
X356162D01*
Y217506D01*
X356460D01*
Y217208D01*
X356758D01*
Y216612D01*
X357057D01*
Y216314D01*
X357355D01*
Y218997D01*
X357951D01*
Y214823D01*
D02*
G37*
G36*
X346918D02*
X346023D01*
Y215419D01*
X345725D01*
Y215717D01*
X345427D01*
Y216314D01*
X345128D01*
Y216910D01*
X344830D01*
Y217208D01*
X344532D01*
Y217506D01*
X344234D01*
Y214823D01*
X343637D01*
Y218997D01*
X344532D01*
Y218699D01*
X344830D01*
Y218103D01*
X345128D01*
Y217506D01*
X345427D01*
Y217208D01*
X345725D01*
Y216612D01*
X346023D01*
Y216314D01*
X346321D01*
Y216910D01*
Y217208D01*
Y218997D01*
X346918D01*
Y214823D01*
D02*
G37*
G36*
X315905Y218103D02*
X315607D01*
Y217208D01*
X315308D01*
Y216612D01*
X315010D01*
Y215717D01*
X314712D01*
Y215121D01*
X314414D01*
Y214823D01*
X313818D01*
Y215121D01*
X313519D01*
Y215717D01*
X313221D01*
Y216612D01*
X312923D01*
Y217506D01*
X312625D01*
Y218103D01*
X312327D01*
Y218997D01*
X312923D01*
Y218699D01*
X313221D01*
Y218103D01*
X313519D01*
Y217208D01*
X313818D01*
Y216314D01*
X314414D01*
Y217208D01*
X314712D01*
Y218103D01*
X315010D01*
Y218699D01*
X315308D01*
Y218997D01*
X315905D01*
Y218103D01*
D02*
G37*
G36*
X370177Y214823D02*
X369283D01*
Y218997D01*
X370177D01*
Y214823D01*
D02*
G37*
G36*
X367494Y218699D02*
X368090D01*
Y216910D01*
X367494D01*
Y216612D01*
Y216314D01*
X367792D01*
Y216015D01*
X368090D01*
Y215419D01*
X368388D01*
Y214823D01*
X367792D01*
Y215121D01*
X367494D01*
Y215419D01*
X367195D01*
Y216015D01*
X366897D01*
Y216612D01*
X366301D01*
Y214823D01*
X365704D01*
Y218997D01*
X367494D01*
Y218699D01*
D02*
G37*
G36*
X364512Y218103D02*
X363021D01*
Y217506D01*
X363319D01*
Y217208D01*
X364512D01*
Y216612D01*
X363319D01*
Y216314D01*
X363021D01*
Y215717D01*
X364512D01*
Y214823D01*
X362424D01*
Y218997D01*
X364512D01*
Y218103D01*
D02*
G37*
G36*
X361530D02*
X360039D01*
Y217208D01*
X361231D01*
Y216612D01*
X360039D01*
Y215717D01*
X361530D01*
Y214823D01*
X359144D01*
Y218997D01*
X361530D01*
Y218103D01*
D02*
G37*
G36*
X353478Y216612D02*
Y216314D01*
Y214823D01*
X352584D01*
Y218997D01*
X353478D01*
Y216612D01*
D02*
G37*
G36*
X342743Y218103D02*
X341252D01*
Y217208D01*
X342445D01*
Y216612D01*
X341252D01*
Y215717D01*
X342743D01*
Y214823D01*
X340357D01*
Y218997D01*
X342743D01*
Y218103D01*
D02*
G37*
G36*
X337972D02*
X336481D01*
Y217208D01*
X337673D01*
Y216612D01*
X336481D01*
Y215717D01*
X337972D01*
Y214823D01*
X335586D01*
Y215121D01*
Y215419D01*
Y218997D01*
X337972D01*
Y218103D01*
D02*
G37*
G36*
X329026Y218699D02*
Y218401D01*
X329324D01*
Y217805D01*
X329622D01*
Y216910D01*
X329920D01*
Y216015D01*
X330219D01*
Y215121D01*
X330517D01*
Y214823D01*
X329622D01*
Y215419D01*
X329324D01*
Y215717D01*
X327535D01*
Y215121D01*
X327237D01*
Y214823D01*
X326640D01*
Y215717D01*
X326938D01*
Y216314D01*
X327237D01*
Y217208D01*
X327535D01*
Y218103D01*
X327833D01*
Y218699D01*
X328131D01*
Y218997D01*
X329026D01*
Y218699D01*
D02*
G37*
G36*
X326342D02*
Y218401D01*
Y218103D01*
X325447D01*
Y214823D01*
X324553D01*
Y218103D01*
X323658D01*
Y218997D01*
X326342D01*
Y218699D01*
D02*
G37*
G36*
X322167Y217506D02*
Y217208D01*
Y215717D01*
X323360D01*
Y214823D01*
X321272D01*
Y218997D01*
X322167D01*
Y217506D01*
D02*
G37*
G36*
X319185Y218699D02*
X319781D01*
Y218401D01*
X320080D01*
Y218103D01*
X320378D01*
Y216015D01*
X320080D01*
Y215419D01*
X319781D01*
Y215121D01*
X319185D01*
Y214823D01*
X317694D01*
Y215121D01*
X317098D01*
Y215419D01*
X316799D01*
Y216015D01*
X316501D01*
Y217805D01*
X316799D01*
Y218401D01*
X317098D01*
Y218699D01*
X317694D01*
Y218997D01*
X319185D01*
Y218699D01*
D02*
G37*
G36*
X300995Y214823D02*
X300398D01*
Y218401D01*
Y218699D01*
Y218997D01*
X300995D01*
Y214823D01*
D02*
G37*
G36*
X301293Y251800D02*
X300995D01*
Y251501D01*
X300697D01*
Y250905D01*
X300398D01*
Y250607D01*
X300100D01*
Y250010D01*
X299802D01*
Y249712D01*
X299504D01*
Y249116D01*
X299206D01*
Y248817D01*
X298907D01*
Y248221D01*
X298609D01*
Y247923D01*
X298311D01*
Y247326D01*
X298013D01*
Y247028D01*
X297715D01*
Y246432D01*
X297416D01*
Y246134D01*
X297118D01*
Y245537D01*
X296820D01*
Y245239D01*
X296522D01*
Y244643D01*
X296224D01*
Y244344D01*
X295925D01*
Y243748D01*
X295627D01*
Y243450D01*
X295329D01*
Y242853D01*
X295031D01*
Y242555D01*
X294733D01*
Y241959D01*
X294434D01*
Y241661D01*
X294136D01*
Y241064D01*
X293838D01*
Y240766D01*
X293540D01*
Y240170D01*
X293242D01*
Y239872D01*
X292943D01*
Y239275D01*
X292645D01*
Y238977D01*
X292347D01*
Y238381D01*
X292049D01*
Y238082D01*
X291751D01*
Y237486D01*
X291452D01*
Y237188D01*
X291154D01*
Y236591D01*
X290856D01*
Y236293D01*
X290558D01*
Y235697D01*
X290260D01*
Y235399D01*
X289961D01*
Y234802D01*
X289663D01*
Y234504D01*
X289365D01*
Y233908D01*
X289067D01*
Y233609D01*
X288769D01*
Y233013D01*
X288470D01*
Y232715D01*
X288172D01*
Y232118D01*
X287874D01*
Y231820D01*
X287576D01*
Y231224D01*
X287278D01*
Y230925D01*
X286979D01*
Y230329D01*
X286681D01*
Y230031D01*
X286383D01*
Y229733D01*
X293838D01*
Y229434D01*
X293540D01*
Y229136D01*
X293242D01*
Y228838D01*
X292943D01*
Y228540D01*
X292645D01*
Y228242D01*
X292347D01*
Y227943D01*
X292049D01*
Y227645D01*
X291751D01*
Y227347D01*
X291452D01*
Y227049D01*
X291154D01*
Y226751D01*
X290856D01*
Y226452D01*
X290558D01*
Y226154D01*
X290260D01*
Y225856D01*
X289961D01*
Y225558D01*
X289663D01*
Y225260D01*
X289365D01*
Y224961D01*
X289067D01*
Y224663D01*
X288769D01*
Y224365D01*
X288470D01*
Y224067D01*
X288172D01*
Y223769D01*
X287874D01*
Y223470D01*
X287576D01*
Y223172D01*
X287278D01*
Y222874D01*
X286979D01*
Y222576D01*
X286681D01*
Y222278D01*
X286383D01*
Y221979D01*
X286085D01*
Y221681D01*
X285787D01*
Y221383D01*
X285488D01*
Y221085D01*
X285190D01*
Y220787D01*
X284892D01*
Y220488D01*
X284594D01*
Y220190D01*
X284296D01*
Y219892D01*
X283997D01*
Y219594D01*
X283699D01*
Y219296D01*
X283401D01*
Y218997D01*
X283103D01*
Y218699D01*
X282805D01*
Y218401D01*
X282506D01*
Y218103D01*
X282208D01*
Y217805D01*
X281910D01*
Y217506D01*
X281612D01*
Y217208D01*
X281314D01*
Y216910D01*
X281015D01*
Y216612D01*
X280717D01*
Y216314D01*
X280419D01*
Y216015D01*
X280121D01*
Y215717D01*
X279823D01*
Y215419D01*
X279524D01*
Y215121D01*
X279226D01*
Y214823D01*
X278928D01*
Y214524D01*
X278630D01*
Y214226D01*
X278332D01*
Y213928D01*
X278033D01*
Y213630D01*
X277735D01*
Y213332D01*
X277437D01*
Y213033D01*
X277139D01*
Y212735D01*
X276841D01*
Y212437D01*
X276542D01*
Y212139D01*
X276244D01*
Y211841D01*
X275946D01*
Y211542D01*
X275648D01*
Y211244D01*
X275350D01*
Y210946D01*
X275051D01*
Y210648D01*
X274753D01*
Y210350D01*
X274455D01*
Y210051D01*
X274157D01*
Y209753D01*
X273859D01*
Y209455D01*
X273560D01*
Y209157D01*
X273262D01*
Y208859D01*
X272964D01*
Y208560D01*
X272666D01*
Y208262D01*
X272368D01*
Y207964D01*
X272069D01*
Y207666D01*
X271771D01*
Y208560D01*
X272069D01*
Y209455D01*
X272368D01*
Y210350D01*
X272666D01*
Y211244D01*
X272964D01*
Y212139D01*
X273262D01*
Y213033D01*
X273560D01*
Y213928D01*
X273859D01*
Y214823D01*
X274157D01*
Y215717D01*
X274455D01*
Y216612D01*
X274753D01*
Y217506D01*
X275051D01*
Y218401D01*
X275350D01*
Y219296D01*
X275648D01*
Y220190D01*
X275946D01*
Y221085D01*
X276244D01*
Y221979D01*
X276542D01*
Y222874D01*
X276841D01*
Y223769D01*
X277139D01*
Y224663D01*
X277437D01*
Y225558D01*
X277735D01*
Y226452D01*
X278033D01*
Y227347D01*
X278332D01*
Y228242D01*
X278630D01*
Y229136D01*
X278928D01*
Y229733D01*
X271473D01*
Y230031D01*
X271771D01*
Y230925D01*
X272069D01*
Y231820D01*
X272368D01*
Y232715D01*
X272666D01*
Y233609D01*
X272964D01*
Y234504D01*
X273262D01*
Y235399D01*
X273560D01*
Y236293D01*
X273859D01*
Y237188D01*
X274157D01*
Y238082D01*
X274455D01*
Y238977D01*
X274753D01*
Y239275D01*
Y239573D01*
Y239872D01*
X275051D01*
Y240766D01*
X275350D01*
Y241661D01*
X275648D01*
Y242555D01*
X275946D01*
Y243450D01*
X276244D01*
Y244344D01*
X276542D01*
Y245239D01*
X276841D01*
Y246134D01*
X277139D01*
Y247028D01*
X277437D01*
Y247923D01*
X277735D01*
Y248817D01*
X278033D01*
Y249712D01*
X278332D01*
Y250607D01*
X278630D01*
Y251501D01*
X278928D01*
Y252098D01*
X301293D01*
Y251800D01*
D02*
G37*
G36*
X271771Y207368D02*
X271473D01*
Y207666D01*
X271771D01*
Y207368D01*
D02*
G37*
G36*
X329869Y166793D02*
X330087D01*
X330415Y166684D01*
X330470D01*
X330579Y166629D01*
X330689Y166520D01*
X330798Y166356D01*
X330853Y166301D01*
X330908Y166246D01*
X330962Y166082D01*
Y165918D01*
Y165864D01*
Y165809D01*
X330908Y165481D01*
Y165426D01*
X330853Y165317D01*
X330689Y164989D01*
X330634Y164934D01*
X330579Y164879D01*
X330251Y164551D01*
X330197Y164497D01*
X330087Y164442D01*
X329814Y164333D01*
X329541Y164223D01*
X329431D01*
X329322Y164169D01*
X329103Y164114D01*
X329048D01*
X328884Y164059D01*
X328666D01*
X328338Y164005D01*
X328283D01*
X328064Y163950D01*
X327791Y163895D01*
X327463Y163840D01*
X327408D01*
X327189Y163786D01*
X326916Y163731D01*
X326588Y163676D01*
X326479D01*
X326150Y163567D01*
X325604Y163458D01*
X325002Y163348D01*
X324947D01*
X324838Y163294D01*
X324674D01*
X324455Y163239D01*
X323908Y163075D01*
X323252Y162911D01*
X323198D01*
X323088Y162856D01*
X322924D01*
X322651Y162747D01*
X322104Y162637D01*
X321393Y162419D01*
X321339D01*
X321229Y162364D01*
X321065Y162309D01*
X320846Y162255D01*
X320245Y162091D01*
X319643Y161872D01*
X319589D01*
X319534Y161817D01*
X319151Y161708D01*
X318659Y161489D01*
X318167Y161270D01*
X318058Y161216D01*
X317784Y161107D01*
X317456Y160888D01*
X317183Y160669D01*
Y160614D01*
X317073Y160505D01*
X316964Y160232D01*
X316800Y159904D01*
X316745Y159794D01*
X316636Y159575D01*
X316527Y159193D01*
X316308Y158701D01*
Y158646D01*
X316253Y158591D01*
X316144Y158263D01*
X316035Y157771D01*
X315816Y157224D01*
Y157169D01*
X315761Y157115D01*
X315706Y156787D01*
X315543Y156295D01*
X315378Y155803D01*
Y155748D01*
Y155693D01*
X315269Y155420D01*
X315160Y155037D01*
X315050Y154600D01*
Y154545D01*
X314996Y154326D01*
X314941Y154107D01*
X314886Y153943D01*
Y153889D01*
X314832Y153834D01*
X314777Y153615D01*
X314722Y153342D01*
Y153287D01*
X314668Y153123D01*
X314558Y152686D01*
X314668Y152740D01*
X314886Y152795D01*
X315324Y152904D01*
X315816Y153068D01*
X316417Y153233D01*
X317073Y153451D01*
X318495Y153779D01*
X318605D01*
X318823Y153834D01*
X319206Y153943D01*
X319753Y154053D01*
X320300Y154107D01*
X321010Y154217D01*
X322432Y154271D01*
X322924D01*
X323252Y154217D01*
X323580D01*
X323854Y154162D01*
X324237Y154107D01*
X324346D01*
X324510Y153998D01*
X324783Y153889D01*
X325057Y153725D01*
X325112Y153670D01*
X325275Y153561D01*
X325385Y153342D01*
X325440Y153014D01*
Y152904D01*
X325385Y152795D01*
Y152740D01*
Y152631D01*
X325275Y152303D01*
Y152248D01*
X325221Y152139D01*
X325166Y151975D01*
X325002Y151756D01*
X324947Y151701D01*
X324893Y151647D01*
X324729Y151483D01*
X324510Y151373D01*
X324455D01*
X324401Y151428D01*
X322979D01*
X322541Y151373D01*
X322159Y151319D01*
X321175Y151209D01*
X321120D01*
X320956Y151155D01*
X320682Y151100D01*
X320409Y151045D01*
X319972Y150936D01*
X319589Y150827D01*
X318605Y150553D01*
X318550D01*
X318386Y150499D01*
X318112Y150389D01*
X317839Y150280D01*
X317402Y150171D01*
X317019Y150006D01*
X316035Y149624D01*
X315980D01*
X315816Y149514D01*
X315543Y149460D01*
X315214Y149296D01*
X314832Y149132D01*
X314394Y148968D01*
X313465Y148530D01*
X311660Y140766D01*
Y140711D01*
X311606Y140602D01*
X311496Y140437D01*
X311332Y140273D01*
X311277Y140219D01*
X311168Y140164D01*
X311059Y140055D01*
X310840Y140000D01*
X310293D01*
X310020Y140055D01*
X309746Y140219D01*
X309473Y140547D01*
X309418Y140656D01*
X309364Y140930D01*
X309254Y141367D01*
X309200Y141914D01*
Y141969D01*
Y142023D01*
Y142187D01*
Y142406D01*
X309254Y142898D01*
X309309Y143500D01*
Y143554D01*
X309364Y143664D01*
Y143828D01*
X309418Y144046D01*
X309528Y144593D01*
X309637Y145195D01*
Y145249D01*
X309692Y145359D01*
Y145523D01*
X309746Y145741D01*
X309801Y146233D01*
X309910Y146726D01*
Y146780D01*
Y146835D01*
X309965Y147108D01*
X310020Y147436D01*
Y147765D01*
X309965Y147819D01*
X309910Y147983D01*
X309746Y148202D01*
X309582Y148421D01*
Y148475D01*
X309528Y148639D01*
X309473Y148913D01*
X309418Y149241D01*
Y149296D01*
Y149405D01*
X309473Y149733D01*
X309582Y150116D01*
X309801Y150499D01*
X309856Y150608D01*
X310129Y150827D01*
X310457Y151100D01*
X310895Y151428D01*
X310949Y151483D01*
X311004Y151592D01*
Y151647D01*
X311059Y151701D01*
X311168Y151920D01*
Y151975D01*
X311223Y152030D01*
X311277Y152248D01*
Y152303D01*
X311332Y152358D01*
X311387Y152576D01*
X312098Y155256D01*
Y155310D01*
X312152Y155529D01*
X312262Y155803D01*
X312371Y156185D01*
X312590Y157060D01*
X312863Y157935D01*
Y157990D01*
X312918Y158154D01*
X313027Y158372D01*
X313082Y158646D01*
X313301Y159357D01*
X313519Y160068D01*
Y160122D01*
X313574Y160232D01*
X313629Y160396D01*
X313683Y160614D01*
X313847Y161161D01*
X314011Y161708D01*
Y161763D01*
X314066Y161817D01*
X314176Y162200D01*
X314339Y162637D01*
X314504Y163184D01*
Y163239D01*
X314558Y163348D01*
X314613Y163567D01*
X314722Y163840D01*
X314777Y163895D01*
X314886Y164114D01*
X314996Y164387D01*
X315160Y164661D01*
X315214Y164715D01*
X315324Y164934D01*
X315488Y165153D01*
X315706Y165372D01*
X315761Y165426D01*
X315925Y165536D01*
X316144Y165645D01*
X316363Y165700D01*
X316800D01*
X317183Y165645D01*
X317456Y165536D01*
X317511D01*
X317620Y165481D01*
X317784Y165372D01*
X317839Y165208D01*
X318003Y164825D01*
X318058D01*
X318222Y164879D01*
X318495D01*
X318823Y164934D01*
X318933D01*
X319151Y164989D01*
X319534Y165098D01*
X319917Y165153D01*
X320026Y165208D01*
X320245Y165262D01*
X320573Y165317D01*
X320956Y165426D01*
X321065D01*
X321229Y165481D01*
X321448Y165536D01*
X321667Y165590D01*
X321721D01*
X321885Y165645D01*
X322104Y165700D01*
X322377Y165809D01*
X323088Y165973D01*
X323854Y166137D01*
X323908D01*
X324018Y166192D01*
X324237Y166246D01*
X324510Y166301D01*
X325112Y166410D01*
X325768Y166520D01*
X325822D01*
X325932Y166575D01*
X326096D01*
X326314Y166629D01*
X326861Y166684D01*
X327463Y166738D01*
X327627D01*
X327791Y166793D01*
X328010D01*
X328502Y166848D01*
X329595D01*
X329869Y166793D01*
D02*
G37*
G36*
X348515D02*
X349225D01*
X350702Y166684D01*
X351030D01*
X351413Y166629D01*
X351850Y166575D01*
X352397Y166520D01*
X352998Y166410D01*
X354256Y166137D01*
X354311D01*
X354529Y166082D01*
X354857Y165973D01*
X355295Y165809D01*
X355787Y165645D01*
X356334Y165426D01*
X357427Y164879D01*
X357482Y164825D01*
X357701Y164715D01*
X357974Y164551D01*
X358357Y164278D01*
X358794Y163950D01*
X359232Y163567D01*
X359779Y163130D01*
X360271Y162637D01*
X360380Y162528D01*
X360599Y162309D01*
X360872Y161927D01*
X361200Y161489D01*
Y161435D01*
X361310Y161380D01*
X361474Y161052D01*
X361747Y160614D01*
X362020Y160068D01*
Y160013D01*
X362075Y159958D01*
X362239Y159630D01*
X362403Y159083D01*
X362567Y158482D01*
Y158427D01*
X362622Y158318D01*
Y158154D01*
X362677Y157935D01*
X362731Y157334D01*
X362786Y156623D01*
Y156513D01*
Y156295D01*
Y155967D01*
X362731Y155529D01*
Y155420D01*
X362677Y155201D01*
Y154873D01*
X362622Y154545D01*
Y154436D01*
X362513Y154217D01*
X362403Y153779D01*
X362239Y153287D01*
X362020Y152740D01*
X361747Y152139D01*
X361146Y150881D01*
X361091Y150827D01*
X360982Y150608D01*
X360763Y150335D01*
X360544Y149952D01*
X360216Y149514D01*
X359833Y149022D01*
X358958Y148038D01*
X358904Y147983D01*
X358740Y147819D01*
X358466Y147600D01*
X358138Y147272D01*
X357755Y146944D01*
X357263Y146562D01*
X356224Y145851D01*
X356170Y145796D01*
X355951Y145687D01*
X355678Y145523D01*
X355295Y145304D01*
X354803Y145085D01*
X354311Y144812D01*
X353162Y144265D01*
X353108Y144210D01*
X352889Y144156D01*
X352561Y144046D01*
X352178Y143882D01*
X351686Y143718D01*
X351139Y143500D01*
X349936Y143117D01*
X349882D01*
X349663Y143062D01*
X349335Y142953D01*
X348897Y142843D01*
X348405Y142679D01*
X347858Y142515D01*
X346710Y142242D01*
X346655D01*
X346601Y142187D01*
X346273Y142132D01*
X345835Y141969D01*
X345234Y141859D01*
X345070D01*
X344906Y141804D01*
X344742Y141750D01*
X344195Y141695D01*
X343593Y141586D01*
X343429D01*
X343265Y141531D01*
X343101D01*
X342554Y141476D01*
X341953Y141422D01*
X341461D01*
X340969Y141367D01*
X339547D01*
X339110Y141422D01*
X339000D01*
X338781Y141476D01*
X338508Y141586D01*
X338235Y141695D01*
X338180Y141750D01*
X338071Y141804D01*
X337907Y141914D01*
X337743Y142078D01*
Y142132D01*
X337688Y142242D01*
X337633Y142570D01*
Y142625D01*
Y142789D01*
X337688Y143007D01*
X337797Y143281D01*
X337852Y143335D01*
X337961Y143500D01*
X338180Y143773D01*
X338508Y144046D01*
X338563D01*
X338672Y144156D01*
X338836Y144210D01*
X339000Y144320D01*
X339547Y144593D01*
X340148Y144757D01*
X340203D01*
X340313Y144812D01*
X340477D01*
X340695Y144867D01*
X341297Y144921D01*
X341953Y145031D01*
X346437Y163130D01*
X345617D01*
X345288Y163184D01*
X345234D01*
X345070Y163239D01*
X344796Y163294D01*
X344523Y163348D01*
X344468D01*
X344304Y163403D01*
X344085Y163512D01*
X343921Y163622D01*
X343867Y163731D01*
X343703Y163950D01*
Y164005D01*
X343648Y164114D01*
X343429Y164387D01*
Y164442D01*
X343375Y164551D01*
X343211Y164879D01*
Y164934D01*
Y165043D01*
X343156Y165426D01*
Y165481D01*
X343211Y165645D01*
X343320Y165864D01*
X343484Y166082D01*
X343539Y166137D01*
X343703Y166246D01*
X343976Y166410D01*
X344304Y166520D01*
X344413Y166575D01*
X344632Y166629D01*
X345015Y166684D01*
X345452Y166738D01*
X345562D01*
X345835Y166793D01*
X346163Y166848D01*
X347858D01*
X348515Y166793D01*
D02*
G37*
G36*
X291319Y168270D02*
X291593Y168215D01*
X291647D01*
X291811Y168160D01*
X292085Y168105D01*
X292358Y168051D01*
X292413D01*
X292632Y167996D01*
X292905Y167941D01*
X293233Y167832D01*
X293506D01*
X293780Y167777D01*
X294873D01*
X295038Y167832D01*
X295639D01*
X295858Y167887D01*
X296186D01*
X296623Y167941D01*
X296733D01*
X297061Y167996D01*
X298865D01*
X299303Y167941D01*
X299412D01*
X299740Y167887D01*
X300177Y167832D01*
X300724Y167777D01*
X300834D01*
X301216Y167668D01*
X301654Y167559D01*
X302201Y167395D01*
X302255D01*
X302310Y167340D01*
X302693Y167231D01*
X303130Y167012D01*
X303622Y166738D01*
X303677D01*
X303732Y166684D01*
X304005Y166465D01*
X304388Y166137D01*
X304770Y165754D01*
X304880Y165645D01*
X305044Y165372D01*
X305317Y164879D01*
X305536Y164333D01*
Y164278D01*
X305591Y164059D01*
X305645Y163840D01*
X305700Y163567D01*
Y163512D01*
X305755Y163348D01*
Y163130D01*
Y162911D01*
Y162856D01*
Y162747D01*
Y162528D01*
X305700Y162255D01*
X305536Y161544D01*
X305208Y160724D01*
X305153Y160669D01*
X305099Y160505D01*
X304935Y160286D01*
X304770Y160013D01*
X304169Y159302D01*
X303458Y158482D01*
X303403Y158427D01*
X303294Y158318D01*
X303075Y158099D01*
X302747Y157826D01*
X302419Y157552D01*
X301982Y157224D01*
X300998Y156513D01*
X300888Y156459D01*
X300615Y156295D01*
X300232Y156021D01*
X299685Y155748D01*
X299631D01*
X299576Y155693D01*
X299248Y155529D01*
X298810Y155256D01*
X298264Y154982D01*
X298209D01*
X298154Y154928D01*
X297881Y154764D01*
X297443Y154545D01*
X297006Y154271D01*
X296897Y154217D01*
X296733Y154107D01*
X296459Y153998D01*
X296240Y153834D01*
X296295D01*
X296350Y153779D01*
X296623Y153670D01*
X297006Y153451D01*
X297443Y153233D01*
X297498D01*
X297553Y153178D01*
X297881Y153014D01*
X298264Y152740D01*
X298756Y152412D01*
X298810D01*
X298865Y152358D01*
X299193Y152084D01*
X299576Y151756D01*
X300068Y151264D01*
X300123Y151209D01*
X300177Y151155D01*
X300505Y150827D01*
X300943Y150280D01*
X301490Y149624D01*
X301544Y149569D01*
X301599Y149460D01*
X301763Y149241D01*
X301927Y149022D01*
X302146Y148694D01*
X302419Y148311D01*
X302966Y147382D01*
X303021Y147327D01*
X303130Y147163D01*
X303294Y146890D01*
X303458Y146507D01*
X303732Y146070D01*
X304005Y145577D01*
X304278Y144976D01*
X304607Y144320D01*
X304661Y144265D01*
X304716Y144046D01*
X304770Y143718D01*
X304825Y143390D01*
Y143335D01*
Y143171D01*
X304770Y142953D01*
X304661Y142679D01*
X304607Y142625D01*
X304552Y142461D01*
X304388Y142242D01*
X304224Y141969D01*
X304169Y141914D01*
X304060Y141804D01*
X303896Y141695D01*
X303622Y141531D01*
X303568D01*
X303403Y141476D01*
X303185Y141422D01*
X302857Y141367D01*
X302747D01*
X302529Y141422D01*
X302146Y141531D01*
X301818Y141804D01*
X301763Y141859D01*
X301599Y142132D01*
X301326Y142461D01*
X301052Y142953D01*
Y143007D01*
X300998Y143062D01*
X300888Y143226D01*
X300834Y143445D01*
X300560Y143992D01*
X300232Y144648D01*
Y144702D01*
X300177Y144812D01*
X300068Y145031D01*
X299959Y145249D01*
X299685Y145905D01*
X299303Y146616D01*
X299248Y146671D01*
X299193Y146780D01*
X299029Y146999D01*
X298865Y147272D01*
X298428Y147874D01*
X297826Y148585D01*
X297772Y148639D01*
X297717Y148749D01*
X297553Y148913D01*
X297334Y149132D01*
X296787Y149624D01*
X296186Y150171D01*
X296131Y150225D01*
X296022Y150280D01*
X295858Y150444D01*
X295639Y150553D01*
X295038Y150936D01*
X294381Y151264D01*
X294327D01*
X294217Y151319D01*
X294053Y151373D01*
X293780Y151483D01*
X293233Y151592D01*
X292522Y151647D01*
X291921D01*
X291593Y151592D01*
X291265Y151538D01*
X291210D01*
X290991Y151483D01*
X290718Y151428D01*
X290444Y151373D01*
X290335Y151428D01*
X290116Y151538D01*
X289843Y151756D01*
X289624Y152030D01*
X289569Y152084D01*
X289515Y152303D01*
X289405Y152631D01*
X289351Y153014D01*
Y153287D01*
X287929Y147655D01*
Y147600D01*
X287874Y147436D01*
X287820Y147218D01*
X287710Y146890D01*
Y146835D01*
X287656Y146616D01*
X287546Y146288D01*
X287437Y145905D01*
Y145796D01*
X287328Y145577D01*
X287218Y145195D01*
X287109Y144757D01*
Y144648D01*
X287000Y144374D01*
X286890Y144046D01*
X286781Y143609D01*
Y143500D01*
X286726Y143281D01*
X286617Y142953D01*
X286507Y142625D01*
Y142570D01*
X286453Y142406D01*
X286398Y142187D01*
X286343Y141969D01*
X286289Y141914D01*
X286179Y141750D01*
X286015Y141531D01*
X285742Y141312D01*
X285687Y141258D01*
X285523Y141203D01*
X285250Y141148D01*
X284922Y141094D01*
X284812D01*
X284484Y141148D01*
X284102Y141258D01*
X283773Y141531D01*
X283719Y141586D01*
X283664Y141804D01*
X283555Y142132D01*
X283500Y142570D01*
Y142625D01*
Y142734D01*
Y143062D01*
Y143117D01*
X283555Y143226D01*
X283609Y143609D01*
Y143664D01*
X283664Y143773D01*
X283719Y143992D01*
X283773Y144320D01*
X283883Y144702D01*
X283992Y145140D01*
X284102Y145632D01*
X284265Y146179D01*
X284594Y147382D01*
X284976Y148749D01*
X285359Y150225D01*
X285742Y151701D01*
Y151756D01*
X285797Y151866D01*
X285851Y152084D01*
X285906Y152412D01*
X286015Y152740D01*
X286125Y153178D01*
X286289Y153670D01*
X286398Y154217D01*
X286726Y155420D01*
X287109Y156787D01*
X287492Y158263D01*
X287874Y159794D01*
Y159904D01*
X287929Y160122D01*
X288038Y160450D01*
X288093Y160778D01*
Y160888D01*
X288148Y161107D01*
X288257Y161380D01*
X288312Y161763D01*
Y161872D01*
X288367Y162091D01*
X288421Y162364D01*
X288476Y162747D01*
Y162856D01*
X288531Y163075D01*
X288585Y163403D01*
Y163786D01*
Y163840D01*
Y164005D01*
Y164223D01*
X288531Y164497D01*
Y164551D01*
Y164770D01*
X288476Y164989D01*
Y165317D01*
Y165372D01*
Y165590D01*
X288531Y165864D01*
X288585Y166192D01*
Y166246D01*
X288640Y166356D01*
X288695Y166575D01*
X288804Y166793D01*
X289023Y167340D01*
X289187Y167559D01*
X289351Y167777D01*
X289460Y167887D01*
X289734Y168051D01*
X290171Y168215D01*
X290827Y168324D01*
X291046D01*
X291319Y168270D01*
D02*
G37*
G36*
X337688Y167449D02*
X337907Y167285D01*
X338180Y167012D01*
X338453Y166629D01*
X338508Y166520D01*
X338617Y166301D01*
X338727Y165918D01*
X338781Y165481D01*
Y165372D01*
Y165153D01*
X338727Y164825D01*
X338617Y164387D01*
Y164278D01*
X338508Y164005D01*
X338399Y163567D01*
X338235Y163075D01*
Y163020D01*
X338180Y162966D01*
X338071Y162637D01*
X337961Y162200D01*
X337743Y161653D01*
Y161599D01*
X337688Y161544D01*
X337579Y161161D01*
X337415Y160669D01*
X337196Y160122D01*
Y160068D01*
X337086Y159849D01*
X337032Y159575D01*
X336868Y159193D01*
X336758Y158755D01*
X336594Y158263D01*
X336211Y157169D01*
Y157115D01*
X336102Y156896D01*
X336048Y156623D01*
X335883Y156240D01*
X335774Y155748D01*
X335610Y155256D01*
X335227Y154053D01*
Y153998D01*
X335118Y153834D01*
X335009Y153561D01*
X334899Y153233D01*
Y153178D01*
X334844Y152959D01*
X334735Y152631D01*
X334626Y152303D01*
Y152194D01*
X334571Y151975D01*
X334462Y151592D01*
X334298Y151155D01*
Y151045D01*
X334188Y150772D01*
X334079Y150280D01*
X333970Y149733D01*
Y149678D01*
X333915Y149569D01*
Y149405D01*
X333860Y149132D01*
X333696Y148530D01*
X333587Y147819D01*
Y147765D01*
Y147655D01*
X333532Y147491D01*
X333477Y147218D01*
X333368Y146616D01*
X333259Y145905D01*
Y145851D01*
Y145741D01*
X333204Y145577D01*
Y145304D01*
X333095Y144702D01*
X332931Y143992D01*
Y143937D01*
Y143828D01*
X332876Y143609D01*
X332821Y143390D01*
X332712Y142734D01*
X332548Y141969D01*
Y141914D01*
X332493Y141750D01*
X332220Y141367D01*
X332165Y141312D01*
X332056Y141258D01*
X331892Y141094D01*
X331673Y140930D01*
X331618Y140875D01*
X331509Y140820D01*
X331290Y140711D01*
X331072Y140602D01*
X331017D01*
X330908Y140547D01*
X330689Y140492D01*
X330306D01*
X329923Y140547D01*
X329869D01*
X329814Y140602D01*
X329541Y140766D01*
X329486Y140820D01*
X329431Y140930D01*
X329158Y141258D01*
Y141312D01*
X329103Y141422D01*
X329048Y141640D01*
Y141859D01*
Y141914D01*
Y141969D01*
X329103Y142023D01*
Y142187D01*
X331290Y151592D01*
Y151647D01*
X331345Y151701D01*
X331400Y152030D01*
X331509Y152522D01*
X331673Y153123D01*
Y153178D01*
X331728Y153287D01*
X331782Y153451D01*
X331837Y153670D01*
X331946Y154217D01*
X332111Y154873D01*
Y154928D01*
X332165Y155037D01*
X332220Y155201D01*
X332275Y155474D01*
X332439Y156076D01*
X332657Y156732D01*
Y156787D01*
X332712Y156896D01*
X332767Y157115D01*
X332821Y157334D01*
X332985Y157935D01*
X333204Y158537D01*
Y158591D01*
X333259Y158701D01*
X333313Y158865D01*
X333368Y159083D01*
X333532Y159575D01*
X333642Y160122D01*
Y160177D01*
X333696Y160232D01*
X333751Y160560D01*
X333915Y160997D01*
X334024Y161435D01*
Y161489D01*
X334079Y161653D01*
X334188Y161872D01*
X334243Y162145D01*
X334462Y162911D01*
X334681Y163731D01*
Y163786D01*
X334735Y163950D01*
X334790Y164169D01*
X334899Y164497D01*
X334954Y164879D01*
X335063Y165262D01*
X335282Y166192D01*
Y166246D01*
X335337Y166301D01*
X335555Y166575D01*
X335883Y166903D01*
X336266Y167176D01*
X336321D01*
X336376Y167231D01*
X336649Y167340D01*
X337086Y167449D01*
X337579Y167504D01*
X337688Y167449D01*
D02*
G37*
G36*
X380479Y201614D02*
X380742Y201548D01*
X380774D01*
X380807Y201515D01*
X380971Y201482D01*
X381201Y201384D01*
X381430Y201220D01*
X381496Y201187D01*
X381594Y201089D01*
X381758Y200925D01*
X381890Y200695D01*
X381922Y200630D01*
X381988Y200498D01*
X382054Y200269D01*
X382086Y199974D01*
Y199941D01*
Y199842D01*
X382021Y199580D01*
Y199547D01*
X381988Y199482D01*
X381857Y199318D01*
X381824Y199252D01*
X381693Y199154D01*
X381627D01*
X381496Y199121D01*
X381332D01*
X381135Y199154D01*
X380938Y199186D01*
X380906D01*
X380807Y199219D01*
X380643Y199285D01*
X380479Y199318D01*
X380446Y199350D01*
X380348Y199383D01*
X380184Y199416D01*
X380020Y199482D01*
X379987D01*
X379889Y199514D01*
X379758Y199547D01*
X379266D01*
X379036Y199514D01*
X378806Y199482D01*
X378511Y199416D01*
X377921Y199219D01*
X377888D01*
X377790Y199154D01*
X377626Y199088D01*
X377429Y199022D01*
X377166Y198891D01*
X376904Y198760D01*
X376314Y198432D01*
X376281Y198399D01*
X376182Y198334D01*
X376051Y198235D01*
X375854Y198104D01*
X375395Y197776D01*
X374870Y197350D01*
X374838Y197317D01*
X374739Y197251D01*
X374608Y197120D01*
X374444Y196989D01*
X374050Y196595D01*
X373624Y196169D01*
X373591Y196103D01*
X373460Y195972D01*
X373329Y195808D01*
X373198Y195578D01*
X373165Y195546D01*
X373132Y195414D01*
X373099Y195218D01*
X373066Y195021D01*
Y194955D01*
X373099Y194791D01*
X373198Y194594D01*
X373394Y194398D01*
X373427D01*
X373460Y194365D01*
X373624Y194299D01*
X373919Y194201D01*
X374247Y194168D01*
X375690D01*
X375854Y194201D01*
X376445D01*
X376609Y194234D01*
X377265D01*
X377429Y194201D01*
X377855Y194168D01*
X378282Y194037D01*
X378314D01*
X378380Y194004D01*
X378511Y193971D01*
X378642Y193906D01*
X379003Y193742D01*
X379364Y193512D01*
X379397D01*
X379462Y193446D01*
X379659Y193250D01*
X379889Y192987D01*
X380118Y192594D01*
Y192561D01*
X380151Y192495D01*
X380217Y192397D01*
X380282Y192233D01*
X380315Y192069D01*
X380381Y191839D01*
X380414Y191347D01*
Y191314D01*
Y191282D01*
Y191085D01*
X380348Y190790D01*
X380282Y190462D01*
Y190429D01*
X380250Y190396D01*
X380217Y190199D01*
X380118Y189904D01*
X379954Y189576D01*
Y189543D01*
X379922Y189510D01*
X379790Y189314D01*
X379626Y189051D01*
X379430Y188723D01*
Y188690D01*
X379364Y188658D01*
X379233Y188461D01*
X379036Y188198D01*
X378806Y187870D01*
X378774Y187838D01*
X378708Y187739D01*
X378577Y187608D01*
X378446Y187411D01*
X378249Y187182D01*
X378019Y186952D01*
X377527Y186460D01*
X377494Y186427D01*
X377396Y186362D01*
X377265Y186230D01*
X377068Y186066D01*
X376838Y185902D01*
X376576Y185706D01*
X375986Y185312D01*
X375953Y185279D01*
X375854Y185246D01*
X375690Y185148D01*
X375494Y185050D01*
X375231Y184918D01*
X374936Y184787D01*
X374280Y184558D01*
X374247D01*
X374116Y184525D01*
X373952Y184459D01*
X373722Y184426D01*
X373460Y184361D01*
X373132Y184295D01*
X372476Y184262D01*
X372214D01*
X371951Y184295D01*
X371623Y184328D01*
X371558D01*
X371361Y184394D01*
X371098Y184459D01*
X370770Y184558D01*
X370738D01*
X370705Y184590D01*
X370541Y184656D01*
X370278Y184754D01*
X369983Y184886D01*
X369918Y184918D01*
X369754Y185050D01*
X369557Y185181D01*
X369327Y185378D01*
X369294Y185443D01*
X369163Y185574D01*
X369032Y185771D01*
X368901Y186001D01*
X368868Y186066D01*
X368835Y186230D01*
X368770Y186460D01*
X368737Y186722D01*
Y186755D01*
Y186854D01*
X368770Y187083D01*
Y187116D01*
X368835Y187182D01*
X368934Y187247D01*
X369098Y187280D01*
X369130D01*
X369163Y187247D01*
X369327Y187182D01*
X369557Y187116D01*
X369819Y186985D01*
X369852D01*
X369885Y186952D01*
X370082Y186886D01*
X370311Y186788D01*
X370606Y186657D01*
X370639D01*
X370672Y186624D01*
X370869Y186558D01*
X371131Y186493D01*
X371459Y186394D01*
X371525D01*
X371623Y186362D01*
X371754D01*
X372050Y186329D01*
X372410Y186296D01*
X372640D01*
X372771Y186329D01*
X373165Y186362D01*
X373591Y186427D01*
X373624D01*
X373690Y186460D01*
X373821Y186493D01*
X373985Y186526D01*
X374346Y186657D01*
X374772Y186821D01*
X374805D01*
X374870Y186886D01*
X375002Y186952D01*
X375133Y187018D01*
X375494Y187247D01*
X375887Y187510D01*
X375920Y187542D01*
X375986Y187575D01*
X376084Y187674D01*
X376215Y187772D01*
X376510Y188034D01*
X376838Y188395D01*
X376871Y188428D01*
X376937Y188494D01*
X377002Y188592D01*
X377134Y188723D01*
X377396Y189051D01*
X377658Y189379D01*
Y189412D01*
X377724Y189445D01*
X377855Y189642D01*
X378019Y189904D01*
X378183Y190199D01*
Y190232D01*
X378216Y190265D01*
X378282Y190396D01*
X378380Y190593D01*
X378446Y190790D01*
X378478Y190822D01*
X378511Y190954D01*
X378544Y191085D01*
Y191216D01*
Y191282D01*
X378511Y191380D01*
X378478Y191544D01*
X378347Y191708D01*
X378314Y191741D01*
X378216Y191839D01*
X378085Y191938D01*
X377855Y192036D01*
X377790Y192069D01*
X377658Y192102D01*
X377429Y192167D01*
X377166Y192200D01*
X377101D01*
X376937Y192233D01*
X376674Y192266D01*
X376018D01*
X375789Y192233D01*
X375362D01*
X375100Y192200D01*
X373690D01*
X373460Y192233D01*
X373165Y192266D01*
X373099D01*
X372935Y192331D01*
X372673Y192397D01*
X372410Y192528D01*
X372345Y192561D01*
X372181Y192659D01*
X371984Y192823D01*
X371722Y193020D01*
X371689Y193086D01*
X371558Y193250D01*
X371394Y193479D01*
X371230Y193807D01*
Y193840D01*
X371197Y193906D01*
X371164Y194004D01*
X371098Y194135D01*
Y194168D01*
Y194266D01*
X371066Y194430D01*
Y194594D01*
Y194627D01*
Y194758D01*
Y194922D01*
X371098Y195086D01*
Y195119D01*
X371131Y195218D01*
X371164Y195349D01*
X371197Y195513D01*
Y195546D01*
X371230Y195611D01*
X371262Y195710D01*
X371295Y195874D01*
X371459Y196202D01*
X371689Y196595D01*
X371722Y196628D01*
X371754Y196694D01*
X371820Y196792D01*
X371918Y196956D01*
X372181Y197284D01*
X372509Y197678D01*
X372542Y197710D01*
X372607Y197776D01*
X372706Y197874D01*
X372837Y198006D01*
X373165Y198334D01*
X373558Y198694D01*
X373591Y198727D01*
X373657Y198793D01*
X373788Y198891D01*
X373919Y199022D01*
X374313Y199318D01*
X374739Y199646D01*
X374772Y199678D01*
X374838Y199711D01*
X374969Y199810D01*
X375133Y199908D01*
X375526Y200138D01*
X375953Y200400D01*
X375986Y200433D01*
X376051Y200466D01*
X376182Y200531D01*
X376314Y200630D01*
X376674Y200826D01*
X377035Y201023D01*
X377068D01*
X377166Y201089D01*
X377298Y201122D01*
X377494Y201220D01*
X377691Y201286D01*
X377954Y201384D01*
X378478Y201515D01*
X378511D01*
X378610Y201548D01*
X378741Y201581D01*
X378938Y201614D01*
X379167D01*
X379430Y201646D01*
X379954Y201679D01*
X380217D01*
X380479Y201614D01*
D02*
G37*
G36*
X367031D02*
X367294Y201548D01*
X367326D01*
X367359Y201515D01*
X367523Y201482D01*
X367753Y201384D01*
X367982Y201220D01*
X368048Y201187D01*
X368146Y201089D01*
X368310Y200925D01*
X368442Y200695D01*
X368474Y200630D01*
X368540Y200498D01*
X368606Y200269D01*
X368638Y199974D01*
Y199941D01*
Y199842D01*
X368573Y199580D01*
Y199547D01*
X368540Y199482D01*
X368409Y199318D01*
X368376Y199252D01*
X368245Y199154D01*
X368179D01*
X368048Y199121D01*
X367884D01*
X367687Y199154D01*
X367490Y199186D01*
X367458D01*
X367359Y199219D01*
X367195Y199285D01*
X367031Y199318D01*
X366998Y199350D01*
X366900Y199383D01*
X366736Y199416D01*
X366572Y199482D01*
X366539D01*
X366441Y199514D01*
X366310Y199547D01*
X365818D01*
X365588Y199514D01*
X365358Y199482D01*
X365063Y199416D01*
X364473Y199219D01*
X364440D01*
X364342Y199154D01*
X364178Y199088D01*
X363981Y199022D01*
X363718Y198891D01*
X363456Y198760D01*
X362866Y198432D01*
X362833Y198399D01*
X362734Y198334D01*
X362603Y198235D01*
X362406Y198104D01*
X361947Y197776D01*
X361422Y197350D01*
X361390Y197317D01*
X361291Y197251D01*
X361160Y197120D01*
X360996Y196989D01*
X360602Y196595D01*
X360176Y196169D01*
X360143Y196103D01*
X360012Y195972D01*
X359881Y195808D01*
X359750Y195578D01*
X359717Y195546D01*
X359684Y195414D01*
X359651Y195218D01*
X359618Y195021D01*
Y194955D01*
X359651Y194791D01*
X359750Y194594D01*
X359946Y194398D01*
X359979D01*
X360012Y194365D01*
X360176Y194299D01*
X360471Y194201D01*
X360799Y194168D01*
X362242D01*
X362406Y194201D01*
X362997D01*
X363161Y194234D01*
X363817D01*
X363981Y194201D01*
X364407Y194168D01*
X364834Y194037D01*
X364866D01*
X364932Y194004D01*
X365063Y193971D01*
X365194Y193906D01*
X365555Y193742D01*
X365916Y193512D01*
X365949D01*
X366014Y193446D01*
X366211Y193250D01*
X366441Y192987D01*
X366670Y192594D01*
Y192561D01*
X366703Y192495D01*
X366769Y192397D01*
X366834Y192233D01*
X366867Y192069D01*
X366933Y191839D01*
X366966Y191347D01*
Y191314D01*
Y191282D01*
Y191085D01*
X366900Y190790D01*
X366834Y190462D01*
Y190429D01*
X366802Y190396D01*
X366769Y190199D01*
X366670Y189904D01*
X366506Y189576D01*
Y189543D01*
X366474Y189510D01*
X366342Y189314D01*
X366178Y189051D01*
X365982Y188723D01*
Y188690D01*
X365916Y188658D01*
X365785Y188461D01*
X365588Y188198D01*
X365358Y187870D01*
X365326Y187838D01*
X365260Y187739D01*
X365129Y187608D01*
X364998Y187411D01*
X364801Y187182D01*
X364571Y186952D01*
X364079Y186460D01*
X364046Y186427D01*
X363948Y186362D01*
X363817Y186230D01*
X363620Y186066D01*
X363390Y185902D01*
X363128Y185706D01*
X362538Y185312D01*
X362505Y185279D01*
X362406Y185246D01*
X362242Y185148D01*
X362046Y185050D01*
X361783Y184918D01*
X361488Y184787D01*
X360832Y184558D01*
X360799D01*
X360668Y184525D01*
X360504Y184459D01*
X360274Y184426D01*
X360012Y184361D01*
X359684Y184295D01*
X359028Y184262D01*
X358766D01*
X358503Y184295D01*
X358175Y184328D01*
X358110D01*
X357913Y184394D01*
X357650Y184459D01*
X357322Y184558D01*
X357290D01*
X357257Y184590D01*
X357093Y184656D01*
X356830Y184754D01*
X356535Y184886D01*
X356470Y184918D01*
X356306Y185050D01*
X356109Y185181D01*
X355879Y185378D01*
X355846Y185443D01*
X355715Y185574D01*
X355584Y185771D01*
X355453Y186001D01*
X355420Y186066D01*
X355387Y186230D01*
X355322Y186460D01*
X355289Y186722D01*
Y186755D01*
Y186854D01*
X355322Y187083D01*
Y187116D01*
X355387Y187182D01*
X355486Y187247D01*
X355650Y187280D01*
X355682D01*
X355715Y187247D01*
X355879Y187182D01*
X356109Y187116D01*
X356371Y186985D01*
X356404D01*
X356437Y186952D01*
X356634Y186886D01*
X356863Y186788D01*
X357158Y186657D01*
X357191D01*
X357224Y186624D01*
X357421Y186558D01*
X357683Y186493D01*
X358011Y186394D01*
X358077D01*
X358175Y186362D01*
X358306D01*
X358602Y186329D01*
X358962Y186296D01*
X359192D01*
X359323Y186329D01*
X359717Y186362D01*
X360143Y186427D01*
X360176D01*
X360242Y186460D01*
X360373Y186493D01*
X360537Y186526D01*
X360898Y186657D01*
X361324Y186821D01*
X361357D01*
X361422Y186886D01*
X361554Y186952D01*
X361685Y187018D01*
X362046Y187247D01*
X362439Y187510D01*
X362472Y187542D01*
X362538Y187575D01*
X362636Y187674D01*
X362767Y187772D01*
X363062Y188034D01*
X363390Y188395D01*
X363423Y188428D01*
X363489Y188494D01*
X363554Y188592D01*
X363686Y188723D01*
X363948Y189051D01*
X364210Y189379D01*
Y189412D01*
X364276Y189445D01*
X364407Y189642D01*
X364571Y189904D01*
X364735Y190199D01*
Y190232D01*
X364768Y190265D01*
X364834Y190396D01*
X364932Y190593D01*
X364998Y190790D01*
X365030Y190822D01*
X365063Y190954D01*
X365096Y191085D01*
Y191216D01*
Y191282D01*
X365063Y191380D01*
X365030Y191544D01*
X364899Y191708D01*
X364866Y191741D01*
X364768Y191839D01*
X364637Y191938D01*
X364407Y192036D01*
X364342Y192069D01*
X364210Y192102D01*
X363981Y192167D01*
X363718Y192200D01*
X363653D01*
X363489Y192233D01*
X363226Y192266D01*
X362570D01*
X362341Y192233D01*
X361914D01*
X361652Y192200D01*
X360242D01*
X360012Y192233D01*
X359717Y192266D01*
X359651D01*
X359487Y192331D01*
X359225Y192397D01*
X358962Y192528D01*
X358897Y192561D01*
X358733Y192659D01*
X358536Y192823D01*
X358274Y193020D01*
X358241Y193086D01*
X358110Y193250D01*
X357946Y193479D01*
X357782Y193807D01*
Y193840D01*
X357749Y193906D01*
X357716Y194004D01*
X357650Y194135D01*
Y194168D01*
Y194266D01*
X357618Y194430D01*
Y194594D01*
Y194627D01*
Y194758D01*
Y194922D01*
X357650Y195086D01*
Y195119D01*
X357683Y195218D01*
X357716Y195349D01*
X357749Y195513D01*
Y195546D01*
X357782Y195611D01*
X357814Y195710D01*
X357847Y195874D01*
X358011Y196202D01*
X358241Y196595D01*
X358274Y196628D01*
X358306Y196694D01*
X358372Y196792D01*
X358470Y196956D01*
X358733Y197284D01*
X359061Y197678D01*
X359094Y197710D01*
X359159Y197776D01*
X359258Y197874D01*
X359389Y198006D01*
X359717Y198334D01*
X360110Y198694D01*
X360143Y198727D01*
X360209Y198793D01*
X360340Y198891D01*
X360471Y199022D01*
X360865Y199318D01*
X361291Y199646D01*
X361324Y199678D01*
X361390Y199711D01*
X361521Y199810D01*
X361685Y199908D01*
X362078Y200138D01*
X362505Y200400D01*
X362538Y200433D01*
X362603Y200466D01*
X362734Y200531D01*
X362866Y200630D01*
X363226Y200826D01*
X363587Y201023D01*
X363620D01*
X363718Y201089D01*
X363850Y201122D01*
X364046Y201220D01*
X364243Y201286D01*
X364506Y201384D01*
X365030Y201515D01*
X365063D01*
X365162Y201548D01*
X365293Y201581D01*
X365490Y201614D01*
X365719D01*
X365982Y201646D01*
X366506Y201679D01*
X366769D01*
X367031Y201614D01*
D02*
G37*
G36*
X355453Y200138D02*
X355715Y200105D01*
X355781D01*
X355912Y200072D01*
X356076Y200039D01*
X356207Y199974D01*
X356240D01*
X356306Y199908D01*
X356404Y199842D01*
X356470Y199744D01*
X356502Y199678D01*
X356535Y199514D01*
Y199482D01*
Y199416D01*
X356470Y199219D01*
Y199186D01*
X356404Y199154D01*
X356338Y199055D01*
X356240Y198957D01*
X356207Y198924D01*
X356142Y198891D01*
X355978Y198793D01*
X355814Y198727D01*
X355781D01*
X355650Y198662D01*
X355453Y198629D01*
X355190Y198596D01*
X355092D01*
X354961Y198563D01*
X354731Y198530D01*
X354666D01*
X354502Y198498D01*
X354272Y198465D01*
X353977Y198399D01*
X353911D01*
X353747Y198366D01*
X353485Y198334D01*
X353222Y198268D01*
X353157D01*
X353026Y198235D01*
X352862Y198202D01*
X352698Y198170D01*
X352730D01*
X352665Y198137D01*
X352566Y198104D01*
X352402Y198071D01*
X352370D01*
X352238Y198038D01*
X352042Y197973D01*
X351812Y197907D01*
X351746D01*
X351582Y197874D01*
X351353Y197809D01*
X351058Y197710D01*
X351025D01*
X350992Y197678D01*
X350828Y197645D01*
X350566Y197546D01*
X350270Y197481D01*
X350205D01*
X350041Y197415D01*
X349811Y197350D01*
X349549Y197251D01*
X349483D01*
X349352Y197186D01*
X349188Y197153D01*
X349024Y197087D01*
X348991D01*
X348926Y197054D01*
X348794Y196989D01*
X348663Y196923D01*
X348335Y196726D01*
X348007Y196431D01*
Y196398D01*
X347942Y196366D01*
X347810Y196169D01*
X347614Y195841D01*
X347417Y195480D01*
Y195447D01*
X347384Y195414D01*
X347351Y195316D01*
X347286Y195152D01*
Y195119D01*
X347220Y194988D01*
X347154Y194824D01*
X347089Y194627D01*
Y194562D01*
X347023Y194430D01*
X346958Y194234D01*
X346859Y193971D01*
Y193906D01*
X346794Y193774D01*
X346728Y193578D01*
X346662Y193348D01*
Y193315D01*
X346597Y193184D01*
X346531Y192987D01*
X346466Y192790D01*
Y192758D01*
X346433Y192659D01*
X346400Y192528D01*
X346367Y192430D01*
X346334Y192364D01*
X346302Y192233D01*
Y192200D01*
Y192134D01*
Y192102D01*
X346334Y192069D01*
X346367D01*
X346466Y192102D01*
X346695Y192134D01*
X346990Y192200D01*
X347023D01*
X347089Y192233D01*
X347187Y192266D01*
X347351Y192298D01*
X347712Y192397D01*
X348171Y192561D01*
X348204D01*
X348302Y192594D01*
X348434Y192659D01*
X348630Y192692D01*
X348827Y192790D01*
X349090Y192856D01*
X349647Y193020D01*
X349680D01*
X349778Y193053D01*
X349942Y193118D01*
X350139Y193184D01*
X350598Y193315D01*
X351123Y193479D01*
X351156D01*
X351254Y193512D01*
X351386Y193545D01*
X351550Y193610D01*
X351976Y193742D01*
X352402Y193840D01*
X352435D01*
X352501Y193873D01*
X352730Y193938D01*
X352993Y193971D01*
X353222Y194004D01*
X353419D01*
X353583Y193938D01*
X353714Y193873D01*
X353747Y193840D01*
X353780Y193774D01*
X353813Y193709D01*
X353846Y193578D01*
Y193512D01*
X353813Y193348D01*
X353747Y193151D01*
X353583Y192922D01*
X353550Y192889D01*
X353386Y192758D01*
X353190Y192561D01*
X352894Y192397D01*
X352862D01*
X352796Y192364D01*
X352632Y192298D01*
X352402Y192200D01*
X352337D01*
X352173Y192134D01*
X351943Y192069D01*
X351648Y191970D01*
X351615D01*
X351582Y191938D01*
X351418Y191905D01*
X351156Y191806D01*
X350894Y191708D01*
X350828D01*
X350697Y191642D01*
X350533Y191610D01*
X350369Y191544D01*
X350336D01*
X350205Y191478D01*
X350008Y191413D01*
X349778Y191314D01*
X349221Y191118D01*
X348926Y190986D01*
X348663Y190888D01*
X348630D01*
X348565Y190855D01*
X348434Y190790D01*
X348270Y190724D01*
X347942Y190593D01*
X347581Y190462D01*
X347515Y190429D01*
X347351Y190363D01*
X347154Y190298D01*
X346958Y190199D01*
X346925D01*
X346826Y190134D01*
X346695Y190101D01*
X346564Y190035D01*
X346531D01*
X346433Y190002D01*
X346302Y189970D01*
X346138Y189937D01*
X346105D01*
X345974Y189904D01*
X345777Y189871D01*
X345514Y189806D01*
Y189773D01*
X345449Y189642D01*
X345383Y189412D01*
X345285Y189117D01*
Y189084D01*
Y189051D01*
X345252Y188953D01*
X345219Y188822D01*
X345154Y188526D01*
X345055Y188166D01*
Y188133D01*
X345022Y188067D01*
Y188002D01*
X344990Y187870D01*
X344924Y187575D01*
X344858Y187247D01*
Y187182D01*
X344826Y187018D01*
X344793Y186854D01*
Y186690D01*
Y186657D01*
Y186591D01*
Y186493D01*
X344826Y186394D01*
X344858Y186329D01*
X344957Y186263D01*
X344990D01*
X345088Y186230D01*
X345416D01*
X345580Y186263D01*
X345744D01*
X345974Y186296D01*
X346466Y186394D01*
X346498D01*
X346597Y186427D01*
X346728Y186460D01*
X346925Y186493D01*
X347122Y186558D01*
X347384Y186624D01*
X347909Y186788D01*
X347942D01*
X348007Y186821D01*
X348138Y186886D01*
X348302Y186952D01*
X348663Y187083D01*
X349057Y187280D01*
X349090D01*
X349155Y187346D01*
X349254Y187378D01*
X349385Y187444D01*
X349680Y187641D01*
X350008Y187805D01*
X350041D01*
X350074Y187838D01*
X350303Y187969D01*
X350566Y188100D01*
X350894Y188231D01*
X350926D01*
X350959Y188264D01*
X351156Y188330D01*
X351451Y188362D01*
X351812Y188395D01*
X351910D01*
X352074Y188362D01*
X352173D01*
X352337Y188297D01*
X352370D01*
X352402Y188264D01*
X352534Y188166D01*
X352566Y188133D01*
X352599Y188100D01*
X352632Y188002D01*
Y187903D01*
Y187838D01*
X352566Y187706D01*
X352468Y187510D01*
X352304Y187280D01*
X352271Y187214D01*
X352107Y187083D01*
X351910Y186919D01*
X351615Y186690D01*
X351582D01*
X351550Y186657D01*
X351353Y186526D01*
X351058Y186362D01*
X350697Y186165D01*
X350664D01*
X350598Y186132D01*
X350500Y186066D01*
X350402Y186034D01*
X350074Y185870D01*
X349680Y185673D01*
X349647D01*
X349582Y185640D01*
X349483Y185607D01*
X349352Y185542D01*
X349024Y185410D01*
X348663Y185246D01*
X348630D01*
X348565Y185214D01*
X348499Y185181D01*
X348368Y185148D01*
X348073Y185050D01*
X347745Y184951D01*
X347712D01*
X347581Y184886D01*
X347384Y184853D01*
X347122Y184754D01*
X346826Y184689D01*
X346498Y184590D01*
X345810Y184459D01*
X345777D01*
X345646Y184426D01*
X345482Y184394D01*
X345252D01*
X345022Y184361D01*
X344727Y184328D01*
X344170Y184295D01*
X344038D01*
X343874Y184328D01*
X343710D01*
X343284Y184426D01*
X343087Y184492D01*
X342923Y184590D01*
X342890D01*
X342858Y184656D01*
X342792Y184722D01*
X342726Y184820D01*
X342628Y184984D01*
X342562Y185148D01*
X342530Y185345D01*
X342497Y185607D01*
Y185640D01*
Y185673D01*
Y185837D01*
X342530Y186099D01*
X342595Y186394D01*
Y186427D01*
X342628Y186460D01*
X342661Y186657D01*
X342726Y186919D01*
X342825Y187280D01*
X342956Y187739D01*
X343120Y188198D01*
X343448Y189248D01*
Y189281D01*
X343481Y189314D01*
X343546Y189478D01*
X343612Y189773D01*
X343743Y190134D01*
X343874Y190560D01*
X344038Y191019D01*
X344334Y192036D01*
X344366Y192102D01*
X344399Y192266D01*
X344465Y192528D01*
X344563Y192856D01*
X344662Y193217D01*
X344793Y193610D01*
X344891Y194004D01*
X344990Y194365D01*
Y194398D01*
X345022Y194529D01*
X345088Y194693D01*
X345154Y194922D01*
X345285Y195447D01*
X345449Y196005D01*
Y196038D01*
X345482Y196136D01*
X345514Y196234D01*
X345580Y196398D01*
X345678Y196792D01*
X345810Y197186D01*
Y197218D01*
X345842Y197284D01*
X345875Y197382D01*
X345941Y197481D01*
X346072Y197809D01*
X346203Y198137D01*
X346236Y198202D01*
X346302Y198334D01*
X346367Y198498D01*
X346466Y198727D01*
X346498Y198793D01*
X346564Y198924D01*
X346695Y199121D01*
X346826Y199318D01*
X346859Y199350D01*
X346958Y199482D01*
X347089Y199613D01*
X347220Y199744D01*
X347253Y199777D01*
X347351Y199842D01*
X347482Y199875D01*
X347614Y199908D01*
X347876D01*
X348106Y199842D01*
X348302Y199777D01*
X348335Y199744D01*
X348434Y199711D01*
X348499Y199613D01*
X348565Y199514D01*
X348663Y199088D01*
X348926D01*
X349090Y199121D01*
X349122D01*
X349254Y199154D01*
X349418Y199186D01*
X349614Y199219D01*
X349647D01*
X349778Y199252D01*
X349942Y199285D01*
X350106Y199318D01*
X350139D01*
X350238Y199350D01*
X350336Y199416D01*
X350434Y199449D01*
X350467D01*
X350566Y199482D01*
X350697Y199514D01*
X350861Y199580D01*
X351287Y199678D01*
X351746Y199777D01*
X351779D01*
X351845Y199810D01*
X351976D01*
X352107Y199842D01*
X352468Y199941D01*
X352894Y200006D01*
X352927D01*
X352993Y200039D01*
X353091D01*
X353222Y200072D01*
X353583Y200105D01*
X353944Y200138D01*
X354141D01*
X354239Y200170D01*
X355223D01*
X355453Y200138D01*
D02*
G37*
G36*
X313010Y201023D02*
X313436D01*
X313666Y200990D01*
X313862D01*
X314059Y200958D01*
X314289Y200925D01*
X314354D01*
X314486Y200892D01*
X314650Y200859D01*
X314846Y200826D01*
X314879D01*
X315010Y200761D01*
X315142Y200662D01*
X315273Y200498D01*
X315306Y200466D01*
X315371Y200367D01*
X315437Y200203D01*
X315470Y200006D01*
Y199974D01*
Y199875D01*
X315437Y199744D01*
X315404Y199580D01*
Y199547D01*
X315371Y199449D01*
X315273Y199219D01*
Y199186D01*
X315207Y199154D01*
X315142Y199055D01*
X315043Y198990D01*
X315010D01*
X314945Y198957D01*
X314814Y198924D01*
X314650Y198891D01*
X314584D01*
X314387Y198924D01*
X314125Y198990D01*
X313764Y199022D01*
X313666D01*
X313567Y199055D01*
X313469D01*
X313141Y199088D01*
X311829D01*
X311501Y199055D01*
X310746Y199022D01*
X310582D01*
X310386Y198990D01*
X310123D01*
X309828Y198924D01*
X309467Y198891D01*
X308713Y198727D01*
X308680D01*
X308647Y198694D01*
X308614Y198629D01*
Y198563D01*
Y198399D01*
Y198366D01*
Y198301D01*
Y198202D01*
X308582Y198038D01*
X308549Y197710D01*
X308516Y197382D01*
Y197350D01*
Y197317D01*
X308483Y197120D01*
X308418Y196825D01*
X308319Y196497D01*
Y196464D01*
X308286Y196431D01*
X308254Y196234D01*
X308155Y195906D01*
X308057Y195546D01*
Y195513D01*
X308024Y195447D01*
X307991Y195349D01*
X307958Y195218D01*
X307893Y195021D01*
X307827Y194824D01*
X307663Y194332D01*
Y194299D01*
X307630Y194201D01*
X307598Y194037D01*
X307532Y193840D01*
X307466Y193610D01*
X307368Y193315D01*
X307270Y192987D01*
X307171Y192626D01*
Y192594D01*
X307138Y192462D01*
X307073Y192233D01*
X307007Y191970D01*
X306909Y191610D01*
X306810Y191216D01*
X306679Y190757D01*
X306548Y190232D01*
X306056Y188133D01*
Y188100D01*
X306023Y188002D01*
X305990Y187870D01*
X305958Y187706D01*
X305859Y187280D01*
X305761Y186821D01*
Y186788D01*
Y186722D01*
X305728Y186624D01*
X305695Y186460D01*
X305630Y186132D01*
X305564Y185706D01*
Y185673D01*
X305498Y185607D01*
X305400Y185509D01*
X305236Y185378D01*
X305203Y185345D01*
X305072Y185312D01*
X304842Y185246D01*
X304580Y185214D01*
X304449D01*
X304318Y185246D01*
X304154Y185312D01*
X304121Y185345D01*
X304055Y185410D01*
X303957Y185509D01*
X303858Y185640D01*
Y185673D01*
X303793Y185771D01*
X303760Y185902D01*
X303694Y186066D01*
Y186099D01*
Y186198D01*
Y186362D01*
X303727Y186526D01*
Y186558D01*
X303760Y186591D01*
Y186690D01*
X303793Y186821D01*
X303891Y187182D01*
X303990Y187641D01*
X304154Y188166D01*
X304285Y188789D01*
X304482Y189445D01*
X304646Y190101D01*
Y190134D01*
X304678Y190199D01*
X304711Y190298D01*
X304744Y190429D01*
X304842Y190790D01*
X304974Y191249D01*
X305105Y191774D01*
X305269Y192397D01*
X305466Y193053D01*
X305630Y193709D01*
Y193742D01*
X305662Y193840D01*
X305695Y193971D01*
X305761Y194168D01*
X305892Y194594D01*
X305990Y195054D01*
Y195086D01*
X306023Y195152D01*
X306056Y195283D01*
X306089Y195414D01*
X306187Y195775D01*
X306253Y196169D01*
Y196202D01*
X306286Y196267D01*
X306318Y196464D01*
X306384Y196759D01*
X306417Y197054D01*
Y197087D01*
Y197120D01*
X306450Y197317D01*
X306482Y197546D01*
Y197809D01*
Y197842D01*
Y197940D01*
Y197973D01*
Y198006D01*
Y198137D01*
X306384D01*
X306220Y198071D01*
X305990Y198006D01*
X305925Y197973D01*
X305761Y197940D01*
X305466Y197842D01*
X305105Y197710D01*
X305072D01*
X305006Y197678D01*
X304908Y197645D01*
X304777Y197612D01*
X304449Y197448D01*
X304055Y197284D01*
X304022D01*
X303957Y197251D01*
X303858Y197186D01*
X303727Y197153D01*
X303399Y196989D01*
X303038Y196792D01*
X302973Y196759D01*
X302842Y196694D01*
X302612Y196562D01*
X302415Y196464D01*
X302382D01*
X302251Y196398D01*
X302120Y196333D01*
X301956Y196267D01*
X301923D01*
X301858Y196234D01*
X301628Y196169D01*
X301267D01*
X301136Y196202D01*
X300939Y196267D01*
X300742Y196398D01*
X300710Y196431D01*
X300644Y196595D01*
X300546Y196792D01*
X300513Y197087D01*
Y197120D01*
Y197218D01*
X300546Y197481D01*
Y197514D01*
X300578Y197612D01*
X300710Y197809D01*
X300742Y197842D01*
X300808Y197907D01*
X301005Y198071D01*
X301038Y198104D01*
X301136Y198170D01*
X301267Y198235D01*
X301431Y198334D01*
X301464Y198366D01*
X301562Y198399D01*
X301694Y198465D01*
X301890Y198563D01*
X302153Y198694D01*
X302415Y198826D01*
X302776Y198957D01*
X303137Y199121D01*
X303957Y199449D01*
X304875Y199810D01*
X305859Y200138D01*
X306909Y200400D01*
X306942D01*
X307040Y200433D01*
X307171Y200466D01*
X307401Y200498D01*
X307630Y200564D01*
X307926Y200597D01*
X308286Y200662D01*
X308647Y200728D01*
X309500Y200859D01*
X310451Y200958D01*
X311435Y201023D01*
X312485Y201056D01*
X312813D01*
X313010Y201023D01*
D02*
G37*
G36*
X297954Y200794D02*
X298118Y200728D01*
X298282Y200597D01*
X298315Y200564D01*
X298381Y200466D01*
X298479Y200302D01*
X298578Y200072D01*
X298610Y200006D01*
X298643Y199875D01*
X298709Y199678D01*
X298774Y199416D01*
Y199350D01*
X298807Y199219D01*
X298840Y198990D01*
Y198793D01*
Y198760D01*
Y198694D01*
Y198596D01*
Y198432D01*
X298807Y198071D01*
X298742Y197612D01*
Y197579D01*
X298709Y197514D01*
Y197382D01*
X298676Y197218D01*
X298578Y196858D01*
X298479Y196431D01*
Y196366D01*
X298414Y196234D01*
X298348Y195972D01*
X298282Y195677D01*
X298151Y195283D01*
X298053Y194890D01*
X297725Y193971D01*
X297692Y193906D01*
X297659Y193774D01*
X297561Y193512D01*
X297430Y193184D01*
X297298Y192823D01*
X297102Y192397D01*
X296708Y191511D01*
X296675Y191446D01*
X296610Y191314D01*
X296478Y191085D01*
X296314Y190790D01*
X296118Y190429D01*
X295855Y190035D01*
X295298Y189215D01*
X295265Y189182D01*
X295166Y189018D01*
X295002Y188822D01*
X294773Y188526D01*
X294510Y188198D01*
X294182Y187870D01*
X293854Y187477D01*
X293461Y187116D01*
X293428Y187083D01*
X293362Y187018D01*
X293264Y186952D01*
X293133Y186821D01*
X292772Y186493D01*
X292346Y186165D01*
X292313Y186132D01*
X292247Y186099D01*
X292116Y186001D01*
X291985Y185902D01*
X291558Y185607D01*
X291099Y185312D01*
X291066D01*
X291001Y185246D01*
X290870Y185181D01*
X290673Y185115D01*
X290246Y184918D01*
X289754Y184754D01*
X289722D01*
X289623Y184722D01*
X289492Y184689D01*
X289328Y184656D01*
X288869Y184558D01*
X288377Y184525D01*
X288049D01*
X287819Y184558D01*
X287557Y184590D01*
X287262Y184623D01*
X286704Y184787D01*
X286671D01*
X286573Y184820D01*
X286442Y184886D01*
X286278Y184951D01*
X285884Y185181D01*
X285490Y185509D01*
X285458Y185542D01*
X285425Y185607D01*
X285326Y185706D01*
X285228Y185837D01*
X284998Y186230D01*
X284769Y186690D01*
Y186722D01*
X284736Y186821D01*
X284703Y186952D01*
X284670Y187149D01*
X284605Y187346D01*
X284572Y187608D01*
X284539Y188198D01*
Y188231D01*
Y188264D01*
Y188461D01*
X284572Y188723D01*
X284605Y189051D01*
Y189084D01*
Y189117D01*
X284638Y189346D01*
X284703Y189642D01*
X284769Y189970D01*
Y190035D01*
X284802Y190166D01*
X284867Y190363D01*
X284933Y190626D01*
X284998Y190921D01*
X285064Y191249D01*
X285261Y191905D01*
Y191938D01*
X285326Y192036D01*
X285359Y192200D01*
X285458Y192430D01*
X285523Y192659D01*
X285622Y192922D01*
X285818Y193479D01*
Y193512D01*
X285851Y193610D01*
X285917Y193742D01*
X285982Y193938D01*
X286146Y194398D01*
X286310Y194890D01*
Y194922D01*
X286343Y195021D01*
X286409Y195152D01*
X286474Y195316D01*
X286540Y195546D01*
X286606Y195775D01*
X286770Y196300D01*
X286901Y196792D01*
Y196825D01*
X286934Y196923D01*
Y197087D01*
X286966Y197284D01*
Y197350D01*
X286999Y197481D01*
Y197645D01*
X287032Y197874D01*
Y197940D01*
X287065Y198071D01*
X287098Y198268D01*
X287130Y198498D01*
Y198563D01*
X287196Y198694D01*
X287229Y198858D01*
X287327Y199055D01*
X287360Y199088D01*
X287426Y199219D01*
X287524Y199350D01*
X287622Y199482D01*
X287655Y199514D01*
X287754Y199580D01*
X287918Y199613D01*
X288147Y199646D01*
X288344D01*
X288508Y199580D01*
X288705Y199514D01*
X288738Y199482D01*
X288836Y199416D01*
X288967Y199318D01*
X289066Y199186D01*
X289098Y199154D01*
X289131Y199088D01*
X289197Y198924D01*
X289262Y198760D01*
Y198727D01*
X289295Y198596D01*
X289328Y198432D01*
Y198235D01*
Y198202D01*
Y198104D01*
Y197940D01*
X289295Y197776D01*
Y197743D01*
Y197645D01*
X289230Y197382D01*
Y197350D01*
X289197Y197284D01*
X289164Y197186D01*
X289131Y197054D01*
X289000Y196694D01*
X288836Y196234D01*
Y196202D01*
X288803Y196136D01*
X288738Y196005D01*
X288672Y195841D01*
X288574Y195611D01*
X288475Y195382D01*
X288246Y194824D01*
Y194791D01*
X288180Y194693D01*
X288114Y194529D01*
X288049Y194332D01*
X287950Y194070D01*
X287819Y193774D01*
X287590Y193118D01*
Y193086D01*
X287524Y192954D01*
X287458Y192790D01*
X287393Y192561D01*
X287294Y192266D01*
X287196Y191938D01*
X286999Y191216D01*
Y191183D01*
X286966Y191118D01*
Y191019D01*
X286934Y190855D01*
X286835Y190462D01*
X286737Y189970D01*
Y189937D01*
Y189871D01*
X286704Y189740D01*
Y189576D01*
X286671Y189182D01*
X286638Y188756D01*
Y188723D01*
Y188690D01*
Y188494D01*
X286671Y188198D01*
X286704Y187903D01*
Y187838D01*
X286770Y187674D01*
X286835Y187477D01*
X286966Y187247D01*
X286999Y187214D01*
X287098Y187083D01*
X287262Y186919D01*
X287491Y186755D01*
X287557Y186722D01*
X287721Y186690D01*
X287983Y186624D01*
X288311Y186591D01*
X288574D01*
X288803Y186624D01*
X289098Y186657D01*
X289164D01*
X289262Y186690D01*
X289394Y186722D01*
X289722Y186821D01*
X290115Y186985D01*
X290148Y187018D01*
X290246Y187050D01*
X290410Y187116D01*
X290607Y187247D01*
X290870Y187378D01*
X291132Y187542D01*
X291690Y187936D01*
X291722Y187969D01*
X291821Y188034D01*
X291952Y188166D01*
X292149Y188330D01*
X292346Y188526D01*
X292575Y188756D01*
X293067Y189281D01*
X293100Y189314D01*
X293166Y189412D01*
X293297Y189576D01*
X293461Y189773D01*
X293658Y190035D01*
X293854Y190298D01*
X294248Y190921D01*
X294281Y190954D01*
X294346Y191085D01*
X294445Y191249D01*
X294576Y191478D01*
X294740Y191774D01*
X294904Y192069D01*
X295232Y192758D01*
X295265Y192790D01*
X295298Y192922D01*
X295396Y193118D01*
X295494Y193348D01*
X295626Y193643D01*
X295757Y193971D01*
X296019Y194660D01*
Y194693D01*
X296085Y194824D01*
X296150Y195021D01*
X296216Y195283D01*
X296314Y195546D01*
X296380Y195874D01*
X296577Y196562D01*
Y196595D01*
X296610Y196628D01*
X296642Y196792D01*
X296675Y197054D01*
X296741Y197317D01*
Y197350D01*
Y197382D01*
X296774Y197546D01*
X296806Y197776D01*
Y198038D01*
Y198071D01*
Y198104D01*
X296839Y198268D01*
Y198530D01*
Y198826D01*
Y198858D01*
Y198891D01*
X296872Y199121D01*
X296905Y199416D01*
X296938Y199777D01*
Y199810D01*
Y199842D01*
X296970Y200039D01*
X297036Y200269D01*
X297167Y200498D01*
X297200Y200564D01*
X297331Y200662D01*
X297528Y200761D01*
X297790Y200826D01*
X297856D01*
X297954Y200794D01*
D02*
G37*
G36*
X273190Y200958D02*
X273354Y200925D01*
X273387D01*
X273486Y200892D01*
X273650Y200859D01*
X273814Y200826D01*
X273846D01*
X273978Y200794D01*
X274142Y200761D01*
X274338Y200695D01*
X274502D01*
X274666Y200662D01*
X275322D01*
X275421Y200695D01*
X275782D01*
X275913Y200728D01*
X276110D01*
X276372Y200761D01*
X276438D01*
X276634Y200794D01*
X277717D01*
X277979Y200761D01*
X278045D01*
X278242Y200728D01*
X278504Y200695D01*
X278832Y200662D01*
X278898D01*
X279127Y200597D01*
X279390Y200531D01*
X279718Y200433D01*
X279750D01*
X279783Y200400D01*
X280013Y200334D01*
X280275Y200203D01*
X280570Y200039D01*
X280603D01*
X280636Y200006D01*
X280800Y199875D01*
X281030Y199678D01*
X281259Y199449D01*
X281325Y199383D01*
X281423Y199219D01*
X281587Y198924D01*
X281718Y198596D01*
Y198563D01*
X281751Y198432D01*
X281784Y198301D01*
X281817Y198137D01*
Y198104D01*
X281850Y198006D01*
Y197874D01*
Y197743D01*
Y197710D01*
Y197645D01*
Y197514D01*
X281817Y197350D01*
X281718Y196923D01*
X281522Y196431D01*
X281489Y196398D01*
X281456Y196300D01*
X281358Y196169D01*
X281259Y196005D01*
X280898Y195578D01*
X280472Y195086D01*
X280439Y195054D01*
X280374Y194988D01*
X280242Y194857D01*
X280046Y194693D01*
X279849Y194529D01*
X279586Y194332D01*
X278996Y193906D01*
X278930Y193873D01*
X278766Y193774D01*
X278537Y193610D01*
X278209Y193446D01*
X278176D01*
X278143Y193414D01*
X277946Y193315D01*
X277684Y193151D01*
X277356Y192987D01*
X277323D01*
X277290Y192954D01*
X277126Y192856D01*
X276864Y192725D01*
X276602Y192561D01*
X276536Y192528D01*
X276438Y192462D01*
X276274Y192397D01*
X276142Y192298D01*
X276175D01*
X276208Y192266D01*
X276372Y192200D01*
X276602Y192069D01*
X276864Y191938D01*
X276897D01*
X276930Y191905D01*
X277126Y191806D01*
X277356Y191642D01*
X277651Y191446D01*
X277684D01*
X277717Y191413D01*
X277914Y191249D01*
X278143Y191052D01*
X278438Y190757D01*
X278471Y190724D01*
X278504Y190691D01*
X278701Y190494D01*
X278963Y190166D01*
X279291Y189773D01*
X279324Y189740D01*
X279357Y189674D01*
X279455Y189543D01*
X279554Y189412D01*
X279685Y189215D01*
X279849Y188986D01*
X280177Y188428D01*
X280210Y188395D01*
X280275Y188297D01*
X280374Y188133D01*
X280472Y187903D01*
X280636Y187641D01*
X280800Y187346D01*
X280964Y186985D01*
X281161Y186591D01*
X281194Y186558D01*
X281226Y186427D01*
X281259Y186230D01*
X281292Y186034D01*
Y186001D01*
Y185902D01*
X281259Y185771D01*
X281194Y185607D01*
X281161Y185574D01*
X281128Y185476D01*
X281030Y185345D01*
X280931Y185181D01*
X280898Y185148D01*
X280833Y185082D01*
X280734Y185017D01*
X280570Y184918D01*
X280538D01*
X280439Y184886D01*
X280308Y184853D01*
X280111Y184820D01*
X280046D01*
X279914Y184853D01*
X279685Y184918D01*
X279488Y185082D01*
X279455Y185115D01*
X279357Y185279D01*
X279193Y185476D01*
X279029Y185771D01*
Y185804D01*
X278996Y185837D01*
X278930Y185935D01*
X278898Y186066D01*
X278734Y186394D01*
X278537Y186788D01*
Y186821D01*
X278504Y186886D01*
X278438Y187018D01*
X278373Y187149D01*
X278209Y187542D01*
X277979Y187969D01*
X277946Y188002D01*
X277914Y188067D01*
X277815Y188198D01*
X277717Y188362D01*
X277454Y188723D01*
X277094Y189150D01*
X277061Y189182D01*
X277028Y189248D01*
X276930Y189346D01*
X276798Y189478D01*
X276470Y189773D01*
X276110Y190101D01*
X276077Y190134D01*
X276011Y190166D01*
X275913Y190265D01*
X275782Y190330D01*
X275421Y190560D01*
X275027Y190757D01*
X274994D01*
X274929Y190790D01*
X274830Y190822D01*
X274666Y190888D01*
X274338Y190954D01*
X273912Y190986D01*
X273551D01*
X273354Y190954D01*
X273158Y190921D01*
X273125D01*
X272994Y190888D01*
X272830Y190855D01*
X272666Y190822D01*
X272600Y190855D01*
X272469Y190921D01*
X272305Y191052D01*
X272174Y191216D01*
X272141Y191249D01*
X272108Y191380D01*
X272042Y191577D01*
X272010Y191806D01*
Y191970D01*
X271157Y188592D01*
Y188559D01*
X271124Y188461D01*
X271091Y188330D01*
X271026Y188133D01*
Y188100D01*
X270993Y187969D01*
X270927Y187772D01*
X270862Y187542D01*
Y187477D01*
X270796Y187346D01*
X270730Y187116D01*
X270665Y186854D01*
Y186788D01*
X270599Y186624D01*
X270534Y186427D01*
X270468Y186165D01*
Y186099D01*
X270435Y185968D01*
X270370Y185771D01*
X270304Y185574D01*
Y185542D01*
X270271Y185443D01*
X270238Y185312D01*
X270206Y185181D01*
X270173Y185148D01*
X270107Y185050D01*
X270009Y184918D01*
X269845Y184787D01*
X269812Y184754D01*
X269714Y184722D01*
X269550Y184689D01*
X269353Y184656D01*
X269287D01*
X269090Y184689D01*
X268861Y184754D01*
X268664Y184918D01*
X268631Y184951D01*
X268598Y185082D01*
X268533Y185279D01*
X268500Y185542D01*
Y185574D01*
Y185640D01*
Y185837D01*
Y185870D01*
X268533Y185935D01*
X268566Y186165D01*
Y186198D01*
X268598Y186263D01*
X268631Y186394D01*
X268664Y186591D01*
X268730Y186821D01*
X268795Y187083D01*
X268861Y187378D01*
X268959Y187706D01*
X269156Y188428D01*
X269386Y189248D01*
X269615Y190134D01*
X269845Y191019D01*
Y191052D01*
X269878Y191118D01*
X269910Y191249D01*
X269943Y191446D01*
X270009Y191642D01*
X270074Y191905D01*
X270173Y192200D01*
X270238Y192528D01*
X270435Y193250D01*
X270665Y194070D01*
X270894Y194955D01*
X271124Y195874D01*
Y195939D01*
X271157Y196070D01*
X271222Y196267D01*
X271255Y196464D01*
Y196530D01*
X271288Y196661D01*
X271354Y196825D01*
X271386Y197054D01*
Y197120D01*
X271419Y197251D01*
X271452Y197415D01*
X271485Y197645D01*
Y197710D01*
X271518Y197842D01*
X271550Y198038D01*
Y198268D01*
Y198301D01*
Y198399D01*
Y198530D01*
X271518Y198694D01*
Y198727D01*
Y198858D01*
X271485Y198990D01*
Y199186D01*
Y199219D01*
Y199350D01*
X271518Y199514D01*
X271550Y199711D01*
Y199744D01*
X271583Y199810D01*
X271616Y199941D01*
X271682Y200072D01*
X271813Y200400D01*
X271911Y200531D01*
X272010Y200662D01*
X272075Y200728D01*
X272239Y200826D01*
X272502Y200925D01*
X272895Y200990D01*
X273026D01*
X273190Y200958D01*
D02*
G37*
G36*
X334395Y200203D02*
X334526Y200138D01*
X334559Y200105D01*
X334625Y200072D01*
X334723Y199974D01*
X334822Y199842D01*
X334854Y199810D01*
X334887Y199711D01*
X334953Y199580D01*
X334986Y199416D01*
Y199383D01*
X335018Y199285D01*
X335051Y199121D01*
Y198924D01*
Y198891D01*
Y198793D01*
X335018Y198563D01*
Y198530D01*
Y198498D01*
X334986Y198301D01*
Y198268D01*
X334953Y198137D01*
X334887Y197940D01*
X334822Y197678D01*
X334723Y197382D01*
X334625Y197022D01*
X334362Y196267D01*
Y196234D01*
X334297Y196103D01*
X334231Y195874D01*
X334166Y195611D01*
X334067Y195283D01*
X333936Y194922D01*
X333674Y194135D01*
Y194102D01*
X333608Y193938D01*
X333542Y193742D01*
X333444Y193446D01*
X333346Y193118D01*
X333214Y192758D01*
X332952Y191970D01*
Y191938D01*
X332886Y191774D01*
X332821Y191577D01*
X332755Y191314D01*
X332657Y190986D01*
X332558Y190626D01*
X332329Y189838D01*
X332132Y189117D01*
Y189084D01*
X332099Y189018D01*
Y188920D01*
X332066Y188789D01*
X331968Y188428D01*
X331870Y188034D01*
Y188002D01*
Y187969D01*
X331837Y187739D01*
X331804Y187510D01*
X331771Y187247D01*
Y187214D01*
Y187149D01*
X331837Y186952D01*
X331902Y186919D01*
X331968Y186886D01*
X332099Y186854D01*
X332263D01*
X332394Y186886D01*
X332722Y186919D01*
X333116Y186985D01*
X333149D01*
X333214Y187018D01*
X333346Y187050D01*
X333477Y187083D01*
X333870Y187214D01*
X334330Y187346D01*
X334362D01*
X334428Y187378D01*
X334559Y187444D01*
X334723Y187477D01*
X335150Y187641D01*
X335609Y187805D01*
X335642D01*
X335707Y187838D01*
X335838Y187903D01*
X336002Y187969D01*
X336363Y188133D01*
X336757Y188297D01*
X336790Y188330D01*
X336921Y188362D01*
X337052Y188428D01*
X337216Y188494D01*
X337249Y188526D01*
X337347Y188559D01*
X337511Y188625D01*
X337708Y188723D01*
X337774Y188756D01*
X337905Y188822D01*
X338167Y188920D01*
X338495Y189051D01*
X338528D01*
X338594Y189084D01*
X338692Y189150D01*
X338856Y189182D01*
X339053Y189281D01*
X339315Y189379D01*
X339578Y189478D01*
X339873Y189609D01*
X339906D01*
X339971Y189642D01*
X340135Y189707D01*
X340168D01*
X340201Y189740D01*
X340430D01*
X340529Y189707D01*
X340627Y189674D01*
X340660D01*
X340693Y189642D01*
X340824Y189510D01*
Y189478D01*
X340857Y189445D01*
X340922Y189248D01*
Y189215D01*
X340955Y189182D01*
Y188986D01*
Y188953D01*
Y188854D01*
Y188723D01*
X340922Y188559D01*
Y188526D01*
X340890Y188461D01*
X340857Y188264D01*
X340824Y188231D01*
X340758Y188133D01*
X340660Y188034D01*
X340496Y187903D01*
X340463Y187870D01*
X340365Y187805D01*
X340234Y187706D01*
X340070Y187608D01*
X340037Y187575D01*
X339938Y187542D01*
X339807Y187444D01*
X339643Y187378D01*
X339610D01*
X339512Y187346D01*
X339282Y187280D01*
X339250D01*
X339151Y187247D01*
X339020Y187182D01*
X338823Y187083D01*
X338790D01*
X338659Y187018D01*
X338462Y186952D01*
X338233Y186854D01*
X338167Y186821D01*
X338036Y186788D01*
X337806Y186690D01*
X337544Y186591D01*
X337478Y186558D01*
X337314Y186526D01*
X337118Y186427D01*
X336855Y186329D01*
X336822D01*
X336691Y186263D01*
X336494Y186198D01*
X336298Y186132D01*
X336265D01*
X336166Y186066D01*
X336068Y186034D01*
X335970Y186001D01*
X335937D01*
X335904Y185968D01*
X335806Y185935D01*
X335674Y185902D01*
X335346Y185771D01*
X334953Y185607D01*
X334920D01*
X334854Y185574D01*
X334756Y185542D01*
X334592Y185476D01*
X334264Y185345D01*
X333838Y185214D01*
X333805D01*
X333739Y185181D01*
X333641Y185148D01*
X333510Y185115D01*
X333149Y184984D01*
X332755Y184886D01*
X332690D01*
X332460Y184853D01*
X332198Y184820D01*
X331935Y184787D01*
X331509D01*
X331312Y184820D01*
X331279D01*
X331181Y184853D01*
X331050Y184918D01*
X330886Y184984D01*
X330853Y185017D01*
X330787Y185082D01*
X330656Y185181D01*
X330525Y185279D01*
X330492Y185312D01*
X330394Y185378D01*
X330230Y185509D01*
X330033Y185640D01*
X330000Y185673D01*
X329869Y185771D01*
X329738Y185902D01*
X329606Y186099D01*
Y186165D01*
X329574Y186296D01*
X329541Y186493D01*
X329508Y186755D01*
Y186788D01*
Y186854D01*
Y186985D01*
X329541Y187149D01*
Y187182D01*
X329574Y187280D01*
Y187444D01*
X329606Y187608D01*
Y187641D01*
X329639Y187772D01*
X329672Y187936D01*
X329705Y188100D01*
Y188133D01*
X329738Y188231D01*
X329803Y188362D01*
X329836Y188526D01*
X330426Y190330D01*
Y190363D01*
X330459Y190396D01*
X330525Y190593D01*
X330590Y190855D01*
X330722Y191249D01*
X330853Y191675D01*
X331017Y192167D01*
X331345Y193184D01*
X331378Y193250D01*
X331410Y193414D01*
X331509Y193676D01*
X331607Y194004D01*
X331706Y194398D01*
X331837Y194824D01*
X332099Y195710D01*
X332132Y195775D01*
X332165Y195906D01*
X332230Y196136D01*
X332296Y196398D01*
X332394Y196726D01*
X332493Y197054D01*
X332657Y197743D01*
Y197776D01*
X332690Y197907D01*
X332722Y198071D01*
X332755Y198268D01*
X332854Y198727D01*
Y198990D01*
X332886Y199186D01*
Y199219D01*
X332919Y199285D01*
X332985Y199482D01*
X333149Y199711D01*
X333346Y199974D01*
X333411Y200006D01*
X333575Y200138D01*
X333805Y200236D01*
X334100Y200269D01*
X334264D01*
X334395Y200203D01*
D02*
G37*
G36*
X318323Y201056D02*
X318454Y200990D01*
X318487D01*
X318553Y200958D01*
X318717Y200794D01*
X318750Y200761D01*
X318782Y200695D01*
X318815Y200597D01*
X318848Y200466D01*
Y200433D01*
X318881Y200367D01*
Y200236D01*
Y200105D01*
Y200072D01*
Y199974D01*
Y199842D01*
X318848Y199711D01*
Y199678D01*
X318815Y199613D01*
Y199482D01*
X318782Y199350D01*
Y199318D01*
X318750Y199252D01*
X318717Y199022D01*
Y198990D01*
X318684Y198957D01*
X318651Y198793D01*
X316421Y191183D01*
X317438Y191282D01*
X317470D01*
X317503Y191314D01*
X317602D01*
X317733Y191347D01*
X318061Y191413D01*
X318520Y191544D01*
X319045Y191642D01*
X319635Y191774D01*
X320258Y191938D01*
X320914Y192069D01*
X320947D01*
X320980Y192102D01*
X321078D01*
X321210Y192134D01*
X321570Y192200D01*
X322030Y192331D01*
X322554Y192430D01*
X323145Y192561D01*
X323801Y192725D01*
X324424Y192856D01*
X324457D01*
X324555Y192922D01*
X324654Y193053D01*
X324752Y193217D01*
X324785Y193282D01*
X324850Y193446D01*
X324949Y193676D01*
X325047Y194004D01*
Y194037D01*
X325080Y194102D01*
X325113Y194201D01*
X325146Y194332D01*
X325244Y194693D01*
X325375Y195152D01*
Y195185D01*
X325408Y195283D01*
X325441Y195414D01*
X325506Y195578D01*
X325539Y195808D01*
X325638Y196038D01*
X325802Y196595D01*
X325998Y197350D01*
Y197382D01*
X326031Y197448D01*
X326064Y197546D01*
X326097Y197678D01*
X326195Y198038D01*
X326261Y198432D01*
Y198465D01*
X326294Y198530D01*
X326326Y198629D01*
X326359Y198760D01*
X326425Y199088D01*
X326523Y199449D01*
Y199482D01*
X326556Y199514D01*
X326622Y199711D01*
X326753Y199974D01*
X326917Y200203D01*
X326950Y200236D01*
X327114Y200367D01*
X327310Y200466D01*
X327573Y200498D01*
X327671D01*
X327770Y200466D01*
X327901D01*
X328163Y200334D01*
X328294Y200269D01*
X328426Y200138D01*
X328458Y200072D01*
X328590Y199908D01*
X328688Y199646D01*
X328721Y199285D01*
Y199219D01*
Y199154D01*
X328688Y199022D01*
X328655Y198858D01*
X328622Y198662D01*
X328557Y198432D01*
X328458Y198170D01*
Y198137D01*
X328426Y198038D01*
X328360Y197874D01*
X328294Y197645D01*
X328196Y197350D01*
X328098Y197022D01*
X327966Y196661D01*
X327835Y196267D01*
Y196234D01*
X327802Y196202D01*
X327737Y196005D01*
X327671Y195710D01*
X327540Y195382D01*
Y195349D01*
X327507Y195316D01*
X327442Y195119D01*
X327343Y194857D01*
X327245Y194562D01*
Y194529D01*
X327212Y194496D01*
X327179Y194332D01*
X327081Y194070D01*
X327015Y193807D01*
Y193742D01*
X326982Y193610D01*
X326950Y193446D01*
Y193282D01*
Y193250D01*
Y193151D01*
Y193020D01*
X326982Y192889D01*
Y192856D01*
X327015Y192790D01*
X327048Y192659D01*
Y192495D01*
Y192462D01*
Y192430D01*
X327015Y192200D01*
X326950Y191938D01*
X326786Y191675D01*
X326753Y191610D01*
X326622Y191478D01*
X326392Y191282D01*
X326097Y191052D01*
Y191019D01*
X326064Y190986D01*
Y190888D01*
X326031Y190757D01*
Y190724D01*
X325998Y190658D01*
X325966Y190527D01*
X325933Y190396D01*
X325802Y189838D01*
Y189806D01*
X325769Y189740D01*
X325736Y189609D01*
X325703Y189478D01*
X325638Y189084D01*
X325539Y188658D01*
Y188625D01*
Y188559D01*
X325506Y188428D01*
X325474Y188297D01*
X325408Y187903D01*
X325342Y187477D01*
Y187444D01*
Y187378D01*
X325310Y187280D01*
Y187116D01*
X325244Y186755D01*
X325178Y186329D01*
Y186296D01*
Y186230D01*
X325146Y186132D01*
X325113Y185968D01*
X325047Y185607D01*
X324949Y185181D01*
Y185148D01*
X324916Y185050D01*
X324883Y184951D01*
X324785Y184820D01*
X324752Y184787D01*
X324686Y184754D01*
X324588Y184656D01*
X324457Y184558D01*
X324424Y184525D01*
X324358Y184492D01*
X324227Y184426D01*
X324096Y184361D01*
X324063D01*
X323965Y184328D01*
X323735Y184295D01*
X323702D01*
X323571Y184328D01*
X323440Y184361D01*
X323309Y184426D01*
X323276Y184459D01*
X323210Y184525D01*
X323046Y184689D01*
Y184722D01*
X323014Y184787D01*
X322948Y184984D01*
Y185017D01*
Y185115D01*
X322915Y185312D01*
Y185345D01*
Y185410D01*
Y185509D01*
X322948Y185706D01*
Y185771D01*
X322981Y185902D01*
X323014Y186132D01*
X323046Y186394D01*
Y186427D01*
Y186460D01*
X323079Y186657D01*
X323145Y186952D01*
X323178Y187280D01*
Y187313D01*
X323210Y187346D01*
X323243Y187575D01*
X323309Y187870D01*
X323374Y188198D01*
Y188264D01*
X323407Y188395D01*
X323440Y188625D01*
X323506Y188920D01*
X323571Y189281D01*
X323637Y189674D01*
X323735Y190134D01*
X323834Y190593D01*
X323571D01*
X323374Y190560D01*
X323145Y190527D01*
X323079D01*
X322948Y190494D01*
X322718Y190462D01*
X322390Y190363D01*
X322358D01*
X322226Y190330D01*
X322030Y190265D01*
X321767Y190199D01*
X321734D01*
X321702Y190166D01*
X321505Y190134D01*
X321210Y190035D01*
X320849Y189937D01*
X320816D01*
X320750Y189904D01*
X320652D01*
X320521Y189838D01*
X320160Y189773D01*
X319734Y189642D01*
X319701D01*
X319635Y189609D01*
X319504Y189576D01*
X319373Y189543D01*
X318979Y189445D01*
X318553Y189346D01*
X315666Y188526D01*
Y188494D01*
X315634Y188461D01*
X315535Y188264D01*
X315404Y188002D01*
X315273Y187641D01*
Y187608D01*
X315240Y187542D01*
X315207Y187444D01*
X315174Y187346D01*
X315076Y187018D01*
X314945Y186624D01*
Y186591D01*
X314912Y186526D01*
Y186427D01*
X314879Y186329D01*
X314781Y186001D01*
X314682Y185640D01*
Y185607D01*
X314650Y185574D01*
X314617Y185378D01*
X314518Y185082D01*
X314453Y184787D01*
Y184754D01*
X314420Y184722D01*
X314322Y184525D01*
X314289Y184492D01*
X314256Y184459D01*
X314059Y184295D01*
X314026Y184262D01*
X313994Y184230D01*
X313797Y184098D01*
X313764D01*
X313731Y184066D01*
X313633Y184033D01*
X313534Y184000D01*
X313370D01*
X313239Y184033D01*
X313108Y184098D01*
X313075Y184131D01*
X313042Y184164D01*
X312878Y184361D01*
Y184394D01*
X312813Y184459D01*
X312780Y184590D01*
X312747Y184722D01*
Y184754D01*
Y184853D01*
X312714Y184984D01*
Y185115D01*
Y185148D01*
Y185214D01*
Y185312D01*
X312747Y185443D01*
Y185476D01*
X312780Y185574D01*
Y185706D01*
X312813Y185837D01*
Y185870D01*
X312846Y185968D01*
X312911Y186099D01*
X312944Y186263D01*
Y186296D01*
X312977Y186362D01*
X313010Y186460D01*
X313042Y186558D01*
X317372Y200826D01*
X317405Y200859D01*
X317503Y200958D01*
X317536Y200990D01*
X317634Y201056D01*
X317667D01*
X317700Y201089D01*
X318192D01*
X318323Y201056D01*
D02*
G37*
%LPC*%
G36*
X366897Y218401D02*
X366599D01*
Y218103D01*
X366301D01*
Y217208D01*
X367195D01*
Y217506D01*
X367494D01*
Y218103D01*
X366897D01*
Y218401D01*
D02*
G37*
G36*
X328728Y217805D02*
X328429D01*
Y217506D01*
X328131D01*
Y216314D01*
X329026D01*
Y217208D01*
X328728D01*
Y217506D01*
Y217805D01*
D02*
G37*
G36*
X319185Y218103D02*
X317694D01*
Y217805D01*
X317396D01*
Y217208D01*
X317098D01*
Y216612D01*
X317396D01*
Y216015D01*
X317694D01*
Y215717D01*
X319185D01*
Y216015D01*
X319483D01*
Y216612D01*
X319781D01*
Y217208D01*
X319483D01*
Y217805D01*
X319185D01*
Y218103D01*
D02*
G37*
G36*
X350483Y163458D02*
Y163403D01*
X350428Y163294D01*
X350374Y163130D01*
X350264Y162856D01*
X350155Y162528D01*
X349991Y162200D01*
X349717Y161270D01*
X349335Y160232D01*
X348952Y159029D01*
X348569Y157771D01*
X348186Y156404D01*
Y156349D01*
X348132Y156240D01*
X348077Y156076D01*
X348022Y155803D01*
X347968Y155474D01*
X347858Y155092D01*
X347640Y154162D01*
X347366Y153068D01*
X347038Y151866D01*
X346710Y150499D01*
X346382Y149132D01*
Y149077D01*
X346327Y148968D01*
Y148803D01*
X346218Y148585D01*
X346109Y147983D01*
X345890Y147272D01*
Y147218D01*
X345835Y147108D01*
Y146890D01*
X345780Y146671D01*
X345617Y146070D01*
X345507Y145359D01*
X345890Y145468D01*
X345945D01*
X346163Y145523D01*
X346491Y145632D01*
X346929Y145741D01*
X346984D01*
X347038Y145796D01*
X347421Y145851D01*
X347913Y146015D01*
X348515Y146179D01*
X348569D01*
X348679Y146233D01*
X348843Y146288D01*
X349061Y146343D01*
X349663Y146562D01*
X350319Y146835D01*
X350374D01*
X350483Y146890D01*
X350702Y146999D01*
X350975Y147108D01*
X351631Y147382D01*
X352397Y147710D01*
X352451D01*
X352561Y147819D01*
X352780Y147929D01*
X353053Y148093D01*
X353764Y148475D01*
X354529Y148913D01*
X354584Y148968D01*
X354693Y149022D01*
X354912Y149186D01*
X355186Y149350D01*
X355842Y149842D01*
X356553Y150389D01*
X356607Y150444D01*
X356716Y150499D01*
X356881Y150663D01*
X357154Y150881D01*
X357701Y151428D01*
X358248Y152030D01*
X358302Y152084D01*
X358357Y152194D01*
X358521Y152358D01*
X358685Y152631D01*
X359068Y153233D01*
X359451Y153943D01*
Y153998D01*
X359505Y154107D01*
X359615Y154326D01*
X359669Y154600D01*
X359833Y155256D01*
X359888Y156021D01*
Y156076D01*
Y156185D01*
Y156404D01*
X359833Y156677D01*
X359724Y157388D01*
X359451Y158099D01*
Y158154D01*
X359396Y158263D01*
X359286Y158482D01*
X359122Y158701D01*
X358740Y159302D01*
X358248Y159904D01*
X358193Y159958D01*
X358138Y160068D01*
X357974Y160177D01*
X357755Y160396D01*
X357209Y160888D01*
X356553Y161380D01*
X356498Y161435D01*
X356388Y161489D01*
X356224Y161599D01*
X355951Y161763D01*
X355349Y162145D01*
X354584Y162473D01*
X354529D01*
X354420Y162583D01*
X354201Y162637D01*
X353928Y162747D01*
X353272Y162966D01*
X352451Y163184D01*
X352397D01*
X352287Y163239D01*
X352069Y163294D01*
X351795Y163348D01*
X351194Y163403D01*
X350483Y163458D01*
D02*
G37*
G36*
X298592Y164551D02*
X296787D01*
X296350Y164497D01*
X295967D01*
X294983Y164387D01*
X294928D01*
X294764Y164333D01*
X294491D01*
X294217Y164278D01*
X293780Y164169D01*
X293397Y164059D01*
X292413Y163786D01*
Y163731D01*
X292358Y163512D01*
X292249Y163184D01*
X292085Y162692D01*
Y162637D01*
X292030Y162583D01*
X291975Y162255D01*
X291811Y161763D01*
X291647Y161161D01*
Y161107D01*
X291593Y160997D01*
X291538Y160833D01*
X291483Y160614D01*
X291319Y160068D01*
X291101Y159357D01*
Y159302D01*
X291046Y159193D01*
X290991Y158974D01*
X290936Y158755D01*
X290718Y158099D01*
X290499Y157388D01*
Y157334D01*
X290444Y157224D01*
X290390Y157006D01*
X290335Y156787D01*
X290171Y156185D01*
X289952Y155474D01*
Y155420D01*
X289898Y155310D01*
Y155146D01*
X289843Y154928D01*
X289679Y154381D01*
X289515Y153779D01*
X289569Y153889D01*
X289788Y154053D01*
X290116Y154326D01*
X290554Y154600D01*
X290608D01*
X290663Y154654D01*
X290827Y154764D01*
X291046Y154818D01*
X291538Y155037D01*
X292194Y155310D01*
X292249D01*
X292303Y155365D01*
X292467Y155420D01*
X292686Y155529D01*
X293233Y155748D01*
X293889Y156021D01*
X293944D01*
X294053Y156076D01*
X294272Y156185D01*
X294545Y156295D01*
X295256Y156623D01*
X296022Y157060D01*
X296076Y157115D01*
X296240Y157169D01*
X296459Y157279D01*
X296733Y157443D01*
X297443Y157826D01*
X298264Y158318D01*
X298318Y158372D01*
X298482Y158427D01*
X298701Y158591D01*
X298974Y158755D01*
X299631Y159193D01*
X300287Y159739D01*
X300341Y159794D01*
X300451Y159849D01*
X300779Y160232D01*
X301271Y160669D01*
X301708Y161216D01*
Y161270D01*
X301818Y161325D01*
X301982Y161653D01*
X302146Y162091D01*
X302255Y162583D01*
Y162637D01*
Y162692D01*
X302201Y162966D01*
X302036Y163348D01*
X301763Y163676D01*
X301708Y163731D01*
X301435Y163895D01*
X301107Y164059D01*
X300615Y164223D01*
X300560D01*
X300505Y164278D01*
X300177Y164333D01*
X299685Y164442D01*
X299084Y164497D01*
X298810D01*
X298592Y164551D01*
D02*
G37*
G36*
X277553Y198727D02*
X276470D01*
X276208Y198694D01*
X275978D01*
X275388Y198629D01*
X275355D01*
X275257Y198596D01*
X275093D01*
X274929Y198563D01*
X274666Y198498D01*
X274437Y198432D01*
X273846Y198268D01*
Y198235D01*
X273814Y198104D01*
X273748Y197907D01*
X273650Y197612D01*
Y197579D01*
X273617Y197546D01*
X273584Y197350D01*
X273486Y197054D01*
X273387Y196694D01*
Y196661D01*
X273354Y196595D01*
X273322Y196497D01*
X273289Y196366D01*
X273190Y196038D01*
X273059Y195611D01*
Y195578D01*
X273026Y195513D01*
X272994Y195382D01*
X272961Y195250D01*
X272830Y194857D01*
X272698Y194430D01*
Y194398D01*
X272666Y194332D01*
X272633Y194201D01*
X272600Y194070D01*
X272502Y193709D01*
X272370Y193282D01*
Y193250D01*
X272338Y193184D01*
Y193086D01*
X272305Y192954D01*
X272206Y192626D01*
X272108Y192266D01*
X272141Y192331D01*
X272272Y192430D01*
X272469Y192594D01*
X272731Y192758D01*
X272764D01*
X272797Y192790D01*
X272895Y192856D01*
X273026Y192889D01*
X273322Y193020D01*
X273715Y193184D01*
X273748D01*
X273781Y193217D01*
X273879Y193250D01*
X274010Y193315D01*
X274338Y193446D01*
X274732Y193610D01*
X274765D01*
X274830Y193643D01*
X274962Y193709D01*
X275126Y193774D01*
X275552Y193971D01*
X276011Y194234D01*
X276044Y194266D01*
X276142Y194299D01*
X276274Y194365D01*
X276438Y194463D01*
X276864Y194693D01*
X277356Y194988D01*
X277389Y195021D01*
X277487Y195054D01*
X277618Y195152D01*
X277782Y195250D01*
X278176Y195513D01*
X278570Y195841D01*
X278602Y195874D01*
X278668Y195906D01*
X278865Y196136D01*
X279160Y196398D01*
X279422Y196726D01*
Y196759D01*
X279488Y196792D01*
X279586Y196989D01*
X279685Y197251D01*
X279750Y197546D01*
Y197579D01*
Y197612D01*
X279718Y197776D01*
X279619Y198006D01*
X279455Y198202D01*
X279422Y198235D01*
X279258Y198334D01*
X279062Y198432D01*
X278766Y198530D01*
X278734D01*
X278701Y198563D01*
X278504Y198596D01*
X278209Y198662D01*
X277848Y198694D01*
X277684D01*
X277553Y198727D01*
D02*
G37*
%LPD*%
D10*
X345134Y375445D02*
G03*
X345134Y375445I-492J0D01*
G01*
X332476Y468335D02*
G03*
X332476Y468335I-492J0D01*
G01*
X313303Y341039D02*
G03*
X313303Y341039I-492J0D01*
G01*
X311161Y456087D02*
G03*
X311161Y456087I-492J0D01*
G01*
X369185Y367917D02*
G03*
X369185Y367917I-492J0D01*
G01*
X362882Y327677D02*
G03*
X362882Y327677I-492J0D01*
G01*
X394992Y403087D02*
G03*
X394992Y403087I-492J0D01*
G01*
X408677Y420405D02*
G03*
X408677Y420405I-492J0D01*
G01*
X383508Y429811D02*
G03*
X383508Y429811I-492J0D01*
G01*
X340000Y168000D02*
G03*
X335000Y169000I-3000J-2000D01*
G01*
X343000Y169000D02*
G03*
X333000Y172000I-6500J-3500D01*
G01*
X345500Y170500D02*
G03*
X331500Y175000I-9250J-4750D01*
G01*
X348000Y171500D02*
G03*
X330000Y178000I-12250J-5750D01*
G01*
D11*
X244937Y436500D02*
G03*
X244937Y436500I-1500J0D01*
G01*
X307690Y432000D02*
G03*
X307690Y432000I-1500J0D01*
G01*
D12*
X289488Y428224D02*
G03*
X289488Y428224I-197J0D01*
G01*
D13*
X342083Y374854D02*
Y376528D01*
X340409Y374854D02*
X342083D01*
X312949D02*
X314622D01*
X312949D02*
Y376528D01*
Y402315D02*
Y403988D01*
X314622D01*
X342083Y402315D02*
Y403988D01*
X340409D02*
X342083D01*
X312122Y492252D02*
X341610D01*
X312121Y489055D02*
Y492252D01*
Y473748D02*
Y478520D01*
Y473748D02*
X312634D01*
X341094Y473767D02*
X341611D01*
Y478520D01*
X341610Y489055D02*
Y492252D01*
X315370Y339957D02*
Y341630D01*
X317043D01*
X334957D02*
X336630D01*
Y339957D02*
Y341630D01*
Y320370D02*
Y322043D01*
X334957Y320370D02*
X336630D01*
X315370D02*
Y322043D01*
Y320370D02*
X317043D01*
X327319Y454906D02*
X345429D01*
X327319Y443094D02*
X345429D01*
X327319Y453921D02*
Y454906D01*
X345429Y453921D02*
Y454906D01*
X327319Y443094D02*
Y444079D01*
X345429Y443094D02*
Y444079D01*
X337768Y456358D02*
Y461358D01*
X335268D02*
X337768Y458858D01*
X335268Y456358D02*
X337768Y458858D01*
X335268Y456358D02*
Y461358D01*
X327445Y440406D02*
X345555D01*
X327445Y428594D02*
X345555D01*
X327445Y439421D02*
Y440406D01*
X345555Y439421D02*
Y440406D01*
X327445Y428594D02*
Y429579D01*
X345555Y428594D02*
Y429579D01*
X337894Y441858D02*
Y446858D01*
X335394D02*
X337894Y444358D01*
X335394Y441858D02*
X337894Y444358D01*
X335394Y441858D02*
Y446858D01*
X354153Y395917D02*
Y402807D01*
X360858Y395938D02*
Y402828D01*
X345654Y396055D02*
Y402945D01*
X352358Y396076D02*
Y402966D01*
X307347Y341555D02*
Y348445D01*
X300642Y341534D02*
Y348424D01*
X287906Y327319D02*
Y345429D01*
X276095Y327319D02*
Y345429D01*
X286921D02*
X287906D01*
X286921Y327319D02*
X287906D01*
X276095Y345429D02*
X277079D01*
X276095Y327319D02*
X277079D01*
X289358Y334980D02*
X294358D01*
X291858D02*
X294358Y337480D01*
X289358D02*
X291858Y334980D01*
X289358Y337480D02*
X294358D01*
X290866Y428224D02*
X292461D01*
X297539D02*
X299134D01*
X290866Y418776D02*
X292461D01*
X297539D02*
X299134D01*
X285835Y437921D02*
X292724D01*
X285856Y431216D02*
X292745D01*
X362055Y361154D02*
X368945D01*
X362034Y367858D02*
X368924D01*
X298153Y377555D02*
Y384445D01*
X304858Y377576D02*
Y384466D01*
X361917Y393347D02*
X368807D01*
X361938Y386642D02*
X368828D01*
X298335Y431228D02*
X305224D01*
X298314Y437933D02*
X305203D01*
X308555Y406653D02*
X315445D01*
X308534Y413358D02*
X315424D01*
X313819Y454906D02*
X317756D01*
Y451756D02*
Y454906D01*
X313819Y443094D02*
X317756D01*
Y446244D01*
X333055Y369847D02*
X339945D01*
X333076Y363142D02*
X339966D01*
X269984Y354744D02*
Y358474D01*
X258016Y354744D02*
X261424D01*
X266576D02*
X269984D01*
X258016D02*
Y358474D01*
X262826Y360256D02*
X265174D01*
X272858Y327642D02*
Y345358D01*
X255142Y327642D02*
X258980D01*
X269020D02*
X272858D01*
X255142D02*
Y345358D01*
X258980D01*
X269020D02*
X272858D01*
X264000Y324394D02*
Y326362D01*
X263016Y325378D02*
X264984D01*
X358161Y370870D02*
Y383469D01*
X372532Y370870D02*
Y383469D01*
X368555Y329847D02*
X375445D01*
X368576Y323142D02*
X375466D01*
X327055Y304847D02*
X333945D01*
X327076Y298142D02*
X333966D01*
X366327Y330335D02*
Y343721D01*
X351563Y330335D02*
Y343721D01*
X387610Y366689D02*
Y390311D01*
Y366689D02*
X401390D01*
X387610Y390311D02*
X401390D01*
Y366689D02*
Y390311D01*
X352055Y321847D02*
X358945D01*
X352076Y315142D02*
X358966D01*
X352555Y307154D02*
X359445D01*
X352534Y313858D02*
X359424D01*
X368555Y350847D02*
X375445D01*
X368576Y344142D02*
X375466D01*
X379150Y405150D02*
X397850D01*
X379150D02*
Y423850D01*
X397850D01*
Y405150D02*
Y423850D01*
X365398Y456189D02*
X377602D01*
X365398Y429811D02*
X377602D01*
X365398D02*
Y456189D01*
X377602Y429811D02*
Y456189D01*
X397346Y446055D02*
Y452945D01*
X390642Y446034D02*
Y452924D01*
X344654Y279055D02*
Y285945D01*
X351358Y279076D02*
Y285966D01*
X332347Y279055D02*
Y285945D01*
X325642Y279034D02*
Y285924D01*
X335154Y279055D02*
Y285945D01*
X341858Y279076D02*
Y285966D01*
X300654Y330555D02*
Y337445D01*
X307358Y330576D02*
Y337466D01*
X303847Y279055D02*
Y285945D01*
X297142Y279034D02*
Y285924D01*
X313347Y279055D02*
Y285945D01*
X306642Y279034D02*
Y285924D01*
X322847Y278917D02*
Y285807D01*
X316142Y278896D02*
Y285786D01*
X316055Y304847D02*
X322945D01*
X316076Y298142D02*
X322966D01*
D14*
X245937Y406700D02*
Y446300D01*
X269937D01*
Y406700D02*
Y446300D01*
X245937Y406700D02*
X269937D01*
X251000Y392050D02*
Y399950D01*
X264000Y392050D02*
Y399950D01*
D15*
X309780Y415575D02*
X313779D01*
X316280Y415528D02*
X320280D01*
X376000Y483000D02*
X380000D01*
X368500Y483047D02*
X372500D01*
D16*
X345074Y370319D02*
Y372287D01*
X344681Y372681D01*
X343894D01*
X343500Y372287D01*
Y370319D01*
X342713Y372681D02*
X341926D01*
X342319D01*
Y370319D01*
X342713Y370713D01*
X245926Y450287D02*
X245532Y450681D01*
X244745D01*
X244351Y450287D01*
Y449894D01*
X244745Y449500D01*
X245532D01*
X245926Y449106D01*
Y448713D01*
X245532Y448319D01*
X244745D01*
X244351Y448713D01*
X246713Y450681D02*
Y448319D01*
X247500Y449106D01*
X248287Y448319D01*
Y450681D01*
X250649Y448319D02*
X249074D01*
X250649Y449894D01*
Y450287D01*
X250255Y450681D01*
X249468D01*
X249074Y450287D01*
X312532Y346181D02*
Y344213D01*
X312926Y343819D01*
X313713D01*
X314106Y344213D01*
Y346181D01*
X316468D02*
X314894D01*
Y345000D01*
X315681Y345394D01*
X316074D01*
X316468Y345000D01*
Y344213D01*
X316074Y343819D01*
X315287D01*
X314894Y344213D01*
X353181Y453468D02*
X350819D01*
Y452287D01*
X351213Y451894D01*
X352787D01*
X353181Y452287D01*
Y453468D01*
Y449532D02*
X352787Y450319D01*
X352000Y451106D01*
X351213D01*
X350819Y450713D01*
Y449926D01*
X351213Y449532D01*
X351606D01*
X352000Y449926D01*
Y451106D01*
X353681Y441468D02*
X351319D01*
Y440287D01*
X351713Y439894D01*
X353287D01*
X353681Y440287D01*
Y441468D01*
Y437532D02*
Y439106D01*
X352500D01*
X352894Y438319D01*
Y437926D01*
X352500Y437532D01*
X351713D01*
X351319Y437926D01*
Y438713D01*
X351713Y439106D01*
X245032Y397181D02*
Y395213D01*
X245426Y394819D01*
X246213D01*
X246606Y395213D01*
Y397181D01*
X247394Y396787D02*
X247787Y397181D01*
X248574D01*
X248968Y396787D01*
Y396394D01*
X248574Y396000D01*
X248181D01*
X248574D01*
X248968Y395606D01*
Y395213D01*
X248574Y394819D01*
X247787D01*
X247394Y395213D01*
X366968Y408181D02*
Y405819D01*
X365787D01*
X365394Y406213D01*
Y407000D01*
X365787Y407394D01*
X366968D01*
X366181D02*
X365394Y408181D01*
X363426D02*
Y405819D01*
X364606Y407000D01*
X363032D01*
X358378Y408713D02*
X358771Y408319D01*
X359558D01*
X359952Y408713D01*
Y410287D01*
X359558Y410681D01*
X358771D01*
X358378Y410287D01*
X357590Y410681D02*
X356803D01*
X357197D01*
Y408319D01*
X357590Y408713D01*
X355623D02*
X355229Y408319D01*
X354442D01*
X354048Y408713D01*
Y410287D01*
X354442Y410681D01*
X355229D01*
X355623Y410287D01*
Y408713D01*
X275681Y412048D02*
X273319D01*
Y413229D01*
X273713Y413623D01*
X274500D01*
X274894Y413229D01*
Y412048D01*
Y412835D02*
X275681Y413623D01*
Y414410D02*
Y415197D01*
Y414803D01*
X273319D01*
X273713Y414410D01*
Y416377D02*
X273319Y416771D01*
Y417558D01*
X273713Y417952D01*
X274106D01*
X274500Y417558D01*
X274894Y417952D01*
X275287D01*
X275681Y417558D01*
Y416771D01*
X275287Y416377D01*
X274894D01*
X274500Y416771D01*
X274106Y416377D01*
X273713D01*
X274500Y416771D02*
Y417558D01*
X265500Y379200D02*
Y381561D01*
X266681D01*
X267074Y381168D01*
Y380381D01*
X266681Y379987D01*
X265500D01*
X266287D02*
X267074Y379200D01*
X269436D02*
X267861D01*
X269436Y380774D01*
Y381168D01*
X269042Y381561D01*
X268255D01*
X267861Y381168D01*
X270223Y379200D02*
X271010D01*
X270616D01*
Y381561D01*
X270223Y381168D01*
X257500Y379300D02*
Y381661D01*
X258681D01*
X259074Y381268D01*
Y380481D01*
X258681Y380087D01*
X257500D01*
X258287D02*
X259074Y379300D01*
X261436D02*
X259861D01*
X261436Y380874D01*
Y381268D01*
X261042Y381661D01*
X260255D01*
X259861Y381268D01*
X263797Y379300D02*
X262223D01*
X263797Y380874D01*
Y381268D01*
X263404Y381661D01*
X262616D01*
X262223Y381268D01*
X300952Y463181D02*
Y460819D01*
X299771D01*
X299377Y461213D01*
Y462000D01*
X299771Y462394D01*
X300952D01*
X300165D02*
X299377Y463181D01*
X298590D02*
X297803D01*
X298197D01*
Y460819D01*
X298590Y461213D01*
X296622Y462787D02*
X296229Y463181D01*
X295442D01*
X295048Y462787D01*
Y461213D01*
X295442Y460819D01*
X296229D01*
X296622Y461213D01*
Y461606D01*
X296229Y462000D01*
X295048D01*
X349394Y409213D02*
X349787Y408819D01*
X350574D01*
X350968Y409213D01*
Y410787D01*
X350574Y411181D01*
X349787D01*
X349394Y410787D01*
X347032Y408819D02*
X348606D01*
Y410000D01*
X347819Y409606D01*
X347426D01*
X347032Y410000D01*
Y410787D01*
X347426Y411181D01*
X348213D01*
X348606Y410787D01*
X302426Y355787D02*
X302032Y356181D01*
X301245D01*
X300851Y355787D01*
Y354213D01*
X301245Y353819D01*
X302032D01*
X302426Y354213D01*
X303213Y355787D02*
X303606Y356181D01*
X304394D01*
X304787Y355787D01*
Y355394D01*
X304394Y355000D01*
X304000D01*
X304394D01*
X304787Y354606D01*
Y354213D01*
X304394Y353819D01*
X303606D01*
X303213Y354213D01*
X306755Y353819D02*
Y356181D01*
X305574Y355000D01*
X307149D01*
X276200Y354661D02*
Y352300D01*
X277381D01*
X277774Y352694D01*
Y354268D01*
X277381Y354661D01*
X276200D01*
X278561D02*
X280136D01*
Y354268D01*
X278561Y352694D01*
Y352300D01*
X276681Y422548D02*
X274319D01*
Y423729D01*
X274713Y424122D01*
X275500D01*
X275894Y423729D01*
Y422548D01*
Y423335D02*
X276681Y424122D01*
Y424910D02*
Y425697D01*
Y425303D01*
X274319D01*
X274713Y424910D01*
X274319Y426877D02*
Y428452D01*
X274713D01*
X276287Y426877D01*
X276681D01*
X293468Y414319D02*
Y416287D01*
X293074Y416681D01*
X292287D01*
X291894Y416287D01*
Y414319D01*
X289532D02*
X290319Y414713D01*
X291106Y415500D01*
Y416287D01*
X290713Y416681D01*
X289926D01*
X289532Y416287D01*
Y415894D01*
X289926Y415500D01*
X291106D01*
X281492Y434394D02*
X281099Y434000D01*
Y433213D01*
X281492Y432820D01*
X283067D01*
X283460Y433213D01*
Y434000D01*
X283067Y434394D01*
X281492Y435181D02*
X281099Y435575D01*
Y436362D01*
X281492Y436756D01*
X281886D01*
X282279Y436362D01*
Y435968D01*
Y436362D01*
X282673Y436756D01*
X283067D01*
X283460Y436362D01*
Y435575D01*
X283067Y435181D01*
X283460Y437543D02*
Y438330D01*
Y437936D01*
X281099D01*
X281492Y437543D01*
X367394Y357213D02*
X367787Y356819D01*
X368574D01*
X368968Y357213D01*
Y358787D01*
X368574Y359181D01*
X367787D01*
X367394Y358787D01*
X366606D02*
X366213Y359181D01*
X365426D01*
X365032Y358787D01*
Y357213D01*
X365426Y356819D01*
X366213D01*
X366606Y357213D01*
Y357606D01*
X366213Y358000D01*
X365032D01*
X294213Y379926D02*
X293819Y379532D01*
Y378745D01*
X294213Y378351D01*
X295787D01*
X296181Y378745D01*
Y379532D01*
X295787Y379926D01*
X294213Y380713D02*
X293819Y381106D01*
Y381894D01*
X294213Y382287D01*
X294606D01*
X295000Y381894D01*
Y381500D01*
Y381894D01*
X295394Y382287D01*
X295787D01*
X296181Y381894D01*
Y381106D01*
X295787Y380713D01*
X294213Y383074D02*
X293819Y383468D01*
Y384255D01*
X294213Y384649D01*
X294606D01*
X295000Y384255D01*
X295394Y384649D01*
X295787D01*
X296181Y384255D01*
Y383468D01*
X295787Y383074D01*
X295394D01*
X295000Y383468D01*
X294606Y383074D01*
X294213D01*
X295000Y383468D02*
Y384255D01*
X372606Y394787D02*
X372213Y395181D01*
X371426D01*
X371032Y394787D01*
Y393213D01*
X371426Y392819D01*
X372213D01*
X372606Y393213D01*
X373394Y394787D02*
X373787Y395181D01*
X374574D01*
X374968Y394787D01*
Y394394D01*
X374574Y394000D01*
X374968Y393606D01*
Y393213D01*
X374574Y392819D01*
X373787D01*
X373394Y393213D01*
Y393606D01*
X373787Y394000D01*
X373394Y394394D01*
Y394787D01*
X373787Y394000D02*
X374574D01*
X303713Y410000D02*
X303319Y409606D01*
Y408819D01*
X303713Y408426D01*
X305287D01*
X305681Y408819D01*
Y409606D01*
X305287Y410000D01*
X305681Y410787D02*
Y411574D01*
Y411181D01*
X303319D01*
X303713Y410787D01*
X317048Y438819D02*
Y441181D01*
X318229D01*
X318622Y440787D01*
Y440000D01*
X318229Y439606D01*
X317048D01*
X317835D02*
X318622Y438819D01*
X319410D02*
X320197D01*
X319803D01*
Y441181D01*
X319410Y440787D01*
X322952Y441181D02*
X321377D01*
Y440000D01*
X322165Y440394D01*
X322558D01*
X322952Y440000D01*
Y439213D01*
X322558Y438819D01*
X321771D01*
X321377Y439213D01*
X306787Y445000D02*
X305213D01*
X304819Y444606D01*
Y443819D01*
X305213Y443426D01*
X306787D01*
X307181Y443819D01*
Y444606D01*
X306394Y444213D02*
X307181Y445000D01*
Y444606D02*
X306787Y445000D01*
X307181Y445787D02*
Y446574D01*
Y446181D01*
X304819D01*
X305213Y445787D01*
X309048Y438819D02*
Y441181D01*
X310229D01*
X310623Y440787D01*
Y440000D01*
X310229Y439606D01*
X309048D01*
X309835D02*
X310623Y438819D01*
X311410D02*
X312197D01*
X311803D01*
Y441181D01*
X311410Y440787D01*
X314558Y438819D02*
Y441181D01*
X313377Y440000D01*
X314952D01*
X368649Y423181D02*
Y420819D01*
X367468D01*
X367074Y421213D01*
Y422000D01*
X367468Y422394D01*
X368649D01*
X367861D02*
X367074Y423181D01*
X364713D02*
X366287D01*
X364713Y421606D01*
Y421213D01*
X365106Y420819D01*
X365894D01*
X366287Y421213D01*
X363926D02*
X363532Y420819D01*
X362745D01*
X362351Y421213D01*
Y421606D01*
X362745Y422000D01*
X363139D01*
X362745D01*
X362351Y422394D01*
Y422787D01*
X362745Y423181D01*
X363532D01*
X363926Y422787D01*
X342819Y360074D02*
X345181D01*
Y358894D01*
X344787Y358500D01*
X344000D01*
X343606Y358894D01*
Y360074D01*
Y359287D02*
X342819Y358500D01*
Y357713D02*
Y356926D01*
Y357319D01*
X345181D01*
X344787Y357713D01*
X342213Y366106D02*
X341819Y365713D01*
Y364926D01*
X342213Y364532D01*
X343787D01*
X344181Y364926D01*
Y365713D01*
X343787Y366106D01*
X344181Y368074D02*
X341819D01*
X343000Y366894D01*
Y368468D01*
X255287Y357106D02*
X253713D01*
X253319Y356713D01*
Y355926D01*
X253713Y355532D01*
X255287D01*
X255681Y355926D01*
Y356713D01*
X254894Y356319D02*
X255681Y357106D01*
Y356713D02*
X255287Y357106D01*
X255681Y359468D02*
Y357894D01*
X254106Y359468D01*
X253713D01*
X253319Y359074D01*
Y358287D01*
X253713Y357894D01*
X254900Y351061D02*
Y348700D01*
X256474D01*
X258836Y350668D02*
X258442Y351061D01*
X257655D01*
X257261Y350668D01*
Y350274D01*
X257655Y349881D01*
X258442D01*
X258836Y349487D01*
Y349094D01*
X258442Y348700D01*
X257655D01*
X257261Y349094D01*
X259623Y348700D02*
X260410D01*
X260016D01*
Y351061D01*
X259623Y350668D01*
X286131Y445894D02*
Y448255D01*
X287312D01*
X287705Y447862D01*
Y447075D01*
X287312Y446681D01*
X286131D01*
X286918D02*
X287705Y445894D01*
X290067D02*
X288492D01*
X290067Y447468D01*
Y447862D01*
X289673Y448255D01*
X288886D01*
X288492Y447862D01*
X290854D02*
X291247Y448255D01*
X292035D01*
X292428Y447862D01*
Y446288D01*
X292035Y445894D01*
X291247D01*
X290854Y446288D01*
Y447862D01*
X376681Y373574D02*
X376287D01*
X375500Y372787D01*
X376287Y372000D01*
X376681D01*
X375500Y372787D02*
X374319D01*
Y371213D02*
Y370426D01*
Y370819D01*
X376681D01*
X376287Y371213D01*
X370123Y334287D02*
X369729Y334681D01*
X368942D01*
X368548Y334287D01*
Y332713D01*
X368942Y332319D01*
X369729D01*
X370123Y332713D01*
X370910Y332319D02*
X371697D01*
X371303D01*
Y334681D01*
X370910Y334287D01*
X372878D02*
X373271Y334681D01*
X374058D01*
X374452Y334287D01*
Y333894D01*
X374058Y333500D01*
X374452Y333106D01*
Y332713D01*
X374058Y332319D01*
X373271D01*
X372878Y332713D01*
Y333106D01*
X373271Y333500D01*
X372878Y333894D01*
Y334287D01*
X373271Y333500D02*
X374058D01*
X331319Y295787D02*
X330926Y296181D01*
X330139D01*
X329745Y295787D01*
Y294213D01*
X330139Y293819D01*
X330926D01*
X331319Y294213D01*
X333681Y293819D02*
X332106D01*
X333681Y295394D01*
Y295787D01*
X333287Y296181D01*
X332500D01*
X332106Y295787D01*
X334468Y293819D02*
X335255D01*
X334861D01*
Y296181D01*
X334468Y295787D01*
X351800Y349861D02*
Y349468D01*
X352587Y348681D01*
X353374Y349468D01*
Y349861D01*
X352587Y348681D02*
Y347500D01*
X355736D02*
X354161D01*
X355736Y349074D01*
Y349468D01*
X355342Y349861D01*
X354555D01*
X354161Y349468D01*
X316319Y309532D02*
X318681D01*
Y311106D01*
Y313468D02*
Y311894D01*
X317106Y313468D01*
X316713D01*
X316319Y313074D01*
Y312287D01*
X316713Y311894D01*
X331319Y309926D02*
X333681D01*
Y311500D01*
Y312287D02*
Y313074D01*
Y312681D01*
X331319D01*
X331713Y312287D01*
X404713Y379819D02*
X404319Y379426D01*
Y378639D01*
X404713Y378245D01*
X405106D01*
X405500Y378639D01*
Y379426D01*
X405894Y379819D01*
X406287D01*
X406681Y379426D01*
Y378639D01*
X406287Y378245D01*
X404319Y380606D02*
X406681D01*
X405894Y381394D01*
X406681Y382181D01*
X404319D01*
X406681Y382968D02*
Y383755D01*
Y383361D01*
X404319D01*
X404713Y382968D01*
X354926Y304787D02*
X354532Y305181D01*
X353745D01*
X353351Y304787D01*
Y303213D01*
X353745Y302819D01*
X354532D01*
X354926Y303213D01*
X357287Y302819D02*
X355713D01*
X357287Y304394D01*
Y304787D01*
X356894Y305181D01*
X356106D01*
X355713Y304787D01*
X358074Y303213D02*
X358468Y302819D01*
X359255D01*
X359649Y303213D01*
Y304787D01*
X359255Y305181D01*
X358468D01*
X358074Y304787D01*
Y304394D01*
X358468Y304000D01*
X359649D01*
X369622Y354787D02*
X369229Y355181D01*
X368442D01*
X368048Y354787D01*
Y353213D01*
X368442Y352819D01*
X369229D01*
X369622Y353213D01*
X370410Y352819D02*
X371197D01*
X370803D01*
Y355181D01*
X370410Y354787D01*
X372377Y353213D02*
X372771Y352819D01*
X373558D01*
X373952Y353213D01*
Y354787D01*
X373558Y355181D01*
X372771D01*
X372377Y354787D01*
Y354394D01*
X372771Y354000D01*
X373952D01*
X367181Y466532D02*
X364819D01*
Y467713D01*
X365213Y468106D01*
X366000D01*
X366394Y467713D01*
Y466532D01*
Y467319D02*
X367181Y468106D01*
Y470468D02*
Y468894D01*
X365606Y470468D01*
X365213D01*
X364819Y470074D01*
Y469287D01*
X365213Y468894D01*
X371926Y426287D02*
X371532Y426681D01*
X370745D01*
X370351Y426287D01*
Y425894D01*
X370745Y425500D01*
X371532D01*
X371926Y425106D01*
Y424713D01*
X371532Y424319D01*
X370745D01*
X370351Y424713D01*
X372713Y426681D02*
Y424319D01*
X373500Y425106D01*
X374287Y424319D01*
Y426681D01*
X375074Y426287D02*
X375468Y426681D01*
X376255D01*
X376649Y426287D01*
Y425894D01*
X376255Y425500D01*
X375862D01*
X376255D01*
X376649Y425106D01*
Y424713D01*
X376255Y424319D01*
X375468D01*
X375074Y424713D01*
X398213Y437106D02*
X397819Y436713D01*
Y435926D01*
X398213Y435532D01*
X399787D01*
X400181Y435926D01*
Y436713D01*
X399787Y437106D01*
X398213Y437894D02*
X397819Y438287D01*
Y439074D01*
X398213Y439468D01*
X398606D01*
X399000Y439074D01*
Y438681D01*
Y439074D01*
X399394Y439468D01*
X399787D01*
X400181Y439074D01*
Y438287D01*
X399787Y437894D01*
X355532Y458181D02*
Y456213D01*
X355926Y455819D01*
X356713D01*
X357106Y456213D01*
Y458181D01*
X359468Y455819D02*
X357894D01*
X359468Y457394D01*
Y457787D01*
X359074Y458181D01*
X358287D01*
X357894Y457787D01*
X399713Y451106D02*
X399319Y450713D01*
Y449926D01*
X399713Y449532D01*
X401287D01*
X401681Y449926D01*
Y450713D01*
X401287Y451106D01*
X401681Y453468D02*
Y451894D01*
X400106Y453468D01*
X399713D01*
X399319Y453074D01*
Y452287D01*
X399713Y451894D01*
X382032Y466819D02*
Y469181D01*
X383213D01*
X383606Y468787D01*
Y468000D01*
X383213Y467606D01*
X382032D01*
X382819D02*
X383606Y466819D01*
X384394Y468787D02*
X384787Y469181D01*
X385574D01*
X385968Y468787D01*
Y468394D01*
X385574Y468000D01*
X385181D01*
X385574D01*
X385968Y467606D01*
Y467213D01*
X385574Y466819D01*
X384787D01*
X384394Y467213D01*
X381819Y473532D02*
X384181D01*
Y474713D01*
X383787Y475106D01*
X382213D01*
X381819Y474713D01*
Y473532D01*
X384181Y477468D02*
Y475894D01*
X382606Y477468D01*
X382213D01*
X381819Y477074D01*
Y476287D01*
X382213Y475894D01*
X346426Y290787D02*
X346032Y291181D01*
X345245D01*
X344851Y290787D01*
Y289213D01*
X345245Y288819D01*
X346032D01*
X346426Y289213D01*
X348787Y288819D02*
X347213D01*
X348787Y290394D01*
Y290787D01*
X348394Y291181D01*
X347606D01*
X347213Y290787D01*
X349574D02*
X349968Y291181D01*
X350755D01*
X351149Y290787D01*
Y290394D01*
X350755Y290000D01*
X350361D01*
X350755D01*
X351149Y289606D01*
Y289213D01*
X350755Y288819D01*
X349968D01*
X349574Y289213D01*
X327426Y290787D02*
X327032Y291181D01*
X326245D01*
X325851Y290787D01*
Y289213D01*
X326245Y288819D01*
X327032D01*
X327426Y289213D01*
X329787Y288819D02*
X328213D01*
X329787Y290394D01*
Y290787D01*
X329394Y291181D01*
X328606D01*
X328213Y290787D01*
X330574D02*
X330968Y291181D01*
X331755D01*
X332149Y290787D01*
Y289213D01*
X331755Y288819D01*
X330968D01*
X330574Y289213D01*
Y290787D01*
X336926D02*
X336532Y291181D01*
X335745D01*
X335351Y290787D01*
Y289213D01*
X335745Y288819D01*
X336532D01*
X336926Y289213D01*
X339287Y288819D02*
X337713D01*
X339287Y290394D01*
Y290787D01*
X338894Y291181D01*
X338106D01*
X337713Y290787D01*
X341649Y288819D02*
X340074D01*
X341649Y290394D01*
Y290787D01*
X341255Y291181D01*
X340468D01*
X340074Y290787D01*
X296713Y332926D02*
X296319Y332532D01*
Y331745D01*
X296713Y331351D01*
X298287D01*
X298681Y331745D01*
Y332532D01*
X298287Y332926D01*
X296713Y333713D02*
X296319Y334106D01*
Y334894D01*
X296713Y335287D01*
X297106D01*
X297500Y334894D01*
Y334500D01*
Y334894D01*
X297894Y335287D01*
X298287D01*
X298681Y334894D01*
Y334106D01*
X298287Y333713D01*
X298681Y337649D02*
Y336074D01*
X297106Y337649D01*
X296713D01*
X296319Y337255D01*
Y336468D01*
X296713Y336074D01*
X298926Y290787D02*
X298532Y291181D01*
X297745D01*
X297351Y290787D01*
Y289213D01*
X297745Y288819D01*
X298532D01*
X298926Y289213D01*
X301287Y288819D02*
X299713D01*
X301287Y290394D01*
Y290787D01*
X300894Y291181D01*
X300106D01*
X299713Y290787D01*
X303255Y288819D02*
Y291181D01*
X302074Y290000D01*
X303649D01*
X300300Y315600D02*
Y317961D01*
X301481D01*
X301874Y317568D01*
Y316781D01*
X301481Y316387D01*
X300300D01*
X301087D02*
X301874Y315600D01*
X302661D02*
X303449D01*
X303055D01*
Y317961D01*
X302661Y317568D01*
X306204Y317961D02*
X305416Y317568D01*
X304629Y316781D01*
Y315994D01*
X305023Y315600D01*
X305810D01*
X306204Y315994D01*
Y316387D01*
X305810Y316781D01*
X304629D01*
X308426Y290787D02*
X308032Y291181D01*
X307245D01*
X306851Y290787D01*
Y289213D01*
X307245Y288819D01*
X308032D01*
X308426Y289213D01*
X310787Y288819D02*
X309213D01*
X310787Y290394D01*
Y290787D01*
X310394Y291181D01*
X309606D01*
X309213Y290787D01*
X313149Y291181D02*
X311574D01*
Y290000D01*
X312362Y290394D01*
X312755D01*
X313149Y290000D01*
Y289213D01*
X312755Y288819D01*
X311968D01*
X311574Y289213D01*
X317926Y290787D02*
X317532Y291181D01*
X316745D01*
X316351Y290787D01*
Y289213D01*
X316745Y288819D01*
X317532D01*
X317926Y289213D01*
X320287Y288819D02*
X318713D01*
X320287Y290394D01*
Y290787D01*
X319894Y291181D01*
X319106D01*
X318713Y290787D01*
X321074Y291181D02*
X322649D01*
Y290787D01*
X321074Y289213D01*
Y288819D01*
X316426Y295787D02*
X316032Y296181D01*
X315245D01*
X314851Y295787D01*
Y294213D01*
X315245Y293819D01*
X316032D01*
X316426Y294213D01*
X318787Y293819D02*
X317213D01*
X318787Y295394D01*
Y295787D01*
X318394Y296181D01*
X317606D01*
X317213Y295787D01*
X321149Y296181D02*
X320361Y295787D01*
X319574Y295000D01*
Y294213D01*
X319968Y293819D01*
X320755D01*
X321149Y294213D01*
Y294606D01*
X320755Y295000D01*
X319574D01*
X343000Y324300D02*
Y326661D01*
X344181D01*
X344574Y326268D01*
Y325481D01*
X344181Y325087D01*
X343000D01*
X343787D02*
X344574Y324300D01*
X345361D02*
X346149D01*
X345755D01*
Y326661D01*
X345361Y326268D01*
X348904Y324300D02*
X347329D01*
X348904Y325874D01*
Y326268D01*
X348510Y326661D01*
X347723D01*
X347329Y326268D01*
X364319Y473926D02*
X366681D01*
Y475106D01*
X366287Y475500D01*
X364713D01*
X364319Y475106D01*
Y473926D01*
X366681Y476287D02*
Y477074D01*
Y476681D01*
X364319D01*
X364713Y476287D01*
M02*
